<svg width="160" height="84" viewBox="0 0 160 84" fill="none" xmlns="http://www.w3.org/2000/svg">
<path d="M58.2518 13.9156C58.2518 20.372 53.0179 25.606 46.5615 25.606C40.105 25.606 34.8711 20.372 34.8711 13.9156C34.8711 7.45918 40.105 2.22524 46.5615 2.22524C53.0179 2.22524 58.2518 7.45918 58.2518 13.9156Z" fill="#1A1A1A"/>
<path d="M106.681 0.000282288H78.8468C75.0057 0.000282288 71.5208 1.559 69.0046 4.07521C66.4884 6.59699 64.9297 10.0707 64.9297 13.9174C64.9297 21.5996 71.159 27.8345 78.8468 27.8345H106.681C110.522 27.8345 114.007 26.2758 116.523 23.754C119.039 21.2378 120.598 17.7585 120.598 13.9174C120.598 6.22957 114.369 0.000282288 106.681 0.000282288Z" fill="#1A1A1A"/>
<path d="M118.369 13.9156C118.369 20.372 113.135 25.606 106.679 25.606C100.222 25.606 94.9883 20.372 94.9883 13.9156C94.9883 7.45918 100.222 2.22524 106.679 2.22524C113.135 2.22524 118.369 7.45918 118.369 13.9156Z" fill="white"/>
<path d="M4.24638 65.4138H12.3845C11.8056 63.226 10.4222 62.1004 8.42819 62.1004C6.36902 62.1004 4.79305 63.3552 4.24638 65.4138ZM16.4378 66.9898C16.4378 67.4079 16.4378 67.8259 16.4055 68.3086H4.18181C4.63217 70.6244 6.40131 71.7828 8.39535 71.7828C10.0359 71.7828 11.5801 71.0753 12.4486 69.9491L15.183 72.2332C13.7033 74.3241 11.0017 75.4497 8.42819 75.4497C3.60286 75.4497 0 71.7183 0 67.0866C0 62.2613 3.57057 58.5939 8.39535 58.5939C13.0281 58.5939 16.3737 61.6824 16.4378 66.9898Z" fill="#1A1A1A"/>
<path d="M30.592 67.0537C30.592 64.577 28.7911 62.7433 26.4748 62.7433C24.1584 62.7433 22.3898 64.577 22.3898 67.0537C22.3898 69.5309 24.1584 71.3641 26.4748 71.3641C28.7911 71.3641 30.592 69.5309 30.592 67.0537ZM17.918 67.0537C17.918 62.3892 21.1028 58.8186 25.3491 58.8186C27.7618 58.8186 29.4018 59.6876 30.592 61.1033V59.1087H35.0956V75.0315H30.592V73.0369C29.4018 74.4203 27.7618 75.3215 25.3491 75.3215C21.1028 75.3215 17.918 71.7181 17.918 67.0537Z" fill="#1A1A1A"/>
<path d="M40.4672 69.4022V63.0332H37.0898V59.1085H40.4672V54.4764H44.9068V59.1085H49.3458V63.0332H44.9068V68.4052C44.9068 70.3029 46.1287 70.9782 47.6412 70.9782C48.1873 70.9782 48.7663 70.8819 49.2812 70.721L49.7633 74.5816C48.6382 74.9345 47.6084 75.0959 46.6114 75.0959C43.0079 75.0959 40.4672 72.8442 40.4672 69.4022Z" fill="#1A1A1A"/>
<path d="M61.0527 59.1081H65.5563V61.1667C66.9074 59.4299 68.9977 58.7863 71.6681 58.8181V63.5794C70.8966 63.1613 70.1885 63.0327 69.3523 63.0327C67.4218 63.0327 65.5563 64.6404 65.5563 67.7289V75.0315H61.0527V59.1081Z" fill="#1A1A1A"/>
<path d="M76.945 65.4138H85.0838C84.5048 63.226 83.122 62.1004 81.1274 62.1004C79.0682 62.1004 77.4917 63.3552 76.945 65.4138ZM89.1364 66.9898C89.1364 67.4079 89.1364 67.8259 89.1052 68.3086H76.881C77.3308 70.6244 79.1005 71.7828 81.0951 71.7828C82.7357 71.7828 84.2799 71.0753 85.1483 69.9491L87.8822 72.2332C86.4025 74.3241 83.7004 75.4497 81.1274 75.4497C76.3021 75.4497 72.6992 71.7183 72.6992 67.0866C72.6992 62.2613 76.2698 58.5939 81.0951 58.5939C85.7267 58.5939 89.0724 61.6824 89.1364 66.9898Z" fill="#1A1A1A"/>
<path d="M104.096 67.0861C104.096 64.5766 102.36 62.7428 100.043 62.7428C97.7274 62.7428 95.9254 64.5766 95.9254 67.0861C95.9254 69.531 97.7274 71.3642 100.043 71.3642C102.36 71.3642 104.096 69.531 104.096 67.0861ZM91.4219 59.1082H95.9254V61.1351C97.1156 59.7512 98.7562 58.8182 101.169 58.8182C105.415 58.8182 108.6 62.3888 108.6 67.0861C108.6 71.7177 105.415 75.3211 101.169 75.3211C98.7562 75.3211 97.1156 74.3558 95.9254 73.0047V83.0735H91.4219V59.1082Z" fill="#1A1A1A"/>
<path d="M114.484 65.4138H122.623C122.044 63.226 120.661 62.1004 118.666 62.1004C116.607 62.1004 115.031 63.3552 114.484 65.4138ZM126.675 66.9898C126.675 67.4079 126.675 67.8259 126.644 68.3086H114.42C114.87 70.6244 116.64 71.7828 118.634 71.7828C120.275 71.7828 121.819 71.0753 122.687 69.9491L125.421 72.2332C123.942 74.3241 121.239 75.4497 118.666 75.4497C113.841 75.4497 110.238 71.7183 110.238 67.0866C110.238 62.2613 113.809 58.5939 118.634 58.5939C123.266 58.5939 126.611 61.6824 126.675 66.9898Z" fill="#1A1A1A"/>
<path d="M140.831 67.0539C140.831 64.5772 139.029 62.7435 136.714 62.7435C134.397 62.7435 132.628 64.5772 132.628 67.0539C132.628 69.5312 134.397 71.3643 136.714 71.3643C139.029 71.3643 140.831 69.5312 140.831 67.0539ZM128.156 67.0539C128.156 62.3895 131.341 58.8189 135.587 58.8189C138 58.8189 139.64 59.6879 140.831 61.1035V59.1089H145.334V75.0317H140.831V73.0371C139.64 74.4205 138 75.3218 135.587 75.3218C131.341 75.3218 128.156 71.7184 128.156 67.0539Z" fill="#1A1A1A"/>
<path d="M150.702 69.4019V63.0329H147.324V59.1083H150.702V54.4761H155.141V59.1083H159.58V63.0329H155.141V68.4049C155.141 70.3027 156.363 70.9779 157.875 70.9779C158.422 70.9779 159.001 70.8816 159.516 70.7207L159.998 74.5813C158.872 74.9343 157.843 75.0957 156.846 75.0957C153.243 75.0957 150.702 72.8439 150.702 69.4019Z" fill="#1A1A1A"/>
</svg>
