<svg width="50" height="50" viewBox="0 0 50 50" fill="none" xmlns="http://www.w3.org/2000/svg">
<g clip-path="url(#clip0)">
<path d="M24.785 0.0139771C12.1237 0.0139771 12.9142 5.50467 12.9142 5.50467L12.9283 11.1932H25.0107V12.901H8.12931C8.12931 12.901 0.0273438 11.9822 0.0273438 24.7574C0.0273438 37.5329 7.09894 37.0798 7.09894 37.0798H11.3192V31.1515C11.3192 31.1515 11.0917 24.0799 18.278 24.0799H30.2616C30.2616 24.0799 36.9944 24.1887 36.9944 17.5729V6.63406C36.9944 6.63406 38.0169 0.0139771 24.785 0.0139771ZM18.1227 3.8394C18.4082 3.83914 18.691 3.89519 18.9548 4.00433C19.2187 4.11348 19.4584 4.27357 19.6603 4.47546C19.8622 4.67736 20.0223 4.91708 20.1314 5.18091C20.2405 5.44474 20.2966 5.72751 20.2963 6.01302C20.2966 6.29854 20.2405 6.5813 20.1314 6.84514C20.0223 7.10897 19.8622 7.34869 19.6603 7.55058C19.4584 7.75247 19.2187 7.91257 18.9548 8.02171C18.691 8.13086 18.4082 8.1869 18.1227 8.18664C17.8372 8.1869 17.5544 8.13086 17.2906 8.02171C17.0268 7.91257 16.787 7.75247 16.5852 7.55058C16.3833 7.34869 16.2232 7.10897 16.114 6.84514C16.0049 6.5813 15.9488 6.29854 15.9491 6.01302C15.9488 5.72751 16.0049 5.44474 16.114 5.18091C16.2232 4.91708 16.3833 4.67736 16.5852 4.47546C16.787 4.27357 17.0268 4.11348 17.2906 4.00433C17.5544 3.89519 17.8372 3.83914 18.1227 3.8394Z" fill="url(#paint0_linear)"/>
<path d="M25.1459 49.6294C37.8072 49.6294 37.0166 44.1387 37.0166 44.1387L37.0026 38.4504H24.9199V36.7425H41.8013C41.8013 36.7425 49.9033 37.6614 49.9033 24.8859C49.9033 12.1106 42.8317 12.5636 42.8317 12.5636H38.6114V18.4918C38.6114 18.4918 38.8389 25.5633 31.6527 25.5633H19.669C19.669 25.5633 12.9363 25.4546 12.9363 32.0705V43.0095C12.9363 43.0095 11.9139 49.6294 25.1457 49.6294H25.1459ZM31.8081 45.8043C31.5226 45.8046 31.2399 45.7486 30.976 45.6394C30.7122 45.5303 30.4725 45.3702 30.2706 45.1683C30.0687 44.9664 29.9086 44.7267 29.7995 44.4628C29.6903 44.199 29.6343 43.9162 29.6345 43.6307C29.6342 43.3452 29.6903 43.0624 29.7994 42.7986C29.9085 42.5347 30.0686 42.295 30.2705 42.093C30.4724 41.8911 30.7121 41.731 30.976 41.6219C31.2398 41.5127 31.5226 41.4567 31.8081 41.4569C32.0937 41.4567 32.3764 41.5127 32.6403 41.6218C32.9041 41.731 33.1438 41.8911 33.3457 42.093C33.5476 42.2949 33.7077 42.5346 33.8168 42.7984C33.926 43.0622 33.982 43.345 33.9818 43.6305C33.982 43.916 33.926 44.1988 33.8168 44.4626C33.7077 44.7265 33.5476 44.9662 33.3457 45.1681C33.1438 45.37 32.9041 45.5301 32.6403 45.6392C32.3764 45.7484 32.0937 45.8044 31.8081 45.8041V45.8043Z" fill="url(#paint1_linear)"/>
</g>
<defs>
<linearGradient id="paint0_linear" x1="4.82028" y1="4.47657" x2="29.5366" y2="28.9463" gradientUnits="userSpaceOnUse">
<stop stop-color="#387EB8"/>
<stop offset="1" stop-color="#366994"/>
</linearGradient>
<linearGradient id="paint1_linear" x1="19.9925" y1="20.1898" x2="46.5349" y2="45.2813" gradientUnits="userSpaceOnUse">
<stop stop-color="#FFE052"/>
<stop offset="1" stop-color="#FFC331"/>
</linearGradient>
<clipPath id="clip0">
<rect width="50" height="49.8" fill="white"/>
</clipPath>
</defs>
</svg>
