<svg width="35" height="35" viewBox="0 0 35 35" fill="none" xmlns="http://www.w3.org/2000/svg">
<rect width="35" height="35" rx="8" fill="#1BD741"/>
<path d="M18.9502 11H9.31145C8.04015 11 7 12.0894 7 13.4209V21.5791C7 22.9106 8.04015 24 9.31145 24H18.9502C20.2215 24 21.2616 22.9106 21.2616 21.5791V13.4209C21.2616 12.0652 20.2215 11 18.9502 11Z" fill="white"/>
<path d="M26.4168 12.331C26.2781 12.3552 26.1394 12.4278 26.0238 12.5004L22.418 14.6792V20.2956L26.0469 22.4744C26.7173 22.8859 27.5494 22.6438 27.9423 21.9418C28.0579 21.7239 28.1272 21.4818 28.1272 21.2155V13.7351C28.1272 12.8394 27.3182 12.1131 26.4168 12.331Z" fill="white"/>
</svg>
