<svg width="35" height="35" viewBox="0 0 35 35" fill="none" xmlns="http://www.w3.org/2000/svg">
<path d="M17.5 35C27.165 35 35 27.165 35 17.5C35 7.83502 27.165 0 17.5 0C7.83502 0 0 7.83502 0 17.5C0 27.165 7.83502 35 17.5 35Z" fill="#039BE5"/>
<path d="M8.00626 17.1214L24.8792 10.6158C25.6623 10.3328 26.3463 10.8068 26.0925 11.991L26.094 11.9895L23.2211 25.5243C23.0081 26.4839 22.4379 26.7172 21.6402 26.2651L17.2652 23.0408L15.155 25.0737C14.9217 25.307 14.7248 25.5039 14.2727 25.5039L14.5833 21.0516L22.6917 13.7264C23.0446 13.4158 22.6129 13.2408 22.1477 13.5499L12.1275 19.8587L7.80793 18.5112C6.87022 18.2137 6.8498 17.5735 8.00626 17.1214Z" fill="white"/>
</svg>
