<svg width="35" height="35" viewBox="0 0 35 35" fill="none" xmlns="http://www.w3.org/2000/svg">
<path d="M34.3787 17.6816C34.3787 8.5925 26.9062 1.22281 17.6859 1.22281C16.7147 1.22281 15.7609 1.30594 14.8313 1.46344C13.3394 0.538125 11.5741 0 9.68188 0C4.33344 0 0 4.27219 0 9.54625C0 11.3072 0.485625 12.9544 1.33 14.3741C1.10906 15.4416 0.990938 16.5506 0.990938 17.6816C0.990938 26.7728 8.46562 34.1425 17.6838 34.1425C18.7294 34.1425 19.7488 34.0462 20.7419 33.8669C22.1069 34.5887 23.6622 35 25.3203 35C30.6666 35 35 30.7256 35 25.4559C35 23.9334 34.6369 22.4941 33.9938 21.2166C34.2475 20.0747 34.3787 18.8956 34.3787 17.6816Z" fill="#03A9F4"/>
<path d="M26.247 25.5472C25.4748 26.6257 24.3351 27.4788 22.8541 28.0825C21.3907 28.6819 19.6385 28.9904 17.6391 28.9904C15.2416 28.9904 13.2313 28.5747 11.6607 27.7522C10.5385 27.155 9.61539 26.3479 8.9132 25.346C8.20227 24.3397 7.8457 23.34 7.8457 22.371C7.8457 21.7716 8.07977 21.2466 8.54133 20.82C8.99852 20.3935 9.58477 20.1813 10.2848 20.1813C10.8579 20.1813 11.3523 20.3497 11.7548 20.6844C12.1376 21.0082 12.4679 21.485 12.7326 22.0954C13.0279 22.7647 13.3495 23.3291 13.6885 23.7688C14.0188 24.1997 14.4891 24.5585 15.0907 24.8407C15.6966 25.1207 16.5126 25.2672 17.5145 25.2672C18.8948 25.2672 20.0279 24.9741 20.8766 24.4032C21.7101 23.8454 22.1126 23.1716 22.1126 22.3491C22.1126 21.7016 21.9004 21.1897 21.4695 20.7894C21.0145 20.3694 20.4151 20.0435 19.6888 19.8182C18.9298 19.5863 17.8995 19.3325 16.6263 19.07C14.8916 18.7047 13.4195 18.2738 12.2513 17.7794C11.0548 17.2763 10.0879 16.5807 9.38352 15.7122C8.66602 14.8241 8.30289 13.715 8.30289 12.4113C8.30289 11.1688 8.68352 10.0488 9.43602 9.08191C10.182 8.1216 11.2713 7.37129 12.6779 6.8616C14.0626 6.35629 15.7098 6.10254 17.5757 6.10254C19.0654 6.10254 20.3757 6.27316 21.4716 6.61004C22.572 6.94691 23.4995 7.40191 24.2279 7.9641C24.9629 8.53285 25.5098 9.13441 25.851 9.76441C26.1966 10.3988 26.3738 11.031 26.3738 11.6413C26.3738 12.2297 26.1441 12.7657 25.6891 13.2294C25.2298 13.6975 24.6523 13.9338 23.9741 13.9338C23.3573 13.9338 22.8716 13.7829 22.537 13.4919C22.2241 13.2185 21.8982 12.7919 21.5395 12.1838C21.1238 11.405 20.6185 10.7904 20.041 10.355C19.4788 9.93285 18.5426 9.72285 17.252 9.72285C16.0576 9.72285 15.082 9.9591 14.3601 10.4272C13.6645 10.8757 13.3254 11.3919 13.3254 12.0044C13.3254 12.3785 13.4348 12.6913 13.6601 12.9604C13.8963 13.2491 14.231 13.4963 14.6554 13.7063C15.0929 13.9229 15.5457 14.0979 15.9985 14.2204C16.4623 14.3472 17.2388 14.5375 18.3085 14.7804C19.6604 15.0647 20.9007 15.3863 21.9988 15.7341C23.1123 16.0819 24.0704 16.5129 24.8579 17.0182C25.6563 17.5322 26.2885 18.1885 26.7391 18.976C27.1898 19.77 27.4173 20.7435 27.4173 21.8766C27.4151 23.2307 27.0213 24.4666 26.247 25.5472Z" fill="#FAFAFA"/>
</svg>
