<svg width="35" height="35" viewBox="0 0 35 35" fill="none" xmlns="http://www.w3.org/2000/svg">
<path d="M27 0H8C3.58172 0 0 3.58172 0 8V27C0 31.4183 3.58172 35 8 35H27C31.4183 35 35 31.4183 35 27V8C35 3.58172 31.4183 0 27 0Z" fill="#7D3DAF"/>
<path d="M28.5683 11.2823L28.5614 11.2546C28.0023 8.9944 25.4817 6.56907 23.167 6.06449L23.1409 6.05912C19.3969 5.34488 15.6007 5.34488 11.8575 6.05912L11.8306 6.06449C9.5166 6.56907 6.99603 8.9944 6.43616 11.2546L6.43002 11.2823C5.73882 14.4387 5.73882 17.6397 6.43002 20.7962L6.43616 20.8239C6.97215 22.9876 9.30502 25.3015 11.5334 25.9379V28.4609C11.5334 29.374 12.6462 29.8226 13.279 29.1636L15.8353 26.5064C16.3897 26.5374 16.9444 26.5547 17.4992 26.5547C19.3838 26.5547 21.2693 26.3766 23.1409 26.0194L23.167 26.0141C25.4817 25.5095 28.0023 23.0841 28.5614 20.8239L28.5683 20.7963C29.2595 17.6397 29.2595 14.4387 28.5683 11.2823ZM26.5454 20.3385C26.1721 21.813 24.2583 23.6462 22.7377 23.9849C20.7469 24.3635 18.7405 24.5253 16.736 24.4698C16.6961 24.4687 16.6578 24.4841 16.63 24.5127C16.3455 24.8047 14.7636 26.4287 14.7636 26.4287L12.7783 28.4662C12.6331 28.6175 12.3782 28.5146 12.3782 28.3057V24.1261C12.3782 24.057 12.3288 23.9984 12.261 23.9851C12.2607 23.985 12.2603 23.9849 12.2599 23.9849C10.7392 23.6462 8.82617 21.813 8.45215 20.3384C7.83008 17.4853 7.83008 14.593 8.45215 11.7399C8.82617 10.2654 10.7392 8.43215 12.2599 8.09346C15.7366 7.43222 19.2617 7.43222 22.7377 8.09346C24.2591 8.43215 26.1721 10.2654 26.5454 11.7399C27.1682 14.5931 27.1682 17.4854 26.5454 20.3385Z" fill="white"/>
<path d="M20.8076 22.2673C20.5738 22.1963 20.351 22.1487 20.1441 22.0628C18.0002 21.1733 16.027 20.0258 14.4641 18.2667C13.5753 17.2663 12.8796 16.137 12.2916 14.9418C12.0127 14.3751 11.7777 13.7861 11.5382 13.2009C11.3197 12.6673 11.6415 12.1161 11.9802 11.714C12.2981 11.3367 12.7071 11.0479 13.1501 10.8351C13.4959 10.669 13.8369 10.7648 14.0894 11.0578C14.6353 11.6914 15.1368 12.3575 15.5428 13.0919C15.7925 13.5436 15.724 14.0958 15.2715 14.4032C15.1615 14.478 15.0613 14.5657 14.9588 14.6501C14.869 14.724 14.7844 14.7988 14.7228 14.8989C14.6102 15.0822 14.6048 15.2983 14.6773 15.4975C15.2354 17.031 16.1759 18.2235 17.7195 18.8658C17.9664 18.9685 18.2145 19.0882 18.4991 19.055C18.9756 18.9993 19.1299 18.4766 19.4638 18.2035C19.7902 17.9366 20.2073 17.9331 20.5589 18.1556C20.9106 18.3782 21.2515 18.6171 21.5903 18.8586C21.9229 19.0956 22.2541 19.3274 22.5609 19.5976C22.8559 19.8574 22.9575 20.1982 22.7914 20.5508C22.4873 21.1966 22.0447 21.7338 21.4064 22.0767C21.2261 22.1734 21.0109 22.2047 20.8076 22.2673C20.5738 22.1963 21.0109 22.2047 20.8076 22.2673Z" fill="white"/>
<path d="M17.5066 10.0969C20.3109 10.1754 22.6142 12.0365 23.1078 14.809C23.1919 15.2814 23.2218 15.7644 23.2592 16.2438C23.275 16.4455 23.1608 16.6371 22.9431 16.6397C22.7183 16.6424 22.6172 16.4544 22.6026 16.2528C22.5737 15.8537 22.5537 15.4529 22.4987 15.0571C22.2084 12.9681 20.5426 11.2398 18.4633 10.8689C18.1504 10.8131 17.8301 10.7984 17.5132 10.7652C17.3128 10.7441 17.0504 10.732 17.006 10.4829C16.9687 10.2741 17.145 10.1079 17.3438 10.0972C17.3979 10.0942 17.4523 10.0966 17.5066 10.0969C20.3109 10.1754 17.4523 10.0966 17.5066 10.0969Z" fill="white"/>
<path d="M21.7669 15.6218C21.7623 15.6568 21.7599 15.7391 21.7394 15.8167C21.6649 16.0982 21.2381 16.1335 21.1398 15.8493C21.1107 15.765 21.1063 15.6691 21.1061 15.5783C21.1051 14.9843 20.976 14.391 20.6765 13.8742C20.3686 13.343 19.8982 12.8965 19.3465 12.6263C19.0129 12.463 18.6521 12.3615 18.2864 12.3009C18.1266 12.2745 17.9651 12.2585 17.8045 12.2361C17.6099 12.2091 17.506 12.0851 17.5152 11.8933C17.5238 11.7136 17.6551 11.5843 17.851 11.5954C18.4946 11.6319 19.1162 11.771 19.6883 12.074C20.8519 12.6902 21.5165 13.6628 21.7105 14.9614C21.7192 15.0203 21.7334 15.0786 21.7378 15.1376C21.7488 15.2835 21.7557 15.4295 21.7669 15.6218C21.7623 15.6568 21.7557 15.4295 21.7669 15.6218Z" fill="white"/>
<path d="M20.0231 15.5537C19.7885 15.5579 19.663 15.4281 19.6388 15.2129C19.6219 15.0629 19.6087 14.911 19.5729 14.765C19.5024 14.4777 19.3496 14.2113 19.1079 14.0352C18.9937 13.952 18.8644 13.8914 18.7289 13.8524C18.5568 13.8027 18.3781 13.8163 18.2064 13.7742C18.0199 13.7285 17.9168 13.5776 17.9461 13.4026C17.9728 13.2434 18.1277 13.1191 18.3016 13.1317C19.3889 13.2102 20.1659 13.7723 20.2768 15.0523C20.2847 15.1426 20.2939 15.238 20.2738 15.3244C20.2395 15.4724 20.13 15.5465 20.0231 15.5537C19.7885 15.5579 20.13 15.5465 20.0231 15.5537Z" fill="white"/>
</svg>
