<svg width="35" height="35" viewBox="0 0 35 35" fill="none" xmlns="http://www.w3.org/2000/svg">
<path d="M35 8C35 3.58172 31.4183 0 27 0H8C3.58172 0 0 3.58172 0 8V27C0 31.4183 3.58172 35 8 35H27C31.4183 35 35 31.4183 35 27V8Z" fill="#1BD741"/>
<path d="M5.26147 29.753L6.97587 23.664C5.87341 21.7911 5.29296 19.6601 5.29296 17.471C5.29296 10.7307 10.7766 5.24707 17.5169 5.24707C24.2573 5.24707 29.7408 10.7307 29.7408 17.471C29.7408 24.2114 24.2573 29.695 17.5169 29.695C15.4167 29.695 13.3602 29.1574 11.5408 28.1366L5.26147 29.753ZM11.8619 25.9127L12.236 26.1412C13.8223 27.1096 15.6484 27.6214 17.5169 27.6214C23.1139 27.6214 27.6672 23.068 27.6672 17.471C27.6672 11.8741 23.1139 7.32066 17.5169 7.32066C11.92 7.32066 7.36655 11.8741 7.36655 17.471C7.36655 19.4212 7.92082 21.315 8.96929 22.9477L9.22127 23.3401L8.23401 26.8466L11.8619 25.9127Z" fill="white"/>
<path d="M14.0824 11.782L13.2892 11.7387C13.04 11.7251 12.7957 11.8084 12.6074 11.972C12.2228 12.3059 11.608 12.9515 11.4191 13.7928C11.1375 15.0471 11.5727 16.5831 12.6991 18.1191C13.8256 19.6551 15.9247 22.1127 19.6367 23.1623C20.8328 23.5005 21.7738 23.2725 22.4998 22.8081C23.0748 22.4403 23.4711 21.85 23.614 21.1826L23.7406 20.5911C23.7809 20.4031 23.6854 20.2123 23.5108 20.1318L20.8301 18.8962C20.656 18.816 20.4497 18.8667 20.3326 19.0184L19.2803 20.3826C19.2008 20.4857 19.0647 20.5265 18.9418 20.4834C18.2211 20.2301 15.807 19.219 14.4823 16.6674C14.4249 16.5568 14.4392 16.4224 14.5207 16.3281L15.5264 15.1645C15.6292 15.0457 15.6552 14.8787 15.5934 14.7343L14.4379 12.0309C14.3764 11.887 14.2385 11.7905 14.0824 11.782Z" fill="white"/>
</svg>
