<svg width="35" height="35" viewBox="0 0 35 35" fill="none" xmlns="http://www.w3.org/2000/svg">
<rect width="35" height="35" rx="8" fill="#1BD741"/>
<g clip-path="url(#clip0)">
<path d="M24.6359 20.1586C23.5951 20.1586 22.5732 19.9958 21.6047 19.6757C21.1302 19.5139 20.5469 19.6624 20.2572 19.9598L18.3457 21.4028C16.129 20.2195 14.7635 18.8544 13.5963 16.6543L14.9968 14.7926C15.3607 14.4292 15.4912 13.8984 15.3348 13.4004C15.0134 12.4269 14.8502 11.4054 14.8502 10.3642C14.8502 9.61196 14.2383 9 13.4861 9H10.3641C9.61196 9 9 9.61196 9 10.3641C9 18.9859 16.0142 26 24.6359 26C25.3881 26 26 25.388 26 24.6359V21.5226C26 20.7705 25.388 20.1586 24.6359 20.1586Z" fill="white"/>
</g>
<defs>
<clipPath id="clip0">
<rect width="17" height="17" fill="white" transform="translate(9 9)"/>
</clipPath>
</defs>
</svg>
