<svg width="18" height="18" viewBox="0 0 18 18" fill="none" xmlns="http://www.w3.org/2000/svg">
<path d="M8.99941 4.27472C6.38831 4.27472 4.27441 6.39092 4.27441 8.99972C4.27441 11.6108 6.39061 13.7247 8.99941 13.7247C11.6105 13.7247 13.7244 11.6085 13.7244 8.99972C13.7244 6.38862 11.6082 4.27472 8.99941 4.27472ZM8.99941 12.0666C7.30446 12.0666 5.93254 10.6939 5.93254 8.99972C5.93254 7.30553 7.30523 5.93284 8.99941 5.93284C10.6936 5.93284 12.0663 7.30553 12.0663 8.99972C12.0671 10.6939 10.6944 12.0666 8.99941 12.0666Z" fill="#BDBFC8"/>
<path d="M8.99941 4.27472C6.38831 4.27472 4.27441 6.39092 4.27441 8.99972C4.27441 11.6108 6.39061 13.7247 8.99941 13.7247C11.6105 13.7247 13.7244 11.6085 13.7244 8.99972C13.7244 6.38862 11.6082 4.27472 8.99941 4.27472ZM8.99941 12.0666C7.30446 12.0666 5.93254 10.6939 5.93254 8.99972C5.93254 7.30553 7.30523 5.93284 8.99941 5.93284C10.6936 5.93284 12.0663 7.30553 12.0663 8.99972C12.0671 10.6939 10.6944 12.0666 8.99941 12.0666Z" fill="url(#paint0_linear)"/>
<path d="M12.7112 0.056539C11.0552 -0.0207096 6.95342 -0.0169597 5.29592 0.056539C3.83942 0.124788 2.55467 0.476532 1.51892 1.51226C-0.21208 3.24323 0.00917045 5.57569 0.00917045 8.99638C0.00917045 12.4973 -0.18583 14.7758 1.51892 16.4805C3.25667 18.2175 5.62292 17.9902 9.00317 17.9902C12.4712 17.9902 13.6682 17.9925 14.8944 17.5177C16.5617 16.8705 17.8202 15.3803 17.9432 12.7036C18.0212 11.0468 18.0167 6.94592 17.9432 5.28845C17.7947 2.12875 16.0989 0.212536 12.7112 0.056539ZM15.3324 15.3353C14.1977 16.47 12.6234 16.3688 8.98142 16.3688C5.23142 16.3688 3.72767 16.4243 2.63042 15.324C1.36667 14.0663 1.59542 12.0466 1.59542 8.98438C1.59542 4.8407 1.17017 1.85651 5.32892 1.64351C6.28442 1.60976 6.56567 1.59851 8.97092 1.59851L9.00467 1.62101C13.0014 1.62101 16.1372 1.20252 16.3254 5.36045C16.3682 6.30918 16.3779 6.59417 16.3779 8.99563C16.3772 12.7021 16.4477 14.2148 15.3324 15.3353Z" fill="#BDBFC8"/>
<path d="M12.7112 0.056539C11.0552 -0.0207096 6.95342 -0.0169597 5.29592 0.056539C3.83942 0.124788 2.55467 0.476532 1.51892 1.51226C-0.21208 3.24323 0.00917045 5.57569 0.00917045 8.99638C0.00917045 12.4973 -0.18583 14.7758 1.51892 16.4805C3.25667 18.2175 5.62292 17.9902 9.00317 17.9902C12.4712 17.9902 13.6682 17.9925 14.8944 17.5177C16.5617 16.8705 17.8202 15.3803 17.9432 12.7036C18.0212 11.0468 18.0167 6.94592 17.9432 5.28845C17.7947 2.12875 16.0989 0.212536 12.7112 0.056539ZM15.3324 15.3353C14.1977 16.47 12.6234 16.3688 8.98142 16.3688C5.23142 16.3688 3.72767 16.4243 2.63042 15.324C1.36667 14.0663 1.59542 12.0466 1.59542 8.98438C1.59542 4.8407 1.17017 1.85651 5.32892 1.64351C6.28442 1.60976 6.56567 1.59851 8.97092 1.59851L9.00467 1.62101C13.0014 1.62101 16.1372 1.20252 16.3254 5.36045C16.3682 6.30918 16.3779 6.59417 16.3779 8.99563C16.3772 12.7021 16.4477 14.2148 15.3324 15.3353Z" fill="url(#paint1_linear)"/>
<path d="M13.8377 5.17472C14.3969 5.17472 14.8502 4.72141 14.8502 4.16222C14.8502 3.60303 14.3969 3.14972 13.8377 3.14972C13.2785 3.14972 12.8252 3.60303 12.8252 4.16222C12.8252 4.72141 13.2785 5.17472 13.8377 5.17472Z" fill="#BDBFC8"/>
<path d="M13.8377 5.17472C14.3969 5.17472 14.8502 4.72141 14.8502 4.16222C14.8502 3.60303 14.3969 3.14972 13.8377 3.14972C13.2785 3.14972 12.8252 3.60303 12.8252 4.16222C12.8252 4.72141 13.2785 5.17472 13.8377 5.17472Z" fill="url(#paint2_linear)"/>
<defs>
<linearGradient id="paint0_linear" x1="5.65843" y1="12.3407" x2="12.3404" y2="5.65873" gradientUnits="userSpaceOnUse">
<stop stop-color="#FFC107"/>
<stop offset="0.507" stop-color="#F44336"/>
<stop offset="0.99" stop-color="#9C27B0"/>
</linearGradient>
<linearGradient id="paint1_linear" x1="2.63621" y1="15.3638" x2="15.3638" y2="2.63621" gradientUnits="userSpaceOnUse">
<stop stop-color="#FFC107"/>
<stop offset="0.507" stop-color="#F44336"/>
<stop offset="0.99" stop-color="#9C27B0"/>
</linearGradient>
<linearGradient id="paint2_linear" x1="13.1218" y1="4.87815" x2="14.5536" y2="3.44629" gradientUnits="userSpaceOnUse">
<stop stop-color="#FFC107"/>
<stop offset="0.507" stop-color="#F44336"/>
<stop offset="0.99" stop-color="#9C27B0"/>
</linearGradient>
</defs>
</svg>
