<svg width="37" height="36" viewBox="0 0 37 36" fill="none" xmlns="http://www.w3.org/2000/svg">
<rect width="36.0474" height="36" rx="18" fill="white"/>
<rect width="36.0474" height="36" rx="18" fill="url(#paint0_linear)"/>
<path d="M18.0203 13.2754C15.4057 13.2754 13.2891 15.3916 13.2891 18.0004C13.2891 20.6115 15.408 22.7254 18.0203 22.7254C20.6348 22.7254 22.7515 20.6092 22.7515 18.0004C22.7515 15.3893 20.6325 13.2754 18.0203 13.2754ZM18.0203 21.0673C16.3231 21.0673 14.9494 19.6946 14.9494 18.0004C14.9494 16.3062 16.3239 14.9335 18.0203 14.9335C19.7167 14.9335 21.0912 16.3062 21.0912 18.0004C21.092 19.6946 19.7175 21.0673 18.0203 21.0673Z" fill="white"/>
<path d="M21.7396 9.05654C20.0814 8.97929 15.9743 8.98304 14.3146 9.05654C12.8562 9.12479 11.5698 9.47653 10.5326 10.5123C8.79936 12.2432 9.0209 14.5757 9.0209 17.9964C9.0209 21.4973 8.82564 23.7758 10.5326 25.4805C12.2727 27.2175 14.642 26.9902 18.0267 26.9902C21.4993 26.9902 22.6979 26.9925 23.9258 26.5177C25.5952 25.8705 26.8554 24.3803 26.9785 21.7036C27.0566 20.0468 27.0521 15.9459 26.9785 14.2884C26.8298 11.1288 25.1318 9.21254 21.7396 9.05654ZM24.3643 24.3353C23.2281 25.47 21.6518 25.3688 18.005 25.3688C14.25 25.3688 12.7443 25.4243 11.6456 24.324C10.3802 23.0663 10.6092 21.0466 10.6092 17.9844C10.6092 13.8407 10.1834 10.8565 14.3477 10.6435C15.3044 10.6098 15.586 10.5985 17.9945 10.5985L18.0282 10.621C22.0303 10.621 25.1701 10.2025 25.3586 14.3604C25.4014 15.3092 25.4112 15.5942 25.4112 17.9956C25.4105 21.7021 25.4811 23.2148 24.3643 24.3353Z" fill="white"/>
<path d="M22.8654 14.1754C23.4253 14.1754 23.8792 13.7221 23.8792 13.1629C23.8792 12.6037 23.4253 12.1504 22.8654 12.1504C22.3055 12.1504 21.8516 12.6037 21.8516 13.1629C21.8516 13.7221 22.3055 14.1754 22.8654 14.1754Z" fill="white"/>
<defs>
<linearGradient id="paint0_linear" x1="5.27937" y1="30.7276" x2="30.7345" y2="5.23893" gradientUnits="userSpaceOnUse">
<stop stop-color="#FFC107"/>
<stop offset="0.507" stop-color="#F44336"/>
<stop offset="0.99" stop-color="#9C27B0"/>
</linearGradient>
</defs>
</svg>
