<svg width="32" height="32" viewBox="0 0 32 32" fill="none" xmlns="http://www.w3.org/2000/svg">
<path d="M16.004 0H15.996C7.174 0 0 7.176 0 16C0 19.5 1.128 22.744 3.046 25.378L1.052 31.322L7.202 29.356C9.732 31.032 12.75 32 16.004 32C24.826 32 32 24.822 32 16C32 7.178 24.826 0 16.004 0Z" fill="#4CAF50"/>
<path d="M25.3141 22.594C24.9281 23.684 23.3961 24.588 22.1741 24.852C21.3381 25.03 20.2461 25.172 16.5701 23.648C11.8681 21.7 8.8401 16.922 8.6041 16.612C8.3781 16.302 6.7041 14.082 6.7041 11.786C6.7041 9.48999 7.8701 8.37199 8.3401 7.89199C8.7261 7.49799 9.3641 7.31799 9.9761 7.31799C10.1741 7.31799 10.3521 7.32799 10.5121 7.33599C10.9821 7.35599 11.2181 7.38399 11.5281 8.12599C11.9141 9.05599 12.8541 11.352 12.9661 11.588C13.0801 11.824 13.1941 12.144 13.0341 12.454C12.8841 12.774 12.7521 12.916 12.5161 13.188C12.2801 13.46 12.0561 13.668 11.8201 13.96C11.6041 14.214 11.3601 14.486 11.6321 14.956C11.9041 15.416 12.8441 16.95 14.2281 18.182C16.0141 19.772 17.4621 20.28 17.9801 20.496C18.3661 20.656 18.8261 20.618 19.1081 20.318C19.4661 19.932 19.9081 19.292 20.3581 18.662C20.6781 18.21 21.0821 18.154 21.5061 18.314C21.9381 18.464 24.2241 19.594 24.6941 19.828C25.1641 20.064 25.4741 20.176 25.5881 20.374C25.7001 20.572 25.7001 21.502 25.3141 22.594Z" fill="#FAFAFA"/>
</svg>
