<svg width="37" height="36" viewBox="0 0 37 36" fill="none" xmlns="http://www.w3.org/2000/svg">
<rect width="36.0474" height="36" rx="18" fill="#47AF53"/>
<path d="M18.0141 9H18.0096C13.0407 9 9 13.0365 9 18C9 19.9688 9.63534 21.7935 10.7156 23.2751L9.59253 26.6186L13.0565 25.5128C14.4815 26.4555 16.1813 27 18.0141 27C22.983 27 27.0237 22.9624 27.0237 18C27.0237 13.0376 22.983 9 18.0141 9Z" fill="white"/>
<path d="M23.2553 21.709C23.0379 22.3221 22.175 22.8306 21.4868 22.9791C21.0159 23.0792 20.4008 23.1591 18.3304 22.3018C15.682 21.2061 13.9765 18.5185 13.8436 18.3441C13.7163 18.1697 12.7734 16.921 12.7734 15.6295C12.7734 14.338 13.4302 13.7091 13.6949 13.4391C13.9123 13.2175 14.2717 13.1162 14.6164 13.1162C14.7279 13.1162 14.8281 13.1218 14.9183 13.1263C15.183 13.1376 15.3159 13.1533 15.4905 13.5707C15.7079 14.0938 16.2374 15.3853 16.3004 15.5181C16.3647 15.6508 16.4289 15.8308 16.3388 16.0052C16.2543 16.1852 16.1799 16.2651 16.047 16.4181C15.9141 16.5711 15.7879 16.6881 15.655 16.8523C15.5333 16.9952 15.3959 17.1482 15.5491 17.4126C15.7023 17.6713 16.2317 18.5342 17.0113 19.2272C18.0172 20.1216 18.8328 20.4073 19.1245 20.5288C19.3419 20.6188 19.601 20.5975 19.7599 20.4287C19.9615 20.2116 20.2105 19.8516 20.4639 19.4972C20.6442 19.243 20.8717 19.2115 21.1105 19.3015C21.3538 19.3858 22.6414 20.0215 22.9061 20.1531C23.1709 20.2858 23.3455 20.3488 23.4097 20.4602C23.4728 20.5716 23.4728 21.0947 23.2553 21.709Z" fill="#47AF53"/>
</svg>
