<svg width="24" height="24" viewBox="0 0 24 24" fill="none" xmlns="http://www.w3.org/2000/svg">
<path d="M9.00083 12L11.0008 14L15.0008 9.99997M7.83583 4.69697C8.55313 4.63972 9.23411 4.35767 9.78183 3.89097C10.4007 3.36324 11.1875 3.07336 12.0008 3.07336C12.8142 3.07336 13.6009 3.36324 14.2198 3.89097C14.7675 4.35767 15.4485 4.63972 16.1658 4.69697C16.9766 4.76147 17.7378 5.1128 18.3129 5.6879C18.888 6.263 19.2393 7.02422 19.3038 7.83497C19.3611 8.55228 19.6431 9.23325 20.1098 9.78097C20.6376 10.3999 20.9274 11.1866 20.9274 12C20.9274 12.8133 20.6376 13.6001 20.1098 14.219C19.6431 14.7667 19.3611 15.4477 19.3038 16.165C19.2393 16.9757 18.888 17.737 18.3129 18.312C17.7378 18.8871 16.9766 19.2385 16.1658 19.303C15.4485 19.3602 14.7675 19.6423 14.2198 20.109C13.6009 20.6367 12.8142 20.9266 12.0008 20.9266C11.1875 20.9266 10.4007 20.6367 9.78183 20.109C9.23411 19.6423 8.55313 19.3602 7.83583 19.303C7.02508 19.2385 6.26385 18.8871 5.68875 18.312C5.11365 17.737 4.76233 16.9757 4.69783 16.165C4.64058 15.4477 4.35853 14.7667 3.89183 14.219C3.3641 13.6001 3.07422 12.8133 3.07422 12C3.07422 11.1866 3.3641 10.3999 3.89183 9.78097C4.35853 9.23325 4.64058 8.55228 4.69783 7.83497C4.76233 7.02422 5.11365 6.263 5.68875 5.6879C6.26385 5.1128 7.02508 4.76147 7.83583 4.69697Z" stroke="#4061F8" stroke-width="2" stroke-linecap="round" stroke-linejoin="round"/>
</svg>
