<svg width="30" height="30" viewBox="0 0 30 30" fill="none" xmlns="http://www.w3.org/2000/svg">
<circle cx="15" cy="15" r="15" fill="#4061F8"/>
<path d="M22.3205 7H16.866C16.4895 7 16.1842 7.30527 16.1842 7.68182C16.1842 8.05837 16.4895 8.36364 16.866 8.36364H20.6745L13.6567 15.3814C13.3905 15.6477 13.3905 16.0794 13.6567 16.3457C13.7898 16.4788 13.9643 16.5453 14.1388 16.5453C14.3133 16.5453 14.4878 16.4788 14.6208 16.3456L21.6387 9.32784V13.1363C21.6387 13.5129 21.944 13.8181 22.3205 13.8181C22.6971 13.8181 23.0023 13.5129 23.0023 13.1363V7.68182C23.0023 7.30527 22.697 7 22.3205 7Z" fill="white"/>
<path d="M19.5908 13.8175C19.2142 13.8175 18.9089 14.1228 18.9089 14.4993V20.6356H9.36361V11.0903H15.4999C15.8765 11.0903 16.1817 10.785 16.1817 10.4084C16.1817 10.0319 15.8765 9.72665 15.4999 9.72665H8.68182C8.30527 9.72665 8 10.0319 8 10.4085V21.3174C8 21.694 8.30527 21.9992 8.68182 21.9992H19.5908C19.9673 21.9992 20.2726 21.694 20.2726 21.3174V14.4993C20.2726 14.1228 19.9673 13.8175 19.5908 13.8175Z" fill="white"/>
</svg>
