<svg width="150" height="45" viewBox="0 0 150 45" fill="none" xmlns="http://www.w3.org/2000/svg">
<g clip-path="url(#clip0)">
<path fill-rule="evenodd" clip-rule="evenodd" d="M144.442 44.2621H5.5576C2.49457 44.2621 0 41.7676 0 38.7294V5.53277C0 2.48354 2.49457 0 5.5576 0H144.442C147.503 0 150 2.48354 150 5.53277V38.7294C150 41.7676 147.503 44.2621 144.442 44.2621Z" fill="black"/>
<path fill-rule="evenodd" clip-rule="evenodd" d="M144.442 0.885794C147.011 0.885794 149.114 2.97472 149.114 5.53277V38.7294C149.114 41.2874 147.025 43.3763 144.442 43.3763H5.5576C2.98852 43.3763 0.885794 41.2874 0.885794 38.7294V5.53277C0.885794 2.97472 2.97472 0.885794 5.5576 0.885794H144.442ZM144.442 0H5.5576C2.49457 0 0 2.49457 0 5.53277V38.7294C0 41.7786 2.49457 44.2621 5.5576 44.2621H144.442C147.503 44.2621 150 41.7786 150 38.7294V5.53277C150 2.49457 147.503 0 144.442 0Z" fill="#A6A6A6"/>
<path d="M79.0199 14.642C78.0182 14.642 77.1738 14.2916 76.506 13.6017C75.8437 12.9312 75.4739 12.0067 75.4905 11.063C75.4905 10.0558 75.8326 9.20309 76.506 8.52702C77.171 7.83715 78.0154 7.48669 79.0171 7.48669C80.0077 7.48669 80.8521 7.83715 81.531 8.52702C82.2043 9.22517 82.5465 10.0779 82.5465 11.063C82.5354 12.073 82.1933 12.9256 81.531 13.599C80.8659 14.2943 80.0215 14.642 79.0199 14.642ZM49.2147 14.642C48.235 14.642 47.3851 14.2971 46.6897 13.6155C45.9999 12.9367 45.6494 12.0785 45.6494 11.0657C45.6494 10.053 45.9999 9.19482 46.6897 8.51598C47.3713 7.83439 48.2213 7.48945 49.2147 7.48945C49.7003 7.48945 50.1722 7.58604 50.6248 7.78196C51.069 7.97236 51.4305 8.23176 51.6982 8.5491L51.7644 8.62912L51.0166 9.36314L50.9393 9.27208C50.5171 8.76985 49.9514 8.52426 49.2036 8.52426C48.5358 8.52426 47.9536 8.76158 47.4734 9.23069C46.9905 9.70256 46.7449 10.3207 46.7449 11.0685C46.7449 11.8163 46.9905 12.4345 47.4734 12.9063C47.9536 13.3754 48.5358 13.6127 49.2036 13.6127C49.9156 13.6127 50.5144 13.3754 50.9807 12.9063C51.2567 12.6304 51.4278 12.244 51.4885 11.7556H49.0905V10.7236H52.5178L52.5316 10.8174C52.5564 10.9912 52.5812 11.1706 52.5812 11.3362C52.5812 12.2882 52.2942 13.0581 51.7258 13.6265C51.0801 14.2999 50.2357 14.642 49.2147 14.642ZM88.8436 14.4958H87.7867L84.5499 9.31623L84.5774 10.2489V14.493H83.5206V7.63571H84.7265L84.7596 7.68814L87.8033 12.5669L87.7757 11.637V7.63571H88.8436V14.4958ZM71.0781 14.4958H70.0074V8.66775H68.1502V7.63571H72.9324V8.66775H71.0753V14.4958H71.0781ZM67.2782 14.4958H66.2103V7.63571H67.2782V14.4958ZM61.2764 14.4958H60.2084V8.66775H58.3513V7.63571H63.1335V8.66775H61.2764V14.4958ZM57.6752 14.4847H53.5802V7.63571H57.6752V8.66775H54.6508V10.5497H57.38V11.5707H54.6508V13.4527H57.6752V14.4847ZM77.2896 12.8925C77.767 13.3699 78.3465 13.61 79.0199 13.61C79.7125 13.61 80.2782 13.3754 80.75 12.8925C81.2192 12.4234 81.4565 11.808 81.4565 11.0657C81.4565 10.3234 81.2192 9.70532 80.7528 9.23897C80.2754 8.76158 79.6932 8.5215 79.0226 8.5215C78.33 8.5215 77.7643 8.75606 77.2952 9.23897C76.8261 9.70808 76.5887 10.3234 76.5887 11.0657C76.5887 11.808 76.8233 12.4262 77.2896 12.8925Z" fill="white"/>
<path fill-rule="evenodd" clip-rule="evenodd" d="M75.393 24.0738C72.7852 24.0738 70.6715 26.0523 70.6715 28.7814C70.6715 31.4857 72.799 33.4891 75.393 33.4891C78.0007 33.4891 80.1144 31.4968 80.1144 28.7814C80.1144 26.0523 78.0007 24.0738 75.393 24.0738ZM75.393 31.6237C73.9663 31.6237 72.7383 30.4426 72.7383 28.7704C72.7383 27.0733 73.9691 25.9171 75.393 25.9171C76.8196 25.9171 78.0476 27.0733 78.0476 28.7704C78.0504 30.4537 76.8196 31.6237 75.393 31.6237ZM65.0918 24.0738C62.484 24.0738 60.3703 26.0523 60.3703 28.7814C60.3703 31.4857 62.4978 33.4891 65.0918 33.4891C67.6995 33.4891 69.8133 31.4968 69.8133 28.7814C69.8133 26.0523 67.6967 24.0738 65.0918 24.0738ZM65.0918 31.6237C63.6651 31.6237 62.4371 30.4426 62.4371 28.7704C62.4371 27.0733 63.6679 25.9171 65.0918 25.9171C66.5184 25.9171 67.7464 27.0733 67.7464 28.7704C67.7464 30.4537 66.5184 31.6237 65.0918 31.6237ZM52.8341 25.5114V27.5038H57.6163C57.47 28.6214 57.1003 29.4465 56.5346 30.0122C55.8337 30.7131 54.7519 31.4747 52.8451 31.4747C49.9063 31.4747 47.6076 29.1015 47.6076 26.1627C47.6076 23.2238 49.9063 20.8507 52.8451 20.8507C54.4318 20.8507 55.5881 21.4771 56.4463 22.2773L57.8591 20.8645C56.667 19.722 55.0803 18.8473 52.8562 18.8473C48.8245 18.8473 45.4414 22.1311 45.4414 26.1516C45.4414 30.1833 48.8218 33.456 52.8562 33.456C55.0334 33.456 56.667 32.7441 57.9585 31.4029C59.2748 30.0867 59.6914 28.2295 59.6914 26.7311C59.6914 26.2648 59.6556 25.8453 59.5811 25.4894H52.8313C52.8341 25.4866 52.8341 25.5114 52.8341 25.5114ZM102.971 27.0623C102.577 26.0054 101.385 24.0627 98.9397 24.0627C96.5169 24.0627 94.5025 25.9695 94.5025 28.7704C94.5025 31.414 96.4948 33.4781 99.1743 33.4781C101.327 33.4781 102.579 32.1618 103.096 31.3891L101.498 30.3185C100.968 31.1049 100.231 31.6209 99.1853 31.6209C98.1284 31.6209 97.3889 31.1408 96.8977 30.1943L103.192 27.5866C103.192 27.5893 102.971 27.0623 102.971 27.0623ZM96.5528 28.6352C96.5031 26.8167 97.9656 25.8923 99.0115 25.8923C99.8366 25.8923 100.524 26.2979 100.758 26.8884L96.5528 28.6352ZM91.4394 33.1966H93.5063V19.3661H91.4394V33.1966ZM88.0452 25.1196H87.9707C87.5044 24.5649 86.6186 24.0627 85.4872 24.0627C83.1389 24.0627 80.9754 26.1296 80.9754 28.7842C80.9754 31.4278 83.1278 33.4698 85.4872 33.4698C86.6048 33.4698 87.5044 32.9648 87.9707 32.3991H88.0452V33.0752C88.0452 34.8716 87.0849 35.8402 85.5369 35.8402C84.2702 35.8402 83.4838 34.9296 83.1637 34.1679L81.3673 34.9185C81.8833 36.1603 83.2603 37.6973 85.5341 37.6973C87.9569 37.6973 90.01 36.2707 90.01 32.791V24.3442H88.0563V25.1196C88.059 25.1196 88.0452 25.1196 88.0452 25.1196ZM85.6721 31.6237C84.2454 31.6237 83.0533 30.4316 83.0533 28.7842C83.0533 27.123 84.2454 25.9198 85.6721 25.9198C87.0849 25.9198 88.1805 27.1368 88.1805 28.7842C88.1942 30.4316 87.0877 31.6237 85.6721 31.6237ZM112.649 19.3661H107.707V33.1966H109.773V27.9591H112.652C114.939 27.9591 117.188 26.3007 117.188 23.6681C117.188 21.0356 114.948 19.3661 112.649 19.3661ZM112.71 26.0275H109.771V21.2812H112.71C114.258 21.2812 115.132 22.5588 115.132 23.6543C115.132 24.7388 114.247 26.0275 112.71 26.0275ZM125.472 24.0489C123.971 24.0489 122.423 24.714 121.783 26.1627L123.615 26.9243C124.01 26.1627 124.733 25.9033 125.497 25.9033C126.568 25.9033 127.649 26.5435 127.674 27.6859V27.8322C127.305 27.6225 126.493 27.3024 125.522 27.3024C123.543 27.3024 121.537 28.3841 121.537 30.4123C121.537 32.2694 123.16 33.4615 124.967 33.4615C126.355 33.4615 127.12 32.8351 127.597 32.1094H127.672V33.1801H129.664V27.8818C129.664 25.4149 127.832 24.0489 125.472 24.0489ZM125.213 31.6237C124.537 31.6237 123.59 31.2926 123.59 30.4426C123.59 29.372 124.771 28.9663 125.779 28.9663C126.689 28.9663 127.12 29.1622 127.661 29.4327C127.512 30.6744 126.463 31.6127 125.213 31.6237ZM136.932 24.3442L134.559 30.3433H134.485L132.026 24.3442H129.802L133.491 32.7303L131.389 37.391H133.541L139.217 24.3442H136.932ZM118.328 33.1966H120.395V19.3661H118.328V33.1966Z" fill="white"/>
<path fill-rule="evenodd" clip-rule="evenodd" d="M11.5465 8.33647C11.2264 8.6814 11.0415 9.20847 11.0415 9.89834V34.3667C11.0415 35.0565 11.2264 35.5836 11.5575 35.9147L11.6431 35.9893L25.3522 22.2801V21.9738L11.632 8.26196L11.5465 8.33647Z" fill="url(#paint0_linear)"/>
<path fill-rule="evenodd" clip-rule="evenodd" d="M29.9119 26.8636L25.3394 22.2911V21.971L29.9119 17.3986L30.0112 17.4593L35.4198 20.5333C36.9679 21.4053 36.9679 22.8458 35.4198 23.7288L30.0112 26.8029L29.9119 26.8636Z" fill="url(#paint1_linear)"/>
<path fill-rule="evenodd" clip-rule="evenodd" d="M30.0118 26.8029L25.34 22.1311L11.5454 35.9258C12.0504 36.4666 12.8976 36.5273 13.8441 36.0003L30.0118 26.8029Z" fill="url(#paint2_linear)"/>
<path fill-rule="evenodd" clip-rule="evenodd" d="M30.0118 17.4593L13.8441 8.2757C12.8976 7.73485 12.0476 7.80935 11.5454 8.35021L25.34 22.1311L30.0118 17.4593Z" fill="url(#paint3_linear)"/>
<path opacity="0.2" fill-rule="evenodd" clip-rule="evenodd" d="M29.9119 26.7032L13.8543 35.8261C12.9575 36.3422 12.1572 36.3063 11.6412 35.8372L11.5557 35.9227L11.6412 35.9972C12.1572 36.4636 12.9575 36.5022 13.8543 35.9862L30.0223 26.8026L29.9119 26.7032Z" fill="black"/>
<path opacity="0.12" fill-rule="evenodd" clip-rule="evenodd" d="M35.4207 23.5688L29.8989 26.7036L29.9983 26.8029L35.4069 23.7288C36.1823 23.2873 36.5631 22.7078 36.5631 22.1311C36.5162 22.6609 36.1216 23.1632 35.4207 23.5688Z" fill="black"/>
<path opacity="0.25" fill-rule="evenodd" clip-rule="evenodd" d="M13.8451 8.43594L35.4215 20.6936C36.1224 21.0882 36.5171 21.6042 36.5778 22.1313C36.5778 21.5545 36.197 20.975 35.4215 20.5335L13.8451 8.27589C12.2971 7.39009 11.0415 8.12963 11.0415 9.89846V10.0585C11.0415 8.28692 12.2971 7.56118 13.8451 8.43594Z" fill="white"/>
</g>
<defs>
<linearGradient id="paint0_linear" x1="24.1225" y1="9.63435" x2="2.16287" y2="15.4855" gradientUnits="userSpaceOnUse">
<stop stop-color="#00A0FF"/>
<stop offset="0.00657" stop-color="#00A1FF"/>
<stop offset="0.2601" stop-color="#00BEFF"/>
<stop offset="0.5122" stop-color="#00D2FF"/>
<stop offset="0.7604" stop-color="#00DFFF"/>
<stop offset="1" stop-color="#00E3FF"/>
</linearGradient>
<linearGradient id="paint1_linear" x1="37.4387" y1="22.1311" x2="10.6633" y2="22.1311" gradientUnits="userSpaceOnUse">
<stop stop-color="#FFE000"/>
<stop offset="0.4087" stop-color="#FFBD00"/>
<stop offset="0.7754" stop-color="#FFA500"/>
<stop offset="1" stop-color="#FF9C00"/>
</linearGradient>
<linearGradient id="paint2_linear" x1="27.4715" y1="24.6732" x2="9.84237" y2="54.3444" gradientUnits="userSpaceOnUse">
<stop stop-color="#FF3A44"/>
<stop offset="1" stop-color="#C31162"/>
</linearGradient>
<linearGradient id="paint3_linear" x1="8.07177" y1="0.197856" x2="15.9368" y2="13.4495" gradientUnits="userSpaceOnUse">
<stop stop-color="#32A071"/>
<stop offset="0.0685" stop-color="#2DA771"/>
<stop offset="0.4762" stop-color="#15CF74"/>
<stop offset="0.8009" stop-color="#06E775"/>
<stop offset="1" stop-color="#00F076"/>
</linearGradient>
<clipPath id="clip0">
<rect width="150" height="44.2621" fill="white"/>
</clipPath>
</defs>
</svg>
