<?xml version="1.0" encoding="utf-8"?>
<!-- Generator: Adobe Illustrator 24.0.3, SVG Export Plug-In . SVG Version: 6.00 Build 0)  -->
<svg version="1.1" id="Слой_1" xmlns="http://www.w3.org/2000/svg" xmlns:xlink="http://www.w3.org/1999/xlink" x="0px" y="0px"
	 viewBox="0 0 87.9 65" style="enable-background:new 0 0 87.9 65;" xml:space="preserve">
<style type="text/css">
	.st0{fill:url(#SVGID_1_);}
	.st1{fill:url(#SVGID_2_);}
	.st2{fill:url(#SVGID_3_);}
	.st3{fill:url(#SVGID_4_);}
	.st4{fill:url(#SVGID_5_);}
	.st5{fill:url(#SVGID_6_);}
	.st6{fill:url(#SVGID_7_);}
	.st7{fill:url(#SVGID_8_);}
	.st8{fill:url(#SVGID_9_);}
	.st9{fill:url(#SVGID_10_);}
	.st10{fill:url(#SVGID_11_);}
	.st11{fill:url(#SVGID_12_);}
</style>
<linearGradient id="SVGID_1_" gradientUnits="userSpaceOnUse" x1="-0.3639" y1="1009.4047" x2="62.2844" y2="1079.2599" gradientTransform="matrix(1 0 0 1 0 -1014)">
	<stop  offset="0" style="stop-color:#7ECAA6"/>
	<stop  offset="0.294" style="stop-color:#61BDD1"/>
	<stop  offset="0.6063" style="stop-color:#CF6DDD"/>
	<stop  offset="1" style="stop-color:#4061F8"/>
</linearGradient>
<path class="st0" d="M39.3,2H26.5C20.4,2,16,2,12.7,2.4C9.4,2.9,7.4,3.7,6,5.2S3.7,8.7,3.2,12c-0.4,3.4-0.5,7.8-0.5,14v13
	c0,6.2,0,10.6,0.5,14c0.4,3.3,1.3,5.3,2.7,6.8c1.5,1.5,3.4,2.3,6.7,2.8C16,63,20.4,63,26.5,63h12.8c6.1,0,10.5,0,13.8-0.5
	c3.3-0.4,5.3-1.3,6.7-2.8c1.4-1.4,2.2-3.2,2.7-6.2h1.9C64,57,63,59.4,61.2,61.2C57.5,65,51.4,65,39.3,65H26.5
	c-12.1,0-18.1,0-21.9-3.8C0.9,57.4,0.9,51.3,0.9,39V26c0-12.3,0-18.4,3.8-22.2S14.4,0,26.5,0h12.8c12.1,0,18.1,0,21.9,3.8
	C65,7.6,65,13.7,65,26v4.9h-1.9V26c0-6.2,0-10.6-0.5-14c-0.4-3.3-1.3-5.3-2.7-6.8s-3.4-2.3-6.7-2.8C49.8,2,45.4,2,39.3,2z"/>
<linearGradient id="SVGID_2_" gradientUnits="userSpaceOnUse" x1="-5.4912" y1="1014.0029" x2="57.1571" y2="1083.858" gradientTransform="matrix(1 0 0 1 0 -1014)">
	<stop  offset="0" style="stop-color:#7ECAA6"/>
	<stop  offset="0.294" style="stop-color:#61BDD1"/>
	<stop  offset="0.6063" style="stop-color:#CF6DDD"/>
	<stop  offset="1" style="stop-color:#4061F8"/>
</linearGradient>
<path class="st1" d="M19.6,25.4h-2.2l-0.5-1.5h-3.8l-0.6,1.5h-2.2l3.5-9h2.4L19.6,25.4z M16.4,22.2L15,18.4l-1.4,3.9L16.4,22.2
	L16.4,22.2z"/>
<linearGradient id="SVGID_3_" gradientUnits="userSpaceOnUse" x1="2.3755" y1="1006.9478" x2="65.0238" y2="1076.803" gradientTransform="matrix(1 0 0 1 0 -1014)">
	<stop  offset="0" style="stop-color:#7ECAA6"/>
	<stop  offset="0.294" style="stop-color:#61BDD1"/>
	<stop  offset="0.6063" style="stop-color:#CF6DDD"/>
	<stop  offset="1" style="stop-color:#4061F8"/>
</linearGradient>
<path class="st2" d="M26.5,25.4h-1.9v-9h4.2c0.9,0,1.7,0.3,2.2,0.8s0.8,1.2,0.8,2.1c0,0.8-0.3,1.5-0.8,2.1s-1.3,0.8-2.2,0.8h-2.3
	V25.4z M28.6,20.6c0.4,0,0.7-0.1,0.9-0.3c0.3-0.2,0.4-0.5,0.4-0.9s-0.1-0.7-0.4-0.9c-0.2-0.2-0.6-0.3-0.9-0.3h-2v2.4
	C26.6,20.6,28.6,20.6,28.6,20.6z"/>
<linearGradient id="SVGID_4_" gradientUnits="userSpaceOnUse" x1="9.3034" y1="1000.7347" x2="71.9517" y2="1070.5898" gradientTransform="matrix(1 0 0 1 0 -1014)">
	<stop  offset="0" style="stop-color:#7ECAA6"/>
	<stop  offset="0.294" style="stop-color:#61BDD1"/>
	<stop  offset="0.6063" style="stop-color:#CF6DDD"/>
	<stop  offset="1" style="stop-color:#4061F8"/>
</linearGradient>
<path class="st3" d="M39,25.4h-1.9v-9h4.2c0.9,0,1.7,0.3,2.2,0.8s0.8,1.2,0.8,2.1c0,0.8-0.3,1.5-0.8,2.1s-1.3,0.8-2.2,0.8H39V25.4z
	 M41.1,20.6c0.4,0,0.7-0.1,0.9-0.3c0.3-0.2,0.4-0.5,0.4-0.9s-0.1-0.7-0.4-0.9c-0.2-0.2-0.6-0.3-0.9-0.3h-2v2.4
	C39.1,20.6,41.1,20.6,41.1,20.6z"/>
<linearGradient id="SVGID_5_" gradientUnits="userSpaceOnUse" x1="16.2623" y1="994.4937" x2="78.9106" y2="1064.3489" gradientTransform="matrix(1 0 0 1 0 -1014)">
	<stop  offset="0" style="stop-color:#7ECAA6"/>
	<stop  offset="0.294" style="stop-color:#61BDD1"/>
	<stop  offset="0.6063" style="stop-color:#CF6DDD"/>
	<stop  offset="1" style="stop-color:#4061F8"/>
</linearGradient>
<path class="st4" d="M52.8,25.6c-1.6,0-2.8-0.5-3.8-1.4l1-1.5c0.8,0.8,1.7,1.2,2.8,1.2c0.5,0,0.9-0.1,1.1-0.3
	c0.3-0.2,0.4-0.4,0.4-0.7c0-0.2-0.1-0.4-0.4-0.6c-0.3-0.2-0.6-0.3-1-0.3c-0.4-0.1-0.8-0.2-1.2-0.3c-0.4-0.1-0.9-0.3-1.2-0.5
	c-0.4-0.2-0.7-0.4-1-0.8s-0.4-0.8-0.4-1.3c0-0.8,0.3-1.4,0.9-1.9c0.6-0.5,1.4-0.8,2.5-0.8c1.4,0,2.6,0.4,3.5,1.2L55.2,19
	c-0.7-0.7-1.6-1-2.6-1c-0.4,0-0.7,0.1-0.9,0.2c-0.2,0.2-0.3,0.4-0.3,0.7c0,0.2,0.1,0.4,0.4,0.6c0.3,0.1,0.6,0.3,1,0.3
	c0.4,0.1,0.8,0.2,1.2,0.3c0.4,0.1,0.9,0.3,1.2,0.5c0.4,0.2,0.7,0.4,1,0.8s0.4,0.8,0.4,1.3c0,0.9-0.3,1.6-0.9,2.1
	C54.9,25.3,54,25.6,52.8,25.6z"/>
<linearGradient id="SVGID_6_" gradientUnits="userSpaceOnUse" x1="-15.5021" y1="1022.981" x2="47.1462" y2="1092.8363" gradientTransform="matrix(1 0 0 1 0 -1014)">
	<stop  offset="0" style="stop-color:#7ECAA6"/>
	<stop  offset="0.294" style="stop-color:#61BDD1"/>
	<stop  offset="0.6063" style="stop-color:#CF6DDD"/>
	<stop  offset="1" style="stop-color:#4061F8"/>
</linearGradient>
<path class="st5" d="M14.5,46.8c-1.6,0-2.8-0.5-3.8-1.4l1-1.5c0.8,0.8,1.7,1.2,2.8,1.2c0.5,0,0.9-0.1,1.1-0.3
	c0.3-0.2,0.4-0.4,0.4-0.7c0-0.2-0.1-0.4-0.4-0.6c-0.3-0.2-0.6-0.3-1-0.3c-0.4-0.1-0.8-0.2-1.2-0.3s-0.9-0.3-1.2-0.5
	c-0.4-0.2-0.7-0.4-1-0.8c-0.3-0.4-0.4-0.8-0.4-1.3c0-0.8,0.3-1.4,0.9-1.9c0.6-0.5,1.4-0.8,2.5-0.8c1.4,0,2.6,0.4,3.5,1.2l-1.1,1.4
	c-0.7-0.7-1.6-1-2.6-1c-0.4,0-0.7,0.1-0.9,0.2s-0.3,0.4-0.3,0.7c0,0.2,0.1,0.4,0.4,0.6c0.3,0.1,0.6,0.3,1,0.3
	c0.4,0.1,0.8,0.2,1.2,0.3s0.9,0.3,1.2,0.5c0.4,0.2,0.7,0.4,1,0.8c0.3,0.4,0.4,0.8,0.4,1.3c0,0.9-0.3,1.6-0.9,2.1
	C16.5,46.6,15.6,46.8,14.5,46.8z"/>
<linearGradient id="SVGID_7_" gradientUnits="userSpaceOnUse" x1="-8.0974" y1="1016.3403" x2="54.5509" y2="1086.1954" gradientTransform="matrix(1 0 0 1 0 -1014)">
	<stop  offset="0" style="stop-color:#7ECAA6"/>
	<stop  offset="0.294" style="stop-color:#61BDD1"/>
	<stop  offset="0.6063" style="stop-color:#CF6DDD"/>
	<stop  offset="1" style="stop-color:#4061F8"/>
</linearGradient>
<path class="st6" d="M27.3,46.7h-1.9v-7.3h-2.6v-1.7h7.1v1.7h-2.6V46.7z"/>
<linearGradient id="SVGID_8_" gradientUnits="userSpaceOnUse" x1="-1.1695" y1="1010.1271" x2="61.4788" y2="1079.9823" gradientTransform="matrix(1 0 0 1 0 -1014)">
	<stop  offset="0" style="stop-color:#7ECAA6"/>
	<stop  offset="0.294" style="stop-color:#61BDD1"/>
	<stop  offset="0.6063" style="stop-color:#CF6DDD"/>
	<stop  offset="1" style="stop-color:#4061F8"/>
</linearGradient>
<path class="st7" d="M42.3,45.8c-0.7,0.7-1.7,1-3,1s-2.3-0.3-3-1s-1-1.6-1-2.7v-5.4h1.9V43c0,0.6,0.2,1.2,0.5,1.5
	c0.4,0.4,0.9,0.6,1.6,0.6c0.7,0,1.2-0.2,1.5-0.6c0.4-0.4,0.5-0.9,0.5-1.5v-5.3h1.9v5.4C43.3,44.2,43,45.1,42.3,45.8z"/>
<linearGradient id="SVGID_9_" gradientUnits="userSpaceOnUse" x1="5.5246" y1="1004.1237" x2="68.1729" y2="1073.9789" gradientTransform="matrix(1 0 0 1 0 -1014)">
	<stop  offset="0" style="stop-color:#7ECAA6"/>
	<stop  offset="0.294" style="stop-color:#61BDD1"/>
	<stop  offset="0.6063" style="stop-color:#CF6DDD"/>
	<stop  offset="1" style="stop-color:#4061F8"/>
</linearGradient>
<path class="st8" d="M52.8,46.7h-3.5v-9h3.5c1.4,0,2.5,0.4,3.4,1.2s1.3,1.9,1.3,3.3c0,1.3-0.4,2.4-1.3,3.3
	C55.3,46.3,54.2,46.7,52.8,46.7z M52.8,45c0.9,0,1.5-0.3,2-0.8s0.8-1.2,0.8-2s-0.2-1.5-0.7-2s-1.2-0.8-2.1-0.8h-1.6V45H52.8z"/>
<linearGradient id="SVGID_10_" gradientUnits="userSpaceOnUse" x1="12.0211" y1="998.2974" x2="74.6694" y2="1068.1526" gradientTransform="matrix(1 0 0 1 0 -1014)">
	<stop  offset="0" style="stop-color:#7ECAA6"/>
	<stop  offset="0.294" style="stop-color:#61BDD1"/>
	<stop  offset="0.6063" style="stop-color:#CF6DDD"/>
	<stop  offset="1" style="stop-color:#4061F8"/>
</linearGradient>
<path class="st9" d="M64.9,46.7H63v-9h1.9V46.7z"/>
<linearGradient id="SVGID_11_" gradientUnits="userSpaceOnUse" x1="18.2008" y1="992.7553" x2="80.8491" y2="1062.6105" gradientTransform="matrix(1 0 0 1 0 -1014)">
	<stop  offset="0" style="stop-color:#7ECAA6"/>
	<stop  offset="0.294" style="stop-color:#61BDD1"/>
	<stop  offset="0.6063" style="stop-color:#CF6DDD"/>
	<stop  offset="1" style="stop-color:#4061F8"/>
</linearGradient>
<path class="st10" d="M75.1,46.8c-1.3,0-2.5-0.4-3.3-1.3c-0.9-0.9-1.3-2-1.3-3.3s0.4-2.5,1.3-3.3c0.9-0.9,2-1.3,3.3-1.3
	c1.4,0,2.5,0.4,3.3,1.3c0.9,0.9,1.3,2,1.3,3.3c0,1.4-0.4,2.5-1.3,3.3C77.6,46.4,76.5,46.8,75.1,46.8z M73.1,44.3
	c0.5,0.6,1.2,0.8,2,0.8s1.5-0.3,2-0.8c0.5-0.6,0.8-1.3,0.8-2.1s-0.3-1.6-0.8-2.1c-0.5-0.6-1.2-0.8-2-0.8s-1.5,0.3-2,0.8
	c-0.5,0.6-0.7,1.3-0.7,2.1S72.6,43.7,73.1,44.3z"/>
<linearGradient id="SVGID_12_" gradientUnits="userSpaceOnUse" x1="22.3359" y1="989.0467" x2="84.9842" y2="1058.9019" gradientTransform="matrix(1 0 0 1 0 -1014)">
	<stop  offset="0" style="stop-color:#7ECAA6"/>
	<stop  offset="0.294" style="stop-color:#61BDD1"/>
	<stop  offset="0.6063" style="stop-color:#CF6DDD"/>
	<stop  offset="1" style="stop-color:#4061F8"/>
</linearGradient>
<path class="st11" d="M86.5,46.5c-0.2,0.2-0.5,0.3-0.8,0.3s-0.5-0.1-0.8-0.3c-0.2-0.2-0.3-0.5-0.3-0.8s0.1-0.6,0.3-0.8
	c0.2-0.2,0.5-0.3,0.8-0.3s0.5,0.1,0.8,0.3c0.2,0.2,0.3,0.5,0.3,0.8S86.7,46.3,86.5,46.5z"/>
</svg>
