<svg width="36" height="36" viewBox="0 0 36 36" fill="none" xmlns="http://www.w3.org/2000/svg">
<rect width="36" height="36" rx="18" fill="#4177F8"/>
<path d="M16.4045 17.7715C16.8284 17.5583 17.1489 17.3208 17.3685 17.0641C17.7592 16.6019 17.9521 15.989 17.9521 15.2292C17.9521 14.4899 17.7592 13.8579 17.3736 13.328C16.7301 12.4648 15.6409 12.023 14.101 12H8V24.4535H13.6885C14.3295 24.4535 14.9233 24.3986 15.4723 24.2862C16.0214 24.1726 16.4964 23.9644 16.8986 23.6605C17.2562 23.3962 17.5549 23.0681 17.7924 22.6812C18.1679 22.0963 18.3556 21.4336 18.3556 20.6956C18.3556 19.9805 18.1908 19.3715 17.864 18.8709C17.5332 18.3704 17.048 18.0039 16.4045 17.7715ZM10.5167 14.163H13.2646C13.8686 14.163 14.3666 14.2282 14.7573 14.3571C15.2093 14.5448 15.4353 14.9266 15.4353 15.5089C15.4353 16.0311 15.2629 16.3963 14.922 16.6019C14.5785 16.8075 14.1329 16.9109 13.5864 16.9109H10.5167V14.163ZM14.862 22.0734C14.5581 22.2202 14.1303 22.293 13.5826 22.293H10.5167V18.9718H13.6247C14.1661 18.9756 14.5875 19.0471 14.8888 19.1812C15.4251 19.4238 15.692 19.8682 15.692 20.5181C15.692 21.2842 15.4162 21.8001 14.862 22.0734Z" fill="white"/>
<path d="M26.4649 12.5811H21.0547V14.1312H26.4649V12.5811Z" fill="white"/>
<path d="M28.345 18.6989C28.2326 17.9774 27.9849 17.3428 27.5993 16.795C27.1766 16.1744 26.6403 15.7199 25.9878 15.4326C25.3379 15.144 24.6062 14.9997 23.7916 15.001C22.424 15.001 21.3131 15.4287 20.4538 16.2779C19.597 17.1296 19.168 18.3541 19.168 19.9502C19.168 21.6523 19.6417 22.8819 20.5943 23.6366C21.543 24.3925 22.6385 24.7692 23.8822 24.7692C25.3877 24.7692 26.5586 24.321 27.395 23.4272C27.93 22.8628 28.2326 22.3073 28.299 21.7621H25.8065C25.6622 22.0315 25.4949 22.2422 25.3034 22.3954C24.9561 22.6764 24.5041 22.8168 23.9499 22.8168C23.4226 22.8168 22.9756 22.7006 22.6028 22.4695C21.9873 22.0992 21.6656 21.4505 21.6247 20.5274H28.4267C28.4369 19.7319 28.4114 19.1202 28.345 18.6989ZM21.686 18.9376C21.7754 18.3388 21.9924 17.8638 22.3372 17.5126C22.682 17.1628 23.1697 16.9865 23.7941 16.9853C24.37 16.9853 24.8514 17.15 25.2434 17.4807C25.6303 17.814 25.8486 18.2979 25.8933 18.9376H21.686Z" fill="white"/>
</svg>
