<svg width="21" height="13" viewBox="0 0 21 13" fill="none" xmlns="http://www.w3.org/2000/svg">
<path d="M8.40447 5.77153C8.8284 5.55829 9.14889 5.32079 9.36852 5.06414C9.75925 4.6019 9.95206 3.989 9.95206 3.22925C9.95206 2.48993 9.75925 1.85787 9.37363 1.32796C8.73008 0.464787 7.64089 0.022984 6.10097 0H0V12.4535H5.68853C6.32953 12.4535 6.92328 12.3986 7.47234 12.2862C8.0214 12.1726 8.49641 11.9644 8.89863 11.6605C9.25615 11.3962 9.55494 11.0681 9.79245 10.6812C10.1679 10.0963 10.3556 9.43364 10.3556 8.6956C10.3556 7.98054 10.1908 7.37147 9.86395 6.87093C9.53324 6.37039 9.04802 6.00392 8.40447 5.77153ZM2.51674 2.16305H5.26461C5.86857 2.16305 6.36656 2.22817 6.75729 2.35713C7.2093 2.54484 7.43531 2.92663 7.43531 3.50889C7.43531 4.03113 7.26293 4.39632 6.922 4.6019C6.57852 4.80748 6.13289 4.91091 5.58638 4.91091H2.51674V2.16305ZM6.86199 10.0734C6.55809 10.2202 6.13033 10.293 5.58255 10.293H2.51674V6.9718H5.62469C6.16609 6.97563 6.58746 7.04714 6.8888 7.18121C7.4251 7.42382 7.69197 7.86818 7.69197 8.51811C7.69197 9.28425 7.41616 9.80011 6.86199 10.0734Z" fill="#4177F8"/>
<path d="M18.4649 0.581055H13.0547V2.1312H18.4649V0.581055Z" fill="#4177F8"/>
<path d="M20.3459 6.69867C20.2336 5.97723 19.9859 5.34261 19.6002 4.79483C19.1776 4.17426 18.6413 3.71969 17.9888 3.43239C17.3389 3.14381 16.6072 2.99952 15.7926 3.0008C14.425 3.0008 13.3141 3.42856 12.4548 4.27769C11.598 5.12937 11.1689 6.35391 11.1689 7.95002C11.1689 9.65211 11.6427 10.8817 12.5952 11.6364C13.544 12.3923 14.6395 12.769 15.8832 12.769C17.3887 12.769 18.5596 12.3208 19.3959 11.427C19.9309 10.8626 20.2336 10.3071 20.3 9.76192H17.8075C17.6632 10.0313 17.4959 10.242 17.3044 10.3953C16.9571 10.6762 16.5051 10.8166 15.9509 10.8166C15.4235 10.8166 14.9766 10.7004 14.6038 10.4693C13.9883 10.099 13.6665 9.45036 13.6257 8.52717H20.4277C20.4379 7.73167 20.4123 7.12004 20.3459 6.69867ZM13.687 6.93744C13.7763 6.33858 13.9934 5.86358 14.3382 5.51244C14.6829 5.16257 15.1707 4.98636 15.7951 4.98508C16.371 4.98508 16.8524 5.1498 17.2444 5.48052C17.6313 5.81378 17.8496 6.29772 17.8943 6.93744H13.687Z" fill="#4177F8"/>
</svg>
