<svg width="21" height="13" viewBox="0 0 21 13" fill="none" xmlns="http://www.w3.org/2000/svg">
<path d="M8.40447 5.77153C8.8284 5.55829 9.14889 5.32079 9.36852 5.06414C9.75925 4.6019 9.95206 3.989 9.95206 3.22925C9.95206 2.48993 9.75925 1.85787 9.37363 1.32796C8.73008 0.464787 7.64089 0.022984 6.10097 0H0V12.4535H5.68853C6.32953 12.4535 6.92328 12.3986 7.47234 12.2862C8.0214 12.1726 8.49641 11.9644 8.89863 11.6605C9.25615 11.3962 9.55494 11.0681 9.79245 10.6812C10.1679 10.0963 10.3556 9.43364 10.3556 8.6956C10.3556 7.98054 10.1908 7.37147 9.86395 6.87093C9.53324 6.37039 9.04802 6.00392 8.40447 5.77153ZM2.51674 2.16305H5.26461C5.86857 2.16305 6.36656 2.22817 6.75729 2.35713C7.2093 2.54484 7.43531 2.92663 7.43531 3.50889C7.43531 4.03113 7.26293 4.39632 6.922 4.6019C6.57852 4.80748 6.13289 4.91091 5.58638 4.91091H2.51674V2.16305ZM6.86199 10.0734C6.55809 10.2202 6.13033 10.293 5.58255 10.293H2.51674V6.9718H5.62469C6.16609 6.97563 6.58746 7.04714 6.8888 7.18121C7.4251 7.42382 7.69197 7.86818 7.69197 8.51811C7.69197 9.28425 7.41616 9.80011 6.86199 10.0734Z" fill="white"/>
<path d="M18.4649 0.581032H13.0547V2.13117H18.4649V0.581032Z" fill="white"/>
<path d="M20.3459 6.69868C20.2336 5.97724 19.9859 5.34263 19.6002 4.79484C19.1776 4.17428 18.6413 3.7197 17.9888 3.4324C17.3389 3.14383 16.6072 2.99954 15.7926 3.00082C14.425 3.00082 13.3141 3.42857 12.4548 4.2777C11.598 5.12939 11.1689 6.35392 11.1689 7.95003C11.1689 9.65212 11.6427 10.8818 12.5952 11.6364C13.544 12.3923 14.6395 12.769 15.8832 12.769C17.3887 12.769 18.5596 12.3208 19.3959 11.427C19.9309 10.8626 20.2336 10.3072 20.3 9.76193H17.8075C17.6632 10.0314 17.4959 10.242 17.3044 10.3953C16.9571 10.6762 16.5051 10.8166 15.9509 10.8166C15.4235 10.8166 14.9766 10.7004 14.6038 10.4693C13.9883 10.099 13.6665 9.45037 13.6257 8.52718H20.4277C20.4379 7.73168 20.4123 7.12006 20.3459 6.69868ZM13.687 6.93746C13.7763 6.3386 13.9934 5.8636 14.3382 5.51245C14.6829 5.16259 15.1707 4.98638 15.7951 4.9851C16.371 4.9851 16.8524 5.14982 17.2444 5.48053C17.6313 5.8138 17.8496 6.29774 17.8943 6.93746H13.687Z" fill="white"/>
</svg>
