<svg width="32" height="32" viewBox="0 0 32 32" fill="none" xmlns="http://www.w3.org/2000/svg">
<path d="M16 32C24.8366 32 32 24.8366 32 16C32 7.16344 24.8366 0 16 0C7.16344 0 0 7.16344 0 16C0 24.8366 7.16344 32 16 32Z" fill="#039BE5"/>
<path d="M7.32168 15.6533L22.7483 9.7053C23.4643 9.44664 24.0897 9.87997 23.8577 10.9626L23.859 10.9613L21.2323 23.336C21.0377 24.2133 20.5163 24.4266 19.787 24.0133L15.787 21.0653L13.8577 22.924C13.6443 23.1373 13.4643 23.3173 13.051 23.3173L13.335 19.2466L20.7483 12.5493C21.071 12.2653 20.6763 12.1053 20.251 12.388L11.0897 18.156L7.14035 16.924C6.28302 16.652 6.26435 16.0666 7.32168 15.6533Z" fill="white"/>
</svg>
