<svg width="17" height="10" viewBox="0 0 17 10" fill="none" xmlns="http://www.w3.org/2000/svg">
<path d="M14.1069 5.73429C13.8321 5.38429 13.9107 5.22857 14.1069 4.91571C14.1105 4.91214 16.3794 1.75071 16.6131 0.678571L16.6145 0.677857C16.7307 0.287143 16.6145 0 16.0528 0H14.1941C13.7209 0 13.5027 0.246429 13.3858 0.522143C13.3858 0.522143 12.4395 2.80643 11.1007 4.28714C10.6686 4.715 10.4688 4.85214 10.2329 4.85214C10.1168 4.85214 9.93614 4.715 9.93614 4.32429V0.677857C9.93614 0.209286 9.80367 0 9.41195 0H6.48927C6.19246 0 6.01608 0.218571 6.01608 0.422143C6.01608 0.866429 6.68548 0.968571 6.7549 2.21857V4.93071C6.7549 5.525 6.64794 5.63429 6.41064 5.63429C5.77878 5.63429 4.24519 3.34071 3.33637 0.715714C3.1529 0.206428 2.97369 0.000714234 2.49696 0.000714234H0.637522C0.106962 0.000714234 0 0.247143 0 0.522857C0 1.01 0.631855 3.43214 2.93827 6.63214C4.4754 8.81643 6.64015 10 8.60938 10C9.79305 10 9.93755 9.73714 9.93755 9.285C9.93755 7.19786 9.83059 7.00071 10.4235 7.00071C10.6983 7.00071 11.1715 7.13786 12.2765 8.19143C13.5396 9.44071 13.7471 10 14.454 10H16.3128C16.8426 10 17.1111 9.73714 16.9567 9.21857C16.6032 8.12786 14.2146 5.88429 14.1069 5.73429Z" fill="#009BE4"/>
</svg>
