<svg width="86" height="65" viewBox="0 0 86 65" fill="none" xmlns="http://www.w3.org/2000/svg">
<path d="M38.4763 1.95H25.6508C19.5505 1.95 15.1688 1.95414 11.8342 2.40856C8.555 2.85544 6.57804 3.70536 5.11682 5.18647C3.6556 6.66758 2.8171 8.67145 2.37622 11.9953C1.9279 15.3752 1.92381 19.8166 1.92381 26V39C1.92381 45.1834 1.9279 49.6248 2.37622 53.0047C2.8171 56.3285 3.6556 58.3324 5.11682 59.8135C6.57804 61.2946 8.555 62.1446 11.8342 62.5914C15.1688 63.0459 19.5505 63.05 25.6508 63.05H38.4763C44.5766 63.05 48.9583 63.0459 52.2929 62.5914C55.5721 62.1446 57.5491 61.2946 59.0103 59.8135C60.3783 58.4269 61.2005 56.5821 61.6616 53.625H63.6076C63.1225 56.9743 62.1844 59.3539 60.3706 61.1924C56.6141 65 50.5682 65 38.4763 65H25.6508C13.5589 65 7.51296 65 3.75648 61.1924C0 57.3848 0 51.2565 0 39V26C0 13.7435 0 7.61522 3.75648 3.80761C7.51296 0 13.5589 0 25.6508 0H38.4763C50.5682 0 56.6141 0 60.3706 3.80761C64.1271 7.61522 64.1271 13.7435 64.1271 26V30.875H62.2033V26C62.2033 19.8166 62.1992 15.3752 61.7509 11.9953C61.31 8.67145 60.4715 6.66758 59.0103 5.18647C57.5491 3.70536 55.5721 2.85544 52.2929 2.40856C48.9583 1.95414 44.5766 1.95 38.4763 1.95Z" fill="url(#paint0_linear)"/>
<path d="M18.7899 25.428H16.6191L16.0698 23.9093H12.2374L11.6747 25.428H9.50391L12.961 16.4638H15.3462L18.7899 25.428ZM15.5472 22.2294L14.1536 18.3722L12.76 22.2294H15.5472Z" fill="url(#paint1_linear)"/>
<path d="M25.6719 25.428H23.7691V16.4638H27.9498C28.8878 16.4638 29.6203 16.7415 30.1474 17.2971C30.6834 17.8436 30.9514 18.529 30.9514 19.3533C30.9514 20.1686 30.6834 20.8541 30.1474 21.4096C29.6114 21.9651 28.8789 22.2428 27.9498 22.2428H25.6719V25.428ZM27.6952 20.5629C28.0794 20.5629 28.392 20.4554 28.6332 20.2403C28.8834 20.0163 29.0084 19.7207 29.0084 19.3533C29.0084 18.986 28.8834 18.6948 28.6332 18.4797C28.392 18.2557 28.0794 18.1437 27.6952 18.1437H25.6719V20.5629H27.6952Z" fill="url(#paint2_linear)"/>
<path d="M38.1875 25.428H36.2848V16.4638H40.4655C41.4034 16.4638 42.136 16.7415 42.663 17.2971C43.199 17.8436 43.467 18.529 43.467 19.3533C43.467 20.1686 43.199 20.8541 42.663 21.4096C42.127 21.9651 41.3945 22.2428 40.4655 22.2428H38.1875V25.428ZM40.2109 20.5629C40.595 20.5629 40.9077 20.4554 41.1489 20.2403C41.399 20.0163 41.524 19.7207 41.524 19.3533C41.524 18.986 41.399 18.6948 41.1489 18.4797C40.9077 18.2557 40.595 18.1437 40.2109 18.1437H38.1875V20.5629H40.2109Z" fill="url(#paint3_linear)"/>
<path d="M51.9761 25.5893C50.386 25.5893 49.1264 25.1144 48.1974 24.1647L49.2292 22.7132C49.9974 23.5196 50.9443 23.9228 52.0699 23.9228C52.5612 23.9228 52.9409 23.8287 53.2089 23.6405C53.4858 23.4434 53.6243 23.206 53.6243 22.9282C53.6243 22.6863 53.4948 22.4847 53.2357 22.3235C52.9856 22.1622 52.6684 22.0457 52.2843 21.974C51.9091 21.9023 51.4982 21.7993 51.0515 21.6649C50.6049 21.5305 50.1895 21.3782 49.8054 21.208C49.4302 21.0377 49.113 20.7689 48.854 20.4016C48.6039 20.0342 48.4788 19.5863 48.4788 19.0576C48.4788 18.2871 48.787 17.642 49.4034 17.1223C50.0198 16.5937 50.8416 16.3294 51.8689 16.3294C53.2893 16.3294 54.4506 16.746 55.3528 17.5793L54.2943 18.977C53.5885 18.3229 52.722 17.9959 51.6947 17.9959C51.2927 17.9959 50.9801 18.0765 50.7567 18.2378C50.5334 18.3991 50.4218 18.6186 50.4218 18.8964C50.4218 19.1114 50.5468 19.2951 50.7969 19.4474C51.056 19.5907 51.3731 19.6983 51.7483 19.7699C52.1325 19.8416 52.5434 19.9491 52.9811 20.0925C53.4278 20.2269 53.8387 20.3837 54.2139 20.5629C54.598 20.7331 54.9151 21.0064 55.1652 21.3827C55.4243 21.75 55.5538 22.1935 55.5538 22.7132C55.5538 23.5733 55.2456 24.2677 54.6293 24.7963C54.0218 25.325 53.1374 25.5893 51.9761 25.5893Z" fill="url(#paint4_linear)"/>
<path d="M13.6303 46.8192C12.0402 46.8192 10.7806 46.3443 9.85156 45.3946L10.8833 43.9431C11.6516 44.7495 12.5985 45.1527 13.7241 45.1527C14.2154 45.1527 14.5951 45.0586 14.863 44.8704C15.14 44.6733 15.2784 44.4359 15.2784 44.1581C15.2784 43.9162 15.1489 43.7146 14.8898 43.5533C14.6397 43.3921 14.3226 43.2756 13.9385 43.2039C13.5633 43.1322 13.1524 43.0292 12.7057 42.8948C12.259 42.7604 11.8436 42.6081 11.4595 42.4379C11.0843 42.2676 10.7672 41.9988 10.5081 41.6315C10.258 41.2641 10.133 40.8162 10.133 40.2875C10.133 39.517 10.4411 38.8719 11.0575 38.3522C11.6739 37.8236 12.4958 37.5593 13.5231 37.5593C14.9434 37.5593 16.1048 37.9759 17.007 38.8092L15.9484 40.2069C15.2427 39.5528 14.3762 39.2258 13.3489 39.2258C12.9469 39.2258 12.6342 39.3064 12.4109 39.4677C12.1876 39.629 12.0759 39.8485 12.0759 40.1263C12.0759 40.3413 12.201 40.525 12.4511 40.6773C12.7102 40.8206 13.0273 40.9282 13.4025 40.9998C13.7866 41.0715 14.1975 41.179 14.6353 41.3224C15.0819 41.4568 15.4928 41.6136 15.868 41.7928C16.2521 41.963 16.5693 42.2363 16.8194 42.6126C17.0785 42.9799 17.208 43.4234 17.208 43.9431C17.208 44.8032 16.8998 45.4976 16.2834 46.0262C15.676 46.5548 14.7916 46.8192 13.6303 46.8192Z" fill="url(#paint5_linear)"/>
<path d="M26.4526 46.6579H24.5365V39.3736H21.9235V37.6937H29.0522V39.3736H26.4526V46.6579Z" fill="url(#paint6_linear)"/>
<path d="M41.4607 45.8112C40.7818 46.4832 39.7813 46.8192 38.4592 46.8192C37.1371 46.8192 36.1321 46.4832 35.4442 45.8112C34.7653 45.1303 34.4259 44.2208 34.4259 43.083V37.6937H36.3554V43.0158C36.3554 43.6609 36.5385 44.176 36.9048 44.5613C37.2711 44.9376 37.7892 45.1258 38.4592 45.1258C39.1291 45.1258 39.6428 44.9376 40.0001 44.5613C40.3664 44.176 40.5495 43.6609 40.5495 43.0158V37.6937H42.4925V43.0695C42.4925 44.2253 42.1485 45.1392 41.4607 45.8112Z" fill="url(#paint7_linear)"/>
<path d="M51.9312 46.6579H48.4071V37.6937H51.9312C53.3337 37.6937 54.4727 38.1058 55.3481 38.9301C56.2325 39.7544 56.6747 40.8386 56.6747 42.1825C56.6747 43.5265 56.237 44.6106 55.3615 45.4349C54.4861 46.2502 53.3426 46.6579 51.9312 46.6579ZM51.9312 44.9779C52.7888 44.9779 53.4677 44.7091 53.9679 44.1716C54.4771 43.634 54.7317 42.971 54.7317 42.1825C54.7317 41.3582 54.4861 40.6862 53.9947 40.1666C53.5034 39.638 52.8156 39.3736 51.9312 39.3736H50.3098V44.9779H51.9312Z" fill="url(#paint8_linear)"/>
<path d="M64.0817 46.6579H62.1789V37.6937H64.0817V46.6579Z" fill="url(#paint9_linear)"/>
<path d="M74.2442 46.8192C72.8953 46.8192 71.7786 46.3846 70.8943 45.5155C70.0188 44.6375 69.5811 43.5265 69.5811 42.1825C69.5811 40.8386 70.0188 39.732 70.8943 38.8629C71.7786 37.9849 72.8953 37.5459 74.2442 37.5459C75.602 37.5459 76.7187 37.9804 77.5941 38.8495C78.4785 39.7186 78.9207 40.8296 78.9207 42.1825C78.9207 43.5354 78.4785 44.6464 77.5941 45.5155C76.7187 46.3846 75.602 46.8192 74.2442 46.8192ZM72.2744 44.2925C72.7747 44.848 73.4313 45.1258 74.2442 45.1258C75.0571 45.1258 75.7137 44.848 76.2139 44.2925C76.7142 43.737 76.9643 43.0337 76.9643 42.1825C76.9643 41.3313 76.7142 40.628 76.2139 40.0725C75.7137 39.517 75.0571 39.2393 74.2442 39.2393C73.4313 39.2393 72.7747 39.517 72.2744 40.0725C71.7831 40.628 71.5375 41.3313 71.5375 42.1825C71.5375 43.0337 71.7831 43.737 72.2744 44.2925Z" fill="url(#paint10_linear)"/>
<path d="M85.6773 46.4832C85.4629 46.6982 85.2083 46.8057 84.9135 46.8057C84.6187 46.8057 84.3641 46.6982 84.1497 46.4832C83.9353 46.2681 83.8281 46.0128 83.8281 45.7171C83.8281 45.4214 83.9353 45.1661 84.1497 44.9511C84.3641 44.736 84.6187 44.6285 84.9135 44.6285C85.2083 44.6285 85.4629 44.736 85.6773 44.9511C85.8917 45.1661 85.9989 45.4214 85.9989 45.7171C85.9989 46.0128 85.8917 46.2681 85.6773 46.4832Z" fill="url(#paint11_linear)"/>
<defs>
<linearGradient id="paint0_linear" x1="-3" y1="-3" x2="59.6483" y2="66.8552" gradientUnits="userSpaceOnUse">
<stop stop-color="#7ECAA6"/>
<stop offset="0.293991" stop-color="#61BDD1"/>
<stop offset="0.606345" stop-color="#CF6DDD"/>
<stop offset="1" stop-color="#4061F8"/>
</linearGradient>
<linearGradient id="paint1_linear" x1="-3" y1="-3" x2="59.6483" y2="66.8552" gradientUnits="userSpaceOnUse">
<stop stop-color="#7ECAA6"/>
<stop offset="0.293991" stop-color="#61BDD1"/>
<stop offset="0.606345" stop-color="#CF6DDD"/>
<stop offset="1" stop-color="#4061F8"/>
</linearGradient>
<linearGradient id="paint2_linear" x1="-3" y1="-3" x2="59.6483" y2="66.8552" gradientUnits="userSpaceOnUse">
<stop stop-color="#7ECAA6"/>
<stop offset="0.293991" stop-color="#61BDD1"/>
<stop offset="0.606345" stop-color="#CF6DDD"/>
<stop offset="1" stop-color="#4061F8"/>
</linearGradient>
<linearGradient id="paint3_linear" x1="-3" y1="-3" x2="59.6483" y2="66.8552" gradientUnits="userSpaceOnUse">
<stop stop-color="#7ECAA6"/>
<stop offset="0.293991" stop-color="#61BDD1"/>
<stop offset="0.606345" stop-color="#CF6DDD"/>
<stop offset="1" stop-color="#4061F8"/>
</linearGradient>
<linearGradient id="paint4_linear" x1="-3" y1="-3" x2="59.6483" y2="66.8552" gradientUnits="userSpaceOnUse">
<stop stop-color="#7ECAA6"/>
<stop offset="0.293991" stop-color="#61BDD1"/>
<stop offset="0.606345" stop-color="#CF6DDD"/>
<stop offset="1" stop-color="#4061F8"/>
</linearGradient>
<linearGradient id="paint5_linear" x1="-3" y1="-3" x2="59.6483" y2="66.8552" gradientUnits="userSpaceOnUse">
<stop stop-color="#7ECAA6"/>
<stop offset="0.293991" stop-color="#61BDD1"/>
<stop offset="0.606345" stop-color="#CF6DDD"/>
<stop offset="1" stop-color="#4061F8"/>
</linearGradient>
<linearGradient id="paint6_linear" x1="-3" y1="-3" x2="59.6483" y2="66.8552" gradientUnits="userSpaceOnUse">
<stop stop-color="#7ECAA6"/>
<stop offset="0.293991" stop-color="#61BDD1"/>
<stop offset="0.606345" stop-color="#CF6DDD"/>
<stop offset="1" stop-color="#4061F8"/>
</linearGradient>
<linearGradient id="paint7_linear" x1="-3" y1="-3" x2="59.6483" y2="66.8552" gradientUnits="userSpaceOnUse">
<stop stop-color="#7ECAA6"/>
<stop offset="0.293991" stop-color="#61BDD1"/>
<stop offset="0.606345" stop-color="#CF6DDD"/>
<stop offset="1" stop-color="#4061F8"/>
</linearGradient>
<linearGradient id="paint8_linear" x1="-3" y1="-3" x2="59.6483" y2="66.8552" gradientUnits="userSpaceOnUse">
<stop stop-color="#7ECAA6"/>
<stop offset="0.293991" stop-color="#61BDD1"/>
<stop offset="0.606345" stop-color="#CF6DDD"/>
<stop offset="1" stop-color="#4061F8"/>
</linearGradient>
<linearGradient id="paint9_linear" x1="-3" y1="-3" x2="59.6483" y2="66.8552" gradientUnits="userSpaceOnUse">
<stop stop-color="#7ECAA6"/>
<stop offset="0.293991" stop-color="#61BDD1"/>
<stop offset="0.606345" stop-color="#CF6DDD"/>
<stop offset="1" stop-color="#4061F8"/>
</linearGradient>
<linearGradient id="paint10_linear" x1="-3" y1="-3" x2="59.6483" y2="66.8552" gradientUnits="userSpaceOnUse">
<stop stop-color="#7ECAA6"/>
<stop offset="0.293991" stop-color="#61BDD1"/>
<stop offset="0.606345" stop-color="#CF6DDD"/>
<stop offset="1" stop-color="#4061F8"/>
</linearGradient>
<linearGradient id="paint11_linear" x1="-3" y1="-3" x2="59.6483" y2="66.8552" gradientUnits="userSpaceOnUse">
<stop stop-color="#7ECAA6"/>
<stop offset="0.293991" stop-color="#61BDD1"/>
<stop offset="0.606345" stop-color="#CF6DDD"/>
<stop offset="1" stop-color="#4061F8"/>
</linearGradient>
</defs>
</svg>
