<svg width="160" height="27" viewBox="0 0 160 27" fill="none" xmlns="http://www.w3.org/2000/svg">
<circle cx="13.108" cy="13.108" r="13.108" fill="#F50014"/>
<path d="M44.0324 20.6738L42.0498 15.5709H35.5162L33.5562 20.6738H31.4609L37.8931 4.13721H39.763L46.1839 20.6738H44.0324ZM41.4302 13.7347L39.5828 8.74447L38.7943 6.2775C38.569 7.17868 38.3324 8.001 38.0846 8.74447L36.2146 13.7347H41.4302Z" fill="black"/>
<path d="M54.7275 20.8991C53.0678 20.8991 51.7912 20.3021 50.8975 19.108H50.7623L50.8074 19.5699C50.8675 20.1556 50.8975 20.6776 50.8975 21.1356V26.216H48.8699V8.30515H50.537L50.8074 9.99485H50.8975C51.3781 9.31897 51.9339 8.83083 52.5647 8.53044C53.1955 8.23005 53.924 8.07985 54.75 8.07985C56.3571 8.07985 57.6038 8.63933 58.4899 9.7583C59.3836 10.8697 59.8304 12.4393 59.8304 14.4669C59.8304 16.4871 59.3836 18.0641 58.4899 19.1981C57.5963 20.3321 56.3421 20.8991 54.7275 20.8991ZM54.3896 9.78083C53.1655 9.78083 52.2793 10.1263 51.7311 10.8172C51.1904 11.5081 50.9125 12.5932 50.8975 14.0727V14.4669C50.8975 16.1416 51.1754 17.3545 51.7311 18.1054C52.2868 18.8489 53.188 19.2206 54.4346 19.2206C55.471 19.2206 56.2783 18.8001 56.8565 17.959C57.4423 17.1179 57.7352 15.9464 57.7352 14.4444C57.7352 12.9349 57.4423 11.7822 56.8565 10.9861C56.2783 10.1826 55.456 9.78083 54.3896 9.78083Z" fill="black"/>
<path d="M69.6131 20.8991C67.9535 20.8991 66.6768 20.3021 65.7831 19.108H65.648L65.693 19.5699C65.7531 20.1556 65.7831 20.6776 65.7831 21.1356V26.216H63.7555V8.30515H65.4227L65.693 9.99485H65.7831C66.2638 9.31897 66.8195 8.83083 67.4503 8.53044C68.0811 8.23005 68.8096 8.07985 69.6357 8.07985C71.2428 8.07985 72.4894 8.63933 73.3756 9.7583C74.2692 10.8697 74.7161 12.4393 74.7161 14.4669C74.7161 16.4871 74.2692 18.0641 73.3756 19.1981C72.4819 20.3321 71.2278 20.8991 69.6131 20.8991ZM69.2752 9.78083C68.0511 9.78083 67.165 10.1263 66.6167 10.8172C66.076 11.5081 65.7982 12.5932 65.7831 14.0727V14.4669C65.7831 16.1416 66.061 17.3545 66.6167 18.1054C67.1725 18.8489 68.0736 19.2206 69.3203 19.2206C70.3566 19.2206 71.1639 18.8001 71.7422 17.959C72.3279 17.1179 72.6208 15.9464 72.6208 14.4444C72.6208 12.9349 72.3279 11.7822 71.7422 10.9861C71.1639 10.1826 70.3416 9.78083 69.2752 9.78083Z" fill="black"/>
<path d="M86.6954 17.2606C86.6954 18.4171 86.2636 19.3145 85.4 19.9529C84.5363 20.5837 83.3235 20.8991 81.7615 20.8991C80.1318 20.8991 78.8364 20.64 77.8751 20.1218V18.2744C79.2344 18.9353 80.5449 19.2657 81.8065 19.2657C82.8279 19.2657 83.5713 19.1005 84.0369 18.7701C84.5025 18.4396 84.7353 17.9966 84.7353 17.4408C84.7353 16.9527 84.51 16.5396 84.0595 16.2017C83.6164 15.8638 82.8241 15.477 81.6826 15.0414C80.5186 14.5909 79.7 14.2079 79.2269 13.8924C78.7538 13.5695 78.4046 13.2091 78.1793 12.811C77.9615 12.413 77.8526 11.9286 77.8526 11.3579C77.8526 10.3441 78.2656 9.54427 79.0917 8.9585C79.9178 8.37274 81.0518 8.07985 82.4937 8.07985C83.898 8.07985 85.2122 8.35772 86.4363 8.91344L85.7492 10.5243C84.495 9.99861 83.3648 9.73577 82.3585 9.73577C81.5174 9.73577 80.8791 9.87094 80.4435 10.1413C80.0079 10.4041 79.7901 10.7684 79.7901 11.234C79.7901 11.6846 79.9779 12.0601 80.3534 12.3604C80.7289 12.6533 81.6038 13.0626 82.978 13.5883C84.0069 13.9713 84.7654 14.328 85.2535 14.6584C85.7492 14.9889 86.1134 15.3606 86.3462 15.7736C86.579 16.1867 86.6954 16.6823 86.6954 17.2606Z" fill="black"/>
<path d="M100.014 16.2694C100.014 17.7038 99.4959 18.834 98.4595 19.6601C97.4232 20.4861 95.9813 20.8992 94.1339 20.8992C92.1813 20.8992 90.6719 20.6401 89.6055 20.1219V18.1393C90.3039 18.4397 91.0661 18.6763 91.8922 18.849C92.7258 19.0217 93.5031 19.1081 94.224 19.1081C95.4556 19.1081 96.3831 18.8715 97.0064 18.3984C97.6297 17.9253 97.9414 17.2757 97.9414 16.4496C97.9414 15.9014 97.8287 15.4508 97.6034 15.0978C97.3781 14.7449 96.9989 14.4145 96.4657 14.1066C95.94 13.7987 95.1402 13.4494 94.0663 13.0589C92.5418 12.5032 91.4529 11.8499 90.7995 11.0989C90.1462 10.3404 89.8195 9.36411 89.8195 8.17006C89.8195 6.88588 90.3001 5.86455 91.2614 5.10606C92.2301 4.34756 93.5031 3.96832 95.0801 3.96832C96.7248 3.96832 98.238 4.27622 99.6198 4.89203L98.9777 6.67185C97.5659 6.08608 96.2516 5.7932 95.0351 5.7932C94.0588 5.7932 93.2928 6.00348 92.7371 6.42403C92.1888 6.84457 91.9147 7.43409 91.9147 8.19258C91.9147 8.73329 92.0199 9.18388 92.2301 9.54435C92.4479 9.89731 92.7934 10.2202 93.2665 10.5131C93.7471 10.806 94.4981 11.1402 95.5194 11.5157C96.7435 11.9663 97.656 12.4056 98.2568 12.8336C98.8575 13.2542 99.3006 13.7423 99.586 14.2981C99.8714 14.8463 100.014 15.5034 100.014 16.2694Z" fill="#F50014"/>
<path d="M107.882 19.2433C108.145 19.2433 108.453 19.217 108.805 19.1644C109.158 19.1118 109.425 19.0518 109.605 18.9842V20.5387C109.418 20.6213 109.125 20.7002 108.727 20.7753C108.336 20.8579 107.938 20.8992 107.533 20.8992C105.114 20.8992 103.905 19.6263 103.905 17.0804V9.88229H102.159V8.91353L103.928 8.10247L104.739 5.46653H105.944V8.30523H109.515V9.88229H105.944V17.0241C105.944 17.7375 106.113 18.2858 106.451 18.6688C106.797 19.0518 107.273 19.2433 107.882 19.2433Z" fill="#F50014"/>
<path d="M114.691 8.30523V16.2694C114.691 17.2682 114.912 18.0117 115.355 18.4998C115.806 18.9804 116.5 19.2207 117.439 19.2207C118.708 19.2207 119.632 18.8678 120.21 18.1618C120.789 17.4559 121.078 16.3182 121.078 14.7486V8.30523H123.117V20.6739H121.449L121.157 19.0405H121.055C120.687 19.6338 120.165 20.0919 119.489 20.4148C118.814 20.7377 118.029 20.8992 117.135 20.8992C115.648 20.8992 114.525 20.5425 113.767 19.829C113.016 19.1156 112.64 17.9741 112.64 16.4046V8.30523H114.691Z" fill="#F50014"/>
<path d="M132.111 20.8992C130.504 20.8992 129.257 20.3434 128.371 19.232C127.485 18.1205 127.042 16.5472 127.042 14.5121C127.042 12.4919 127.485 10.9149 128.371 9.78091C129.265 8.64693 130.519 8.07994 132.133 8.07994C133.793 8.07994 135.07 8.68823 135.963 9.90482H136.11C136.087 9.75462 136.057 9.45423 136.02 9.00364C135.982 8.54555 135.963 8.23764 135.963 8.07994V3.146H137.991V20.6739H136.358L136.053 19.018H135.963C135.1 20.2721 133.816 20.8992 132.111 20.8992ZM132.437 19.2207C133.669 19.2207 134.567 18.8865 135.13 18.2182C135.701 17.5423 135.986 16.4383 135.986 14.9064V14.5346C135.986 12.8149 135.697 11.5908 135.118 10.8623C134.548 10.1264 133.647 9.75838 132.415 9.75838C131.371 9.75838 130.564 10.1752 129.993 11.0088C129.422 11.8348 129.137 13.0176 129.137 14.5571C129.137 16.0891 129.419 17.2494 129.982 18.0379C130.553 18.8265 131.371 19.2207 132.437 19.2207Z" fill="#F50014"/>
<path d="M144.642 20.6739H142.614V8.30523H144.642V20.6739ZM142.457 4.95961C142.457 4.50903 142.569 4.18235 142.795 3.97958C143.028 3.77682 143.313 3.67544 143.651 3.67544C143.966 3.67544 144.24 3.77682 144.473 3.97958C144.713 4.18235 144.834 4.50903 144.834 4.95961C144.834 5.40269 144.713 5.72937 144.473 5.93964C144.24 6.14992 143.966 6.25506 143.651 6.25506C143.313 6.25506 143.028 6.14992 142.795 5.93964C142.569 5.72937 142.457 5.40269 142.457 4.95961Z" fill="#F50014"/>
<path d="M160.001 14.467C160.001 16.4872 159.49 18.0642 158.469 19.1982C157.448 20.3322 156.036 20.8992 154.233 20.8992C153.114 20.8992 152.123 20.6401 151.259 20.1219C150.396 19.5962 149.731 18.8452 149.266 17.869C148.8 16.8927 148.567 15.7587 148.567 14.467C148.567 12.4544 149.07 10.8886 150.077 9.76964C151.083 8.64317 152.495 8.07994 154.312 8.07994C156.054 8.07994 157.436 8.65444 158.458 9.80344C159.486 10.9449 160.001 12.4995 160.001 14.467ZM150.662 14.467C150.662 16.0216 150.967 17.2044 151.575 18.0154C152.191 18.819 153.096 19.2207 154.29 19.2207C155.469 19.2207 156.366 18.819 156.982 18.0154C157.598 17.2044 157.906 16.0216 157.906 14.467C157.906 12.9125 157.594 11.7447 156.971 10.9637C156.355 10.1752 155.45 9.78091 154.256 9.78091C151.86 9.78091 150.662 11.3429 150.662 14.467Z" fill="#F50014"/>
<mask id="mask0" mask-type="alpha" maskUnits="userSpaceOnUse" x="0" y="0" width="27" height="27">
<circle cx="13.108" cy="13.108" r="13.108" fill="#F50014"/>
</mask>
<g mask="url(#mask0)">
<path d="M15.4297 27.3188L12.5078 19.7983H2.87891L-0.00976562 27.3188H-3.09766L6.38184 2.94775H9.1377L18.6006 27.3188H15.4297ZM11.5947 17.0923L8.87207 9.73779L7.70996 6.10205C7.37793 7.43018 7.0293 8.64209 6.66406 9.73779L3.9082 17.0923H11.5947Z" fill="white"/>
</g>
</svg>
