<svg width="108" height="69" viewBox="0 0 108 69" fill="none" xmlns="http://www.w3.org/2000/svg">
<path d="M0.0742188 6.72874C0.0742187 5.13007 0.70565 3.59687 1.8296 2.46643C2.95356 1.336 4.47797 0.700928 6.06748 0.700928L61.0001 0.700928C62.5896 0.700928 64.1141 1.336 65.238 2.46643C66.362 3.59687 66.9934 5.13007 66.9934 6.72874V31.4436H64.9963V6.72874C64.9963 5.66333 64.5755 4.64156 63.8265 3.8882C63.0774 3.13484 62.0615 2.7116 61.0022 2.7116H6.06957C5.01027 2.7116 3.99435 3.13484 3.24531 3.8882C2.49627 4.64156 2.07546 5.66333 2.07546 6.72874V61.9781C2.07546 62.5056 2.17877 63.028 2.37949 63.5154C2.58021 64.0028 2.87442 64.4456 3.24531 64.8187C3.61619 65.1917 4.0565 65.4876 4.54109 65.6895C5.02568 65.8913 5.54506 65.9953 6.06957 65.9953H61.0022C61.5267 65.9953 62.0461 65.8913 62.5307 65.6895C63.0153 65.4876 63.4556 65.1917 63.8265 64.8187C64.1974 64.4456 64.4916 64.0028 64.6923 63.5154C64.893 63.028 64.9963 62.5056 64.9963 61.9781V55.5528H66.9934V61.9781C66.9934 63.5768 66.362 65.11 65.238 66.2404C64.1141 67.3708 62.5896 68.0059 61.0001 68.0059H6.06748C4.47797 68.0059 2.95356 67.3708 1.8296 66.2404C0.70565 65.11 0.0742188 63.5768 0.0742188 61.9781L0.0742188 6.72874Z" fill="black"/>
<path d="M19.6805 27.0288H17.4158L16.8428 25.4556H12.8445L12.2569 27.0288H9.99219L13.5994 17.7474H16.0879L19.6805 27.0288ZM16.297 23.7184L14.8437 19.7244L13.3903 23.7184H16.2991H16.297ZM26.8616 27.0288H24.875V17.7474H29.2371C30.2158 17.7474 30.9811 18.0355 31.5311 18.6097C32.0895 19.1754 32.3697 19.8842 32.3697 20.7381C32.3697 21.5815 32.0895 22.2924 31.5311 22.8666C30.9728 23.4408 30.2074 23.7289 29.2371 23.7289H26.8595V27.0267L26.8616 27.0288ZM28.9736 21.9916C29.33 22.0076 29.6793 21.8882 29.9523 21.6572C30.2137 21.4259 30.3433 21.1188 30.3433 20.7381C30.3433 20.3575 30.2137 20.0567 29.9523 19.8338C29.6828 19.5954 29.3322 19.4711 28.9736 19.4867H26.8616V21.9916H28.9736ZM39.9229 27.0288H37.9363V17.7474H42.2985C43.2772 17.7474 44.0425 18.0355 44.5925 18.6097C45.1508 19.1754 45.4311 19.8842 45.4311 20.7381C45.4311 21.5815 45.1508 22.2924 44.5925 22.8666C44.0342 23.4408 43.2688 23.7289 42.2985 23.7289H39.9209V27.0267L39.9229 27.0288ZM42.035 21.9916C42.3914 22.0076 42.7407 21.8882 43.0137 21.6572C43.2751 21.4259 43.4047 21.1188 43.4047 20.7381C43.4047 20.3575 43.2751 20.0567 43.0137 19.8338C42.7442 19.5954 42.3935 19.4711 42.035 19.4867H39.9229V21.9916H42.035ZM54.3122 27.1971C52.6518 27.1971 51.3386 26.705 50.3683 25.7228L51.4452 24.219C52.2461 25.0539 53.2353 25.4704 54.4105 25.4704C54.9228 25.4704 55.3201 25.3736 55.5983 25.178C55.8869 24.974 56.0311 24.7279 56.0311 24.4398C56.0311 24.1895 55.8952 23.9813 55.6255 23.813C55.3204 23.6297 54.9832 23.5069 54.6322 23.4513C53.7449 23.278 52.8779 23.0123 52.0454 22.6584C51.6455 22.4752 51.3023 22.1867 51.0521 21.8234C50.7817 21.4111 50.6451 20.9247 50.661 20.4311C50.661 19.6339 50.9831 18.9651 51.6251 18.4267C52.2691 17.8799 53.1265 17.6064 54.1972 17.6064C55.6798 17.6064 56.8906 18.0376 57.8316 18.8999L56.7275 20.3469C55.9914 19.6697 55.0859 19.3311 54.0153 19.3311C53.5949 19.3311 53.2687 19.4152 53.0366 19.5814C52.8045 19.7475 52.6874 19.9747 52.6874 20.2628C52.6874 20.4857 52.817 20.675 53.0784 20.8328C53.3482 20.9821 53.6807 21.0915 54.0717 21.1672C54.4732 21.2408 54.9019 21.3523 55.3578 21.5016C55.8241 21.6404 56.2528 21.8024 56.6439 21.9895C57.0454 22.1662 57.3758 22.448 57.6372 22.8392C57.9069 23.2199 58.0428 23.6784 58.0428 24.2169C58.0428 25.1065 57.7208 25.8258 57.0788 26.3748C56.4452 26.9216 55.523 27.195 54.3101 27.195L54.3122 27.1971ZM14.2979 49.1778C12.6396 49.1778 11.3243 48.6857 10.354 47.7035L11.4309 46.1997C12.2318 47.0346 13.2209 47.4532 14.3962 47.4532C14.9085 47.4532 15.3058 47.3564 15.5839 47.1608C15.8725 46.9568 16.0168 46.7107 16.0168 46.4226C16.0168 46.1723 15.8809 45.9641 15.6111 45.7958C15.3061 45.6125 14.9689 45.4897 14.6178 45.4341C13.7305 45.2609 12.8636 44.9951 12.0311 44.6412C11.6312 44.458 11.2879 44.1695 11.0378 43.8062C10.7674 43.394 10.6307 42.9075 10.6467 42.4139C10.6467 41.6168 10.9688 40.9479 11.6107 40.4095C12.2548 39.8627 13.1122 39.5893 14.1829 39.5893C15.6655 39.5893 16.8763 40.0204 17.8173 40.8827L16.7132 42.3297C15.9771 41.6525 15.0716 41.3139 14.0009 41.3139C13.5806 41.3139 13.2544 41.398 13.0223 41.5642C12.7902 41.7303 12.6731 41.9575 12.6731 42.2456C12.6731 42.4686 12.8027 42.6578 13.0641 42.8156C13.3339 42.9649 13.6664 43.0743 14.0574 43.15C14.4589 43.2236 14.8876 43.3351 15.3435 43.4844C15.8098 43.6232 16.2385 43.7852 16.6295 43.9724C17.031 44.149 17.3614 44.4309 17.6228 44.8221C17.8926 45.2027 18.0285 45.6612 18.0285 46.1997C18.0285 47.0893 17.7065 47.8086 17.0645 48.3576C16.4309 48.9044 15.5087 49.1778 14.2958 49.1778H14.2979ZM27.6771 49.0117H25.678V41.4695H22.9511V39.7302H30.3894V41.4695H27.6771V49.0117ZM43.3378 48.1346C42.6289 48.8308 41.5854 49.1778 40.2052 49.1778C38.8251 49.1778 37.7774 48.8308 37.0601 48.1346C36.3512 47.43 35.9978 46.4878 35.9978 45.31V39.7302H38.0116V45.2406C38.0116 45.9094 38.2019 46.4415 38.5846 46.8411C38.9673 47.2302 39.5068 47.4258 40.2073 47.4258C40.9079 47.4258 41.4432 47.2302 41.8154 46.8411C42.1981 46.4415 42.3884 45.9094 42.3884 45.2406V39.7302H44.4168V45.2974C44.4168 46.4941 44.0572 47.4406 43.3399 48.1367L43.3378 48.1346ZM54.2641 49.0117H50.5858V39.7302H54.2641C55.7279 39.7302 56.9157 40.1571 57.8295 41.011C58.7517 41.8649 59.2139 42.9881 59.2139 44.3783C59.2139 45.7685 58.758 46.8916 57.8442 47.7455C56.9303 48.5889 55.7384 49.0117 54.2641 49.0117ZM54.2641 47.2723C55.1591 47.2723 55.868 46.9947 56.3887 46.4373C56.6506 46.1644 56.856 45.8418 56.9927 45.4883C57.1295 45.1348 57.195 44.7575 57.1855 44.3783C57.1855 43.5244 56.9282 42.8282 56.4159 42.2919C55.9036 41.745 55.1863 41.4716 54.262 41.4716H52.5703V47.2744H54.262L54.2641 47.2723ZM66.9428 49.0117H64.9562V39.7302H66.9428V49.0117ZM77.5492 49.1778C76.1418 49.1778 74.977 48.7277 74.0527 47.8275C73.1389 46.919 72.683 45.7685 72.683 44.3762C72.683 42.9838 73.1389 41.8397 74.0527 40.9395C74.9749 40.0309 76.1418 39.5766 77.5492 39.5766C78.967 39.5766 80.1318 40.0267 81.0456 40.9269C81.9678 41.8271 82.4299 42.9775 82.4299 44.3783C82.4299 45.779 81.9678 46.9295 81.0456 47.8297C80.1318 48.7298 78.967 49.1799 77.5492 49.1799V49.1778ZM75.4936 46.5635C76.0163 47.1377 76.7002 47.4258 77.5492 47.4258C78.3982 47.4258 79.082 47.1377 79.6048 46.5635C80.1276 45.9893 80.3869 45.2595 80.3869 44.3783C80.3869 43.497 80.1255 42.7693 79.6048 42.193C79.082 41.6189 78.3982 41.3307 77.5492 41.3307C76.7002 41.3307 76.0163 41.6189 75.4936 42.193C74.9812 42.7672 74.724 43.497 74.724 44.3783C74.724 45.2595 74.9812 45.9872 75.4936 46.5635ZM89.4792 48.8308C89.2555 49.0537 88.9899 49.1652 88.6825 49.1652C88.3751 49.1652 88.1095 49.0537 87.8858 48.8308C87.662 48.6078 87.5512 48.3428 87.5512 48.0379C87.5512 47.7329 87.662 47.4679 87.8858 47.245C88.1095 47.022 88.3751 46.9105 88.6825 46.9105C88.9899 46.9105 89.2555 47.022 89.4792 47.245C89.703 47.4679 89.8138 47.7329 89.8138 48.0379C89.8138 48.3428 89.703 48.6078 89.4792 48.8308Z" fill="black"/>
</svg>
