<svg width="130" height="64" viewBox="0 0 130 64" fill="none" xmlns="http://www.w3.org/2000/svg">
<path d="M70.0525 38.397C70.5873 38.6887 71.2841 38.9317 72.1429 39.1262C73.0017 39.3207 73.7795 39.4179 74.4763 39.4179C75.643 39.4179 76.6558 39.2396 77.5146 38.8831C78.3897 38.5266 79.054 38.0324 79.5077 37.4004C79.9615 36.7523 80.1883 36.0231 80.1883 35.2129C80.1883 34.435 80.0263 33.7707 79.7022 33.2197C79.3781 32.6688 78.9082 32.1826 78.2924 31.7613C77.6767 31.3238 76.8259 30.8539 75.7402 30.3516C74.5735 29.8006 73.6904 29.3469 73.0908 28.9904C72.4913 28.6339 72.0214 28.2369 71.6811 27.7994C71.357 27.3619 71.1949 26.8352 71.1949 26.2195C71.1949 25.3768 71.5352 24.7044 72.2158 24.202C72.8964 23.6997 73.82 23.4485 74.9867 23.4485C75.7321 23.4485 76.356 23.5214 76.8583 23.6673C77.3607 23.8131 77.9035 24.0157 78.4869 24.2749L79.0216 23.1325C78.4707 22.8571 77.8387 22.6302 77.1257 22.4519C76.4289 22.2737 75.6997 22.1846 74.9381 22.1846C73.9173 22.1846 73.0179 22.3628 72.2401 22.7193C71.4623 23.0758 70.8546 23.5619 70.4171 24.1777C69.9958 24.7935 69.7852 25.4741 69.7852 26.2195C69.7852 28.245 71.276 29.8897 74.2575 31.1537C75.3432 31.6074 76.194 32.0206 76.8097 32.3933C77.4417 32.766 77.9197 33.1792 78.2438 33.6329C78.5841 34.0704 78.7542 34.5971 78.7542 35.2129C78.7542 36.0879 78.3734 36.8009 77.6118 37.3518C76.8664 37.9028 75.8132 38.1782 74.452 38.1782C73.7066 38.1782 72.9774 38.0891 72.2644 37.9109C71.5514 37.7164 70.9357 37.4896 70.4171 37.2303L70.0525 38.397Z" fill="#151516"/>
<path d="M84.7291 23.959L83.1978 24.4937V27.5563H81.4477L81.472 28.6987H83.1978V36.2823C83.1978 37.287 83.457 38.0648 83.9756 38.6158C84.4941 39.1505 85.1909 39.4179 86.0659 39.4179C86.5359 39.4179 86.9086 39.3693 87.184 39.272C87.4595 39.191 87.6216 39.1424 87.6702 39.1262L87.3785 37.8866C87.0382 38.0324 86.706 38.1053 86.3819 38.1053C85.8148 38.1053 85.3935 37.9271 85.118 37.5706C84.8587 37.2141 84.7291 36.728 84.7291 36.1122V28.6987H87.3785L86.8681 27.5563H84.7291V23.959Z" fill="#151516"/>
<path d="M97.7294 35.699C97.1947 36.3796 96.5141 36.9548 95.6877 37.4247C94.8775 37.8785 94.1645 38.1053 93.5487 38.1053C92.0255 38.1053 91.2639 37.1331 91.2639 35.1885V27.3132H89.7569V35.4802C89.7569 36.6631 90.0567 37.6111 90.6563 38.3241C91.2558 39.0371 92.1633 39.3936 93.3786 39.3936C94.1078 39.3936 94.8937 39.191 95.7363 38.7859C96.5789 38.3646 97.2514 37.8623 97.7538 37.2789L97.9968 39.1019H99.2364V27.2889H97.7294V35.699Z" fill="#151516"/>
<path d="M111.526 39.1019H110.53L110.262 38.1782C109.793 38.5671 109.282 38.875 108.731 39.1019C108.18 39.3125 107.613 39.4179 107.03 39.4179C105.328 39.4179 104.008 38.8507 103.068 37.7164C102.128 36.5821 101.658 35.0751 101.658 33.1954C101.674 32.0125 101.893 30.9511 102.314 30.0113C102.752 29.0714 103.376 28.3341 104.186 27.7994C105.012 27.2646 105.993 26.9973 107.127 26.9973C108.067 26.9973 109.023 27.3538 109.995 28.0667V22.1846L111.526 21.9658V39.1019ZM107.005 38.1539C108.156 38.1539 109.152 37.7326 109.995 36.89V29.4279C109.59 29.0552 109.152 28.7716 108.683 28.5772C108.229 28.3665 107.686 28.2612 107.054 28.2612C105.806 28.2612 104.85 28.723 104.186 29.6467C103.538 30.5541 103.205 31.7289 103.189 33.1711C103.189 34.6943 103.505 35.9096 104.137 36.8171C104.769 37.7083 105.725 38.1539 107.005 38.1539Z" fill="#151516"/>
<path d="M115.674 24.7368C115.982 24.7368 116.249 24.6314 116.476 24.4208C116.719 24.1939 116.84 23.9184 116.84 23.5944C116.84 23.2703 116.719 23.0029 116.476 22.7922C116.249 22.5654 115.982 22.4519 115.674 22.4519C115.333 22.4519 115.058 22.5654 114.847 22.7922C114.637 23.0029 114.531 23.2703 114.531 23.5944C114.531 23.9184 114.637 24.1939 114.847 24.4208C115.058 24.6314 115.333 24.7368 115.674 24.7368ZM114.92 27.3132V39.1019H116.452V27.3132H114.92Z" fill="#151516"/>
<path d="M129.999 33.2683C129.999 34.4513 129.764 35.5126 129.294 36.4525C128.824 37.3761 128.152 38.1053 127.277 38.6401C126.402 39.1586 125.381 39.4179 124.214 39.4179C123.112 39.4179 122.156 39.1505 121.346 38.6158C120.552 38.081 119.944 37.3437 119.523 36.4039C119.102 35.4478 118.891 34.3621 118.891 33.1468C118.907 31.9801 119.142 30.9349 119.596 30.0113C120.05 29.0714 120.698 28.3341 121.54 27.7994C122.399 27.2646 123.396 26.9973 124.53 26.9973C126.264 26.9973 127.609 27.5563 128.565 28.6744C129.521 29.7763 129.999 31.3076 129.999 33.2683ZM124.384 38.1539C125.648 38.1539 126.637 37.7002 127.35 36.7928C128.079 35.8853 128.451 34.7186 128.468 33.2926C128.468 31.7856 128.127 30.5703 127.447 29.6467C126.766 28.723 125.786 28.2612 124.506 28.2612C123.242 28.2612 122.245 28.7149 121.516 29.6224C120.803 30.5298 120.438 31.6965 120.422 33.1225C120.422 34.6295 120.762 35.8448 121.443 36.7685C122.124 37.6921 123.104 38.1539 124.384 38.1539Z" fill="#151516"/>
<rect width="63.4082" height="63.4082" rx="10" fill="url(#paint0_linear)"/>
<path d="M8.53957 38.045L10.2653 33.3539H17.2413L19.0886 38.2152L20.9845 37.8992L14.6405 21.5166H12.7932L6.66797 38.045H8.53957ZM13.6925 24.0445L16.6822 31.7982H10.8001L13.6925 24.0445Z" fill="white"/>
<path d="M27.5807 25.9404C29.3307 25.9404 30.7 26.5156 31.6885 27.6661C32.6931 28.8004 33.1955 30.3074 33.1955 32.1871C33.1955 33.3863 32.9605 34.4558 32.4906 35.3956C32.0368 36.3193 31.3806 37.0484 30.5217 37.5832C29.6791 38.1017 28.6826 38.361 27.532 38.361C26.6732 38.361 25.7739 38.0612 24.834 37.4617V43.1008L22.9138 43.3681V26.2564H24.0562L24.4694 27.0828C24.9556 26.7263 25.4741 26.4508 26.025 26.2564C26.576 26.0457 27.0945 25.9404 27.5807 25.9404ZM27.5807 36.7325C28.7474 36.7325 29.6467 36.3111 30.2787 35.4685C30.9106 34.6259 31.2347 33.5402 31.2509 32.2115C31.2509 30.8179 30.935 29.6998 30.303 28.8572C29.6872 27.9983 28.7879 27.5689 27.605 27.5689C27.0216 27.5689 26.5112 27.658 26.0737 27.8363C25.6361 28.0145 25.2229 28.29 24.834 28.6627V35.6873C25.2229 36.0276 25.6361 36.2868 26.0737 36.4651C26.5112 36.6433 27.0135 36.7325 27.5807 36.7325Z" fill="white"/>
<path d="M40.3511 25.9404C42.1011 25.9404 43.4704 26.5156 44.4589 27.6661C45.4635 28.8004 45.9659 30.3074 45.9659 32.1871C45.9659 33.3863 45.7309 34.4558 45.261 35.3956C44.8072 36.3193 44.151 37.0484 43.2921 37.5832C42.4495 38.1017 41.453 38.361 40.3024 38.361C39.4436 38.361 38.5443 38.0612 37.6044 37.4617V43.1008L35.6842 43.3681V26.2564H36.8266L37.2398 27.0828C37.726 26.7263 38.2445 26.4508 38.7954 26.2564C39.3464 26.0457 39.8649 25.9404 40.3511 25.9404ZM40.3511 36.7325C41.5178 36.7325 42.4171 36.3111 43.0491 35.4685C43.681 34.6259 44.0051 33.5402 44.0213 32.2115C44.0213 30.8179 43.7054 29.6998 43.0734 28.8572C42.4576 27.9983 41.5583 27.5689 40.3754 27.5689C39.792 27.5689 39.2816 27.658 38.8441 27.8363C38.4065 28.0145 37.9933 28.29 37.6044 28.6627V35.6873C37.9933 36.0276 38.4065 36.2868 38.8441 36.4651C39.2816 36.6433 39.7839 36.7325 40.3511 36.7325Z" fill="white"/>
<path d="M47.7011 37.3644C48.1386 37.6723 48.7382 37.9154 49.4998 38.0936C50.2614 38.2719 50.9177 38.361 51.4686 38.361C52.9918 38.361 54.1585 38.0612 54.9687 37.4617C55.7952 36.8621 56.2084 36.0195 56.2084 34.9338C56.2084 33.4106 54.8877 32.1628 52.2464 31.1906C51.3714 30.8989 50.6989 30.5991 50.229 30.2912C49.7591 29.9834 49.516 29.6188 49.4998 29.1974C49.4998 28.6951 49.7267 28.29 50.1804 27.9821C50.6503 27.658 51.2499 27.496 51.979 27.496C52.5786 27.496 53.1133 27.5689 53.5833 27.7148C54.0532 27.8606 54.5555 28.055 55.0903 28.2981L55.6979 26.9856C55.2766 26.6777 54.6933 26.4265 53.9479 26.2321C53.2187 26.0376 52.5786 25.9404 52.0277 25.9404C50.6665 25.9404 49.5889 26.2402 48.7949 26.8397C48.0171 27.4231 47.6282 28.2333 47.6282 29.2704C47.6282 30.1292 47.9847 30.8341 48.6977 31.385C49.4107 31.936 50.3343 32.3978 51.4686 32.7705C53.4131 33.4187 54.3854 34.1803 54.3854 35.0553C54.3854 35.6063 54.1261 36.0357 53.6076 36.3436C53.089 36.6514 52.3842 36.8054 51.4929 36.8054C50.472 36.8054 49.4107 36.5299 48.3088 35.979L47.7011 37.3644Z" fill="white"/>
<defs>
<linearGradient id="paint0_linear" x1="31.7041" y1="0" x2="31.7041" y2="63.4082" gradientUnits="userSpaceOnUse">
<stop stop-color="#FC2379"/>
<stop offset="1" stop-color="#FAAD27"/>
</linearGradient>
</defs>
</svg>
