<svg width="86" height="64" viewBox="0 0 86 64" fill="none" xmlns="http://www.w3.org/2000/svg">
<path d="M12.9842 24.9999L13.6198 23.2359H16.5821L17.2417 25.1199L19.0886 24.9039L15.9944 16.8399H14.2315L11.1133 24.9999H12.9842ZM15.071 19.2159L16.0304 21.7479H14.1475L15.071 19.2159Z" fill="#151516"/>
<path d="M27.8864 22.3959C28.494 22.3959 29.0537 22.2959 29.5654 22.0959C30.0851 21.8879 30.5009 21.5759 30.8127 21.1599C31.1245 20.7439 31.2804 20.2319 31.2804 19.6239C31.2804 19.0079 31.1325 18.4919 30.8367 18.0759C30.5488 17.6599 30.1571 17.3519 29.6614 17.1519C29.1656 16.9439 28.61 16.8399 27.9943 16.8399H24.9841V24.9999H26.855V22.3959H27.8864ZM27.9344 18.3519C28.3741 18.3519 28.7139 18.4639 28.9538 18.6879C29.2016 18.9119 29.3255 19.2399 29.3255 19.6719C29.3176 20.0479 29.1856 20.3479 28.9298 20.5719C28.6819 20.7879 28.3581 20.8959 27.9583 20.8959H26.855V18.3519H27.9344Z" fill="#151516"/>
<path d="M40.2378 22.3959C40.8455 22.3959 41.4051 22.2959 41.9168 22.0959C42.4365 21.8879 42.8523 21.5759 43.1641 21.1599C43.4759 20.7439 43.6318 20.2319 43.6318 19.6239C43.6318 19.0079 43.4839 18.4919 43.1881 18.0759C42.9003 17.6599 42.5085 17.3519 42.0128 17.1519C41.5171 16.9439 40.9614 16.8399 40.3457 16.8399H37.3355V24.9999H39.2064V22.3959H40.2378ZM40.2858 18.3519C40.7255 18.3519 41.0653 18.4639 41.3052 18.6879C41.553 18.9119 41.677 19.2399 41.677 19.6719C41.669 20.0479 41.5371 20.3479 41.2812 20.5719C41.0333 20.7879 40.7095 20.8959 40.3098 20.8959H39.2064V18.3519H40.2858Z" fill="#151516"/>
<path d="M49.1832 24.4839C49.471 24.6599 49.8708 24.8159 50.3825 24.9519C50.9022 25.0879 51.3499 25.1559 51.7257 25.1559C52.3734 25.1559 52.933 25.0559 53.4048 24.8559C53.8845 24.6559 54.2483 24.3799 54.4961 24.0279C54.752 23.6759 54.8799 23.2759 54.8799 22.8279C54.8799 22.4119 54.764 22.0439 54.5321 21.7239C54.3002 21.3959 54.0324 21.1279 53.7286 20.9199C53.4247 20.7039 52.985 20.4279 52.4093 20.0919C52.2734 20.0039 52.1415 19.9319 52.0136 19.8759C51.6698 19.6919 51.4179 19.5359 51.258 19.4079C51.1061 19.2719 51.0301 19.1159 51.0301 18.9399C51.0301 18.7239 51.1221 18.5559 51.306 18.4359C51.4979 18.3079 51.7417 18.2439 52.0375 18.2439C52.3254 18.2439 52.5932 18.2759 52.8411 18.3399C53.0889 18.4039 53.4048 18.5159 53.7885 18.6759L54.3642 17.3079C54.0444 17.1159 53.6726 16.9639 53.2488 16.8519C52.8251 16.7319 52.4133 16.6719 52.0136 16.6719C51.4219 16.6719 50.9062 16.7719 50.4665 16.9719C50.0267 17.1639 49.6869 17.4319 49.4471 17.7759C49.2152 18.1119 49.0953 18.4959 49.0873 18.9279C49.0873 19.3359 49.2032 19.7039 49.4351 20.0319C49.6749 20.3599 49.9468 20.6319 50.2506 20.8479C50.5624 21.0639 50.9902 21.3359 51.5338 21.6639C51.6937 21.7599 51.8137 21.8279 51.8936 21.8679C52.2614 22.0839 52.5253 22.2559 52.6852 22.3839C52.8531 22.5119 52.937 22.6519 52.937 22.8039C52.937 23.0359 52.8291 23.2239 52.6132 23.3679C52.3973 23.5039 52.0895 23.5719 51.6897 23.5719C51.3939 23.5719 51.0541 23.5159 50.6703 23.4039C50.2946 23.2839 49.9787 23.1559 49.7229 23.0199L49.1832 24.4839Z" fill="#151516"/>
<path d="M11.4709 46.4842C11.7588 46.6602 12.1585 46.8162 12.6702 46.9522C13.1899 47.0882 13.6377 47.1562 14.0135 47.1562C14.6611 47.1562 15.2208 47.0562 15.6925 46.8562C16.1722 46.6562 16.536 46.3802 16.7839 46.0282C17.0397 45.6762 17.1676 45.2762 17.1676 44.8282C17.1676 44.4122 17.0517 44.0442 16.8198 43.7242C16.588 43.3962 16.3201 43.1282 16.0163 42.9202C15.7125 42.7042 15.2727 42.4282 14.6971 42.0922C14.5612 42.0042 14.4292 41.9322 14.3013 41.8762C13.9575 41.6922 13.7056 41.5362 13.5457 41.4082C13.3938 41.2722 13.3179 41.1162 13.3179 40.9402C13.3179 40.7242 13.4098 40.5562 13.5937 40.4362C13.7856 40.3082 14.0295 40.2442 14.3253 40.2442C14.6131 40.2442 14.881 40.2762 15.1288 40.3402C15.3767 40.4042 15.6925 40.5162 16.0763 40.6762L16.6519 39.3082C16.3321 39.1162 15.9603 38.9642 15.5366 38.8522C15.1128 38.7322 14.7011 38.6722 14.3013 38.6722C13.7096 38.6722 13.1939 38.7722 12.7542 38.9722C12.3145 39.1642 11.9747 39.4322 11.7348 39.7762C11.5029 40.1122 11.383 40.4962 11.375 40.9282C11.375 41.3362 11.4909 41.7042 11.7228 42.0322C11.9627 42.3602 12.2345 42.6322 12.5383 42.8482C12.8501 43.0642 13.2779 43.3362 13.8216 43.6642C13.9815 43.7602 14.1014 43.8282 14.1814 43.8682C14.5492 44.0842 14.813 44.2562 14.9729 44.3842C15.1408 44.5122 15.2248 44.6522 15.2248 44.8042C15.2248 45.0362 15.1168 45.2242 14.901 45.3682C14.6851 45.5042 14.3773 45.5722 13.9775 45.5722C13.6817 45.5722 13.3419 45.5162 12.9581 45.4042C12.5823 45.2842 12.2665 45.1562 12.0106 45.0202L11.4709 46.4842Z" fill="#151516"/>
<path d="M22.3499 40.3162H24.7845V47.0002H26.6674V40.3162H29.3659L29.138 38.8402H22.3499V40.3162Z" fill="#151516"/>
<path d="M35.1641 43.9522C35.1641 44.6002 35.308 45.1642 35.5959 45.6442C35.8837 46.1242 36.2915 46.4962 36.8192 46.7602C37.3549 47.0242 37.9705 47.1562 38.6661 47.1562C39.3617 47.1562 39.9733 47.0242 40.501 46.7602C41.0367 46.4962 41.4485 46.1242 41.7363 45.6442C42.0321 45.1642 42.18 44.6002 42.18 43.9522V38.8402H40.2971V43.8442C40.2971 44.4122 40.1492 44.8482 39.8534 45.1522C39.5576 45.4482 39.1618 45.5962 38.6661 45.5962C38.1704 45.5962 37.7746 45.4482 37.4788 45.1522C37.1829 44.8562 37.035 44.4202 37.035 43.8442V38.8402H35.1521L35.1641 43.9522Z" fill="#151516"/>
<path d="M52.2118 47.0002C52.9874 47.0002 53.663 46.8322 54.2387 46.4962C54.8143 46.1602 55.2581 45.6842 55.5699 45.0682C55.8817 44.4442 56.0376 43.7122 56.0376 42.8722C56.0376 42.0802 55.8937 41.3842 55.6059 40.7842C55.318 40.1762 54.8863 39.7002 54.3106 39.3562C53.743 39.0122 53.0514 38.8402 52.2358 38.8402H48.8298V47.0002H52.2118ZM52.2118 40.3642C52.8275 40.3642 53.2952 40.5882 53.615 41.0362C53.9348 41.4842 54.0948 42.0962 54.0948 42.8722C54.0948 43.7522 53.9189 44.4082 53.5671 44.8402C53.2153 45.2722 52.7355 45.4882 52.1279 45.4882H50.7007V40.3642H52.2118Z" fill="#151516"/>
<path d="M62.2002 38.8402V47.0002H64.0711V38.8402H62.2002Z" fill="#151516"/>
<path d="M74.3646 38.6602C73.565 38.6682 72.8535 38.8562 72.2298 39.2242C71.6062 39.5922 71.1185 40.1002 70.7667 40.7482C70.4229 41.3962 70.251 42.1322 70.251 42.9562C70.251 43.7402 70.4149 44.4522 70.7427 45.0922C71.0785 45.7322 71.5542 46.2402 72.1699 46.6162C72.7935 46.9842 73.5251 47.1682 74.3646 47.1682C75.1641 47.1602 75.8757 46.9762 76.4993 46.6162C77.123 46.2482 77.6067 45.7402 77.9505 45.0922C78.3023 44.4442 78.4782 43.7042 78.4782 42.8722C78.4782 42.0882 78.3143 41.3762 77.9865 40.7362C77.6587 40.0962 77.1829 39.5922 76.5593 39.2242C75.9437 38.8482 75.2121 38.6602 74.3646 38.6602ZM72.1938 42.9442C72.1938 42.4082 72.2938 41.9362 72.4937 41.5282C72.6935 41.1122 72.9574 40.7922 73.2852 40.5682C73.621 40.3442 73.9888 40.2322 74.3886 40.2322C74.8203 40.2322 75.1961 40.3482 75.5159 40.5802C75.8437 40.8042 76.0956 41.1162 76.2715 41.5162C76.4474 41.9162 76.5353 42.3682 76.5353 42.8722C76.5353 43.4642 76.4394 43.9642 76.2475 44.3722C76.0556 44.7802 75.7917 45.0882 75.4559 45.2962C75.1281 45.4962 74.7603 45.5962 74.3526 45.5962C73.689 45.5962 73.1613 45.3522 72.7695 44.8642C72.3857 44.3682 72.1938 43.7282 72.1938 42.9442Z" fill="#151516"/>
<path d="M85.0144 47.0002C85.2942 47.0002 85.5261 46.9042 85.71 46.7122C85.9019 46.5202 85.9978 46.2882 85.9978 46.0162C85.9978 45.7362 85.9019 45.5002 85.71 45.3082C85.5261 45.1162 85.2942 45.0202 85.0144 45.0202C84.7346 45.0202 84.4987 45.1162 84.3068 45.3082C84.1149 45.5002 84.019 45.7362 84.019 46.0162C84.019 46.2882 84.1149 46.5202 84.3068 46.7122C84.4987 46.9042 84.7346 47.0002 85.0144 47.0002Z" fill="#151516"/>
<path fill-rule="evenodd" clip-rule="evenodd" d="M1.99884 2H61.964V25H63.9629V2V0H61.964H1.99884H0V2V62V64H1.99884H61.964H63.9629V62V53H61.964V62H1.99884V2Z" fill="black"/>
</svg>
