<svg width="37" height="54" viewBox="0 0 37 54" fill="none" xmlns="http://www.w3.org/2000/svg">
<path d="M9.25206 53.9999C14.357 53.9999 18.5002 49.9679 18.5002 44.9999V35.9999H9.25206C4.14708 35.9999 0.00390625 40.0319 0.00390625 44.9999C0.00390625 49.9679 4.14708 53.9999 9.25206 53.9999Z" fill="#0ACF83"/>
<path d="M0.00390625 26.9998C0.00390625 22.0318 4.14708 17.9998 9.25206 17.9998H18.5002V35.9998H9.25206C4.14708 35.9998 0.00390625 31.9678 0.00390625 26.9998Z" fill="#A259FF"/>
<path d="M0.00390625 9.00006C0.00390625 4.03206 4.14708 6.10352e-05 9.25206 6.10352e-05H18.5002V18.0001H9.25206C4.14708 18.0001 0.00390625 13.9681 0.00390625 9.00006Z" fill="#F24E1E"/>
<path d="M18.5 6.10352e-05H27.7481C32.8531 6.10352e-05 36.9963 4.03206 36.9963 9.00006C36.9963 13.9681 32.8531 18.0001 27.7481 18.0001H18.5V6.10352e-05Z" fill="#FF7262"/>
<path d="M36.9963 26.9998C36.9963 31.9678 32.8531 35.9998 27.7481 35.9998C22.6432 35.9998 18.5 31.9678 18.5 26.9998C18.5 22.0318 22.6432 17.9998 27.7481 17.9998C32.8531 17.9998 36.9963 22.0318 36.9963 26.9998Z" fill="#1ABCFE"/>
</svg>
