<svg width="80" height="80" viewBox="0 0 80 80" fill="none" xmlns="http://www.w3.org/2000/svg">
<rect width="80" height="80" rx="20" fill="#00C219"/>
<path d="M20.08 34.8L16.32 41.696V46H13.76V41.696L10 34.8H12.912L15.04 39.12L17.168 34.8H20.08ZM29.7133 44.544C28.5826 45.664 27.2066 46.224 25.5853 46.224C23.9639 46.224 22.5879 45.664 21.4573 44.544C20.3266 43.424 19.7613 42.0427 19.7613 40.4C19.7613 38.7573 20.3266 37.376 21.4573 36.256C22.5879 35.136 23.9639 34.576 25.5853 34.576C27.2066 34.576 28.5826 35.136 29.7133 36.256C30.8439 37.376 31.4093 38.7573 31.4093 40.4C31.4093 42.0427 30.8439 43.424 29.7133 44.544ZM23.2493 42.8C23.8786 43.4187 24.6573 43.728 25.5853 43.728C26.5133 43.728 27.2866 43.4187 27.9053 42.8C28.5346 42.1813 28.8493 41.3813 28.8493 40.4C28.8493 39.4187 28.5346 38.6187 27.9053 38C27.2866 37.3813 26.5133 37.072 25.5853 37.072C24.6573 37.072 23.8786 37.3813 23.2493 38C22.6306 38.6187 22.3213 39.4187 22.3213 40.4C22.3213 41.3813 22.6306 42.1813 23.2493 42.8ZM40.1165 45.184C39.3058 45.8773 38.2712 46.224 37.0125 46.224C35.7538 46.224 34.7192 45.8773 33.9085 45.184C33.0978 44.4907 32.6925 43.5573 32.6925 42.384V34.8H35.2525V42.16C35.2525 43.2053 35.8392 43.728 37.0125 43.728C38.1858 43.728 38.7725 43.2053 38.7725 42.16V34.8H41.3325V42.384C41.3325 43.5573 40.9272 44.4907 40.1165 45.184ZM49.4188 34.8H51.9788V46H50.0588L45.7388 39.92V46H43.1788V34.8H45.0988L49.4188 40.88V34.8ZM55.9615 42.96C56.2388 43.7067 56.8788 44.08 57.8815 44.08C58.5322 44.08 59.0442 43.8773 59.4175 43.472L61.3375 44.576C60.5482 45.6747 59.3855 46.224 57.8495 46.224C56.5055 46.224 55.4282 45.824 54.6175 45.024C53.8175 44.224 53.4175 43.216 53.4175 42C53.4175 40.7947 53.8122 39.792 54.6015 38.992C55.4015 38.1813 56.4255 37.776 57.6735 37.776C58.8362 37.776 59.8015 38.1813 60.5695 38.992C61.3482 39.792 61.7375 40.7947 61.7375 42C61.7375 42.3413 61.7055 42.6613 61.6415 42.96H55.9615ZM55.9135 41.168H59.3535C59.1188 40.3253 58.5535 39.904 57.6575 39.904C56.7295 39.904 56.1482 40.3253 55.9135 41.168ZM63.0988 46V34.32H65.4988V46H63.0988ZM67.255 46V34.32H69.655V46H67.255Z" fill="#FBFBFD"/>
</svg>
