<svg width="80" height="80" viewBox="0 0 80 80" fill="none" xmlns="http://www.w3.org/2000/svg">
<rect width="80" height="80" rx="20" fill="#50C46A"/>
<path fill-rule="evenodd" clip-rule="evenodd" d="M0 40V60C0 71.0457 8.95431 80 20 80H40H60C71.0457 80 80 71.0457 80 60V40V20C80 8.95431 71.0457 0 60 0H40H20C8.95431 0 0 8.95431 0 20V40ZM40.3906 24.247V29.9966C40.3906 30.3814 40.0911 30.6998 39.707 30.7232V30.7232C39.3311 30.7461 38.9649 30.7887 38.8934 30.8179C38.733 30.8833 38.8539 31.4905 37.5574 24.1016C36.6556 18.962 36.5319 18.1576 36.6367 18.116C36.7033 18.0896 37.127 18.0251 37.5781 17.9727C38.0293 17.9202 38.4512 17.8668 38.5156 17.854C38.5801 17.8411 39.0284 17.8266 39.5117 17.8216V17.8216C39.9957 17.8166 40.3906 18.2075 40.3906 18.6915V24.247ZM44.0579 18.2447C45.1266 18.5036 46.5625 18.9828 46.5625 19.0805C46.5625 19.1877 42.4133 31.0425 42.3533 31.1067C42.3266 31.1353 42.0059 31.057 41.6406 30.9326C41.2754 30.8082 40.9123 30.7057 40.8337 30.7048C40.7194 30.7034 40.6995 30.66 40.7345 30.4883C40.7715 30.3067 42.5435 20.1653 42.8162 18.5742C42.9237 17.9473 42.8791 17.9591 44.0579 18.2447ZM35.8984 23.9607C36.8867 26.7827 37.8403 29.5064 38.0175 30.0134L38.1814 30.4824C38.2711 30.7389 38.1507 31.0216 37.9036 31.1347V31.1347C37.6637 31.2445 37.3495 31.4244 37.2052 31.5345C37.0609 31.6445 36.933 31.7222 36.9209 31.7071C36.9088 31.692 35.5343 29.1345 33.8665 26.0238C31.0292 20.7321 30.8433 20.3613 30.9779 20.2628C31.3779 19.9703 33.792 18.8355 34.0234 18.8312C34.0664 18.8305 34.9102 21.1387 35.8984 23.9607ZM50.1953 21.1809C51.3064 22.0265 51.2968 22.0165 51.182 22.2004C51.1276 22.2875 49.7427 24.1747 48.1045 26.3942C46.4663 28.6138 44.832 30.834 44.4726 31.3281V31.3281C44.4145 31.4079 44.525 31.5011 44.5939 31.4303L44.6245 31.3989C45.0673 30.9437 47.0117 28.912 48.9453 26.8841L52.0848 23.5916C52.2888 23.3777 52.6308 23.3798 52.8321 23.5963V23.5963C53.3183 24.1191 54.2188 25.2741 54.2188 25.3749C54.2188 25.4184 53.6123 25.9616 52.8711 26.582C49.1814 29.6706 46.9026 31.5887 46.7969 31.6948C46.6692 31.8229 48.5078 30.6386 49.8828 29.707C50.3555 29.3868 51.6784 28.498 52.8226 27.732L54.1509 26.8428C54.5546 26.5725 55.1034 26.7076 55.3355 27.1345V27.1345C55.8035 27.9949 56.0385 28.5188 55.982 28.5753C55.9623 28.595 55.6542 28.758 55.2973 28.9376C54.368 29.4053 48.9605 32.3458 48.8672 32.4341C48.772 32.5244 48.5728 32.6094 52.8125 30.7493L55.9995 29.351C56.1591 29.281 56.3453 29.3543 56.4143 29.5144V29.5144C56.665 30.0958 56.9727 31.2677 56.8879 31.3182C56.8426 31.3452 55.646 31.7712 54.2288 32.2649C52.8116 32.7586 51.6629 33.1733 51.676 33.1864C51.6891 33.1995 52.8782 32.8922 54.3185 32.5035C55.7588 32.1148 56.9714 31.7969 57.0133 31.7969C57.0802 31.7969 57.2595 32.9209 57.2927 33.5477V33.5477C57.2996 33.6782 57.2093 33.7938 57.0811 33.8188L55.2116 34.1826C54.0604 34.4066 53.0937 34.6147 53.0633 34.645C53.033 34.6754 53.0959 34.6798 53.2033 34.655C53.4073 34.6077 57.0942 34.1406 57.2632 34.1406C57.3366 34.1406 57.3534 34.3673 57.3324 35.0716C57.3172 35.5837 57.2848 36.0225 57.2605 36.0468C57.2362 36.0711 56.5155 36.1305 55.6589 36.1788C53.4088 36.3058 53.327 36.3909 55.4473 36.3992L57.0043 36.4053C57.1393 36.4058 57.2416 36.527 57.2195 36.6602V36.6602C57.1962 36.7998 57.1239 37.1711 57.0587 37.4852C56.9436 38.0408 56.9346 38.0554 56.7319 38.0163C56.6173 37.9942 56.0312 37.9581 55.4297 37.9362L54.3359 37.8962L55.5859 38.0605C56.2734 38.1509 56.847 38.234 56.8606 38.2452C56.9178 38.2923 56.2963 40.0171 56.2102 40.0502C56.1584 40.0701 55.3691 39.9415 54.4565 39.7645C53.5438 39.5874 52.7833 39.4563 52.7665 39.4731C52.7497 39.4899 53.4938 39.709 54.4201 39.9598L55.9032 40.3616C56.0149 40.3919 56.0818 40.506 56.0537 40.6182V40.6182C56.0149 40.7729 55.4301 42.1192 55.3443 42.2512C55.3355 42.2648 54.2474 41.9036 52.9264 41.4486C51.6054 40.9936 50.5155 40.6309 50.5044 40.6427C50.4934 40.6545 51.5091 41.1179 52.7616 41.6725C54.0142 42.2272 55.0518 42.6911 55.0673 42.7034C55.0896 42.7211 54.1809 44.4954 54.0986 44.595C54.0873 44.6086 52.7123 43.8748 51.043 42.9644C49.3737 42.0539 47.9727 41.2905 47.9297 41.268C47.6331 41.1126 48.2881 41.5706 50.1953 42.8523C51.3984 43.6609 52.6722 44.5312 53.0258 44.7864C53.6173 45.2131 53.6616 45.2638 53.5795 45.4181C53.5305 45.5105 53.2456 45.9836 52.9466 46.4696L52.5201 47.1629C52.4591 47.262 52.3233 47.2817 52.2366 47.204V47.204C51.9769 46.9709 45.2097 41.3895 45.0781 41.2999C45.0137 41.2559 45.1938 41.4641 45.4783 41.7623C45.7628 42.0606 47.2833 43.6523 48.8572 45.2992C50.431 46.9463 51.7188 48.3242 51.7188 48.3614C51.7188 48.4252 50.6655 49.9805 50.2539 50.5245V50.5245C50.1591 50.6498 49.9704 50.6488 49.877 50.5224L48.2896 48.376C45.2558 44.2737 43.2639 41.6065 43.1429 41.4844C43.0791 41.4199 43.1871 41.666 43.3831 42.0312C43.5791 42.3965 44.9025 44.8559 46.324 47.4965C47.7455 50.1371 48.8993 52.3246 48.8879 52.3577C48.8765 52.3907 48.3079 53.1075 47.6244 53.9505C46.7714 55.0025 46.3633 55.4504 46.3233 55.3784C46.2912 55.3206 45.1319 52.0391 43.7469 48.0859C42.3619 44.1328 41.2139 40.8592 41.1959 40.8112C41.1777 40.7625 41.3462 40.6645 41.5777 40.5894C42.7352 40.2135 43.9204 39.2157 44.4768 38.1484C45.4879 36.2091 45.1976 33.949 43.7363 32.3844C43.4406 32.0677 43.0442 31.7063 42.8553 31.5812V31.5812C42.6619 31.4531 42.6004 31.1973 42.7145 30.9952L43.2364 30.0714C43.6348 29.3661 44.5055 27.7695 45.1713 26.5234C45.837 25.2773 46.8866 23.3209 47.5037 22.1758L48.382 20.5459C48.5136 20.3017 48.8249 20.2207 49.0589 20.3698V20.3698C49.2973 20.5216 49.8086 20.8866 50.1953 21.1809ZM30.6294 23.3391C31.3789 24.3593 33.0908 26.6668 34.4335 28.4669L36.4077 31.1134C36.6776 31.4753 36.6477 31.979 36.3367 32.3063V32.3063C35.4316 33.2592 34.993 34.3634 34.9873 35.7031C34.9814 37.1381 35.4389 38.2563 36.4428 39.2604C37.5498 40.3675 38.7029 40.8248 40.2351 40.7645V40.7645C40.7048 40.7459 41.1155 41.0785 41.195 41.5418L41.5127 43.3934C41.7638 44.8571 42.4555 48.7954 43.0498 52.1451C43.6441 55.4948 44.1063 58.2773 44.0769 58.3286C44.0475 58.3798 43.5953 58.9458 43.072 59.5862C41.5193 61.4867 40.624 62.2352 39.978 62.1727V62.1727C39.8352 62.1589 39.7262 62.0393 39.7256 61.8959L39.6871 51.5625C39.6654 45.7402 39.639 41.0241 39.6285 41.0821C39.618 41.1402 38.9059 45.198 38.0462 50.0998C37.1864 55.0014 36.4687 59.0261 36.4512 59.0435C36.4127 59.082 34.7252 57.1516 33.7888 55.9978V55.9978C33.366 55.4769 33.2436 54.774 33.4654 54.1408L35.5103 48.3025C36.8313 44.531 37.9282 41.3926 37.9477 41.3281C38.0593 40.9608 36.1869 44.2861 34.8024 46.9141C34.2139 48.0313 33.407 49.543 33.0094 50.2734C32.6117 51.0039 32.1147 51.9261 31.9049 52.3228C31.6951 52.7195 31.5059 53.044 31.4844 53.044C31.4187 53.0438 29.5052 50.3633 29.5052 50.2715C29.5052 50.2242 30.9808 48.1838 32.7843 45.7373C34.5877 43.2908 36.0911 41.2363 36.1251 41.1719C36.196 41.0371 36.2145 41.018 33.0538 44.3359C29.5502 48.0138 28.5889 49.0059 28.5602 48.974C28.5334 48.9443 27.6192 47.5295 27.3001 47.0239V47.0239C27.1961 46.8592 27.2302 46.6429 27.3799 46.5183L27.7584 46.203C29.3077 44.9122 32.7871 41.9723 33.004 41.7707C33.3232 41.4738 33.1713 41.558 32.1094 42.2666C31.6152 42.5962 30.1759 43.5567 28.9107 44.4009L27.5613 45.3015C27.0449 45.6461 26.345 45.4862 26.0295 44.9516V44.9516C25.5701 44.1732 25.471 43.9525 25.5562 43.8975C25.6155 43.8592 26.9042 43.1551 28.42 42.3327C29.9358 41.5102 31.1645 40.826 31.1507 40.8121C31.1368 40.7982 29.7998 41.3677 28.1795 42.0775C26.5592 42.7873 25.1945 43.3439 25.1467 43.3144C25.0989 43.2848 24.8716 42.8705 24.6416 42.3937V42.3937C24.4189 41.9318 24.6484 41.379 25.1328 41.2108L25.6078 41.0458C27.6911 40.3222 28.3298 40.0875 28.2293 40.0826C28.1793 40.0802 27.2316 40.3234 26.1234 40.623C24.61 41.0323 24.0933 41.1441 24.0478 41.0723C23.9763 40.9593 23.5385 39.767 23.4737 39.509C23.4298 39.3335 23.4621 39.3239 25.2291 38.987C26.2192 38.7984 27.0161 38.6307 26.9999 38.6145C26.9748 38.5894 24.4404 38.8972 23.5815 39.0297V39.0297C23.4204 39.0545 23.2673 38.951 23.2304 38.7923L23.0846 38.1653C22.9684 37.6657 22.8895 37.2408 22.9091 37.2211C22.9288 37.2014 23.7102 37.1348 24.6456 37.0731C25.5809 37.0115 26.3656 36.9416 26.3893 36.918C26.413 36.8944 25.6209 36.875 24.6293 36.875H23.1224C22.9523 36.875 22.8077 36.7504 22.7827 36.582V36.582C22.7588 36.4209 22.7159 36.0462 22.6873 35.7494V35.7494C22.66 35.4657 22.8923 35.2247 23.1767 35.2413L23.5248 35.2617C24.0138 35.2903 24.7305 35.3359 25.1172 35.3628C25.5039 35.3898 25.8027 35.393 25.7812 35.3699C25.7598 35.3469 25.127 35.2531 24.375 35.1615C23.623 35.0698 22.9288 34.9778 22.832 34.9569C22.6642 34.9206 22.6562 34.8841 22.6562 34.1489C22.6562 33.7254 22.677 33.2755 22.7022 33.1491V33.1491C22.7276 33.022 22.851 32.9394 22.9782 32.9643L25.0612 33.3715C26.3334 33.6202 27.3866 33.8114 27.4016 33.7963C27.4166 33.7813 27.1548 33.6948 26.8199 33.6041C24.6 33.0027 22.8769 32.5123 22.8344 32.4698C22.7826 32.418 22.9834 31.1914 23.1262 30.688V30.688C23.1704 30.5321 23.3377 30.4466 23.4899 30.5022L23.5377 30.5196C24.8038 30.9819 29.4819 32.5755 29.5049 32.5523C29.5206 32.5367 28.153 31.9146 26.4659 31.1701C24.7788 30.4255 23.386 29.8071 23.3709 29.7959C23.3262 29.763 23.6748 28.754 23.9294 28.1799C24.1073 27.7788 24.1947 27.6603 24.287 27.6957C24.3541 27.7214 26.1112 28.6735 28.1916 29.8113C30.272 30.9491 31.9841 31.87 31.9965 31.8577C32.0188 31.8354 28.6597 29.5462 26.0401 27.7984C25.2879 27.2966 24.6568 26.8703 24.6377 26.8512C24.5571 26.7706 25.9555 24.6094 26.0882 24.6094C26.1142 24.6094 26.5532 24.9658 27.0636 25.4013C28.0905 26.2777 34.8141 31.8507 35 31.9796C35.0645 32.0243 34.8329 31.7641 34.4854 31.4015C34.1379 31.0389 32.2965 29.1137 30.3934 27.1234L27.198 23.7816C27.0497 23.6265 27.0493 23.3823 27.197 23.2267V23.2267C27.636 22.7645 29.0958 21.4844 29.1841 21.4844C29.2294 21.4844 29.8798 22.3191 30.6294 23.3391Z" fill="#21323B"/>
</svg>
