<svg width="80" height="80" viewBox="0 0 80 80" fill="none" xmlns="http://www.w3.org/2000/svg">
<rect width="80" height="80" rx="20" fill="white"/>
<path d="M36.2976 50.1025L38.2973 55.7486L40.2863 50.1025H42.3929V57.8873H40.7835V55.7593L40.9439 52.0862L38.8427 57.8873H37.7412L35.6453 52.0915L35.8057 55.7593V57.8873H34.2017V50.1025H36.2976Z" fill="black"/>
<path d="M46.3548 57.9942C45.5064 57.9942 44.8149 57.734 44.2802 57.2136C43.7491 56.6932 43.4836 55.9999 43.4836 55.1338V54.9841C43.4836 54.4031 43.5959 53.8844 43.8204 53.4282C44.045 52.9684 44.3622 52.6155 44.7721 52.3695C45.1856 52.12 45.6561 51.9953 46.1837 51.9953C46.975 51.9953 47.597 52.2448 48.0497 52.7438C48.5059 53.2428 48.734 53.9504 48.734 54.8664V55.4973H45.0502C45.1001 55.8752 45.2498 56.1782 45.4993 56.4063C45.7524 56.6344 46.0714 56.7485 46.4563 56.7485C47.0516 56.7485 47.5168 56.5328 47.8518 56.1015L48.6111 56.9516C48.3794 57.2796 48.0657 57.5362 47.67 57.7216C47.2744 57.9033 46.836 57.9942 46.3548 57.9942ZM46.1783 53.2464C45.8718 53.2464 45.6223 53.3498 45.4298 53.5565C45.2409 53.7632 45.1197 54.0591 45.0662 54.444H47.2156V54.3211C47.2084 53.9789 47.1158 53.7151 46.9376 53.5298C46.7593 53.3408 46.5063 53.2464 46.1783 53.2464Z" fill="black"/>
<path d="M52.867 53.5511C52.6567 53.5226 52.4714 53.5084 52.311 53.5084C51.7264 53.5084 51.3432 53.7062 51.1614 54.1019V57.8873H49.6162V52.1022H51.0759L51.1187 52.7919C51.4288 52.2608 51.8583 51.9953 52.4072 51.9953C52.5783 51.9953 52.7387 52.0184 52.8884 52.0648L52.867 53.5511Z" fill="black"/>
<path d="M53.1825 54.9413C53.1825 54.3674 53.293 53.8559 53.514 53.4068C53.735 52.9577 54.0522 52.6101 54.4657 52.3642C54.8827 52.1182 55.3657 51.9953 55.9146 51.9953C56.6953 51.9953 57.3315 52.2341 57.8234 52.7117C58.3189 53.1894 58.5951 53.8381 58.6521 54.6579L58.6628 55.0536C58.6628 55.9411 58.4151 56.654 57.9196 57.1922C57.4242 57.7269 56.7594 57.9942 55.9253 57.9942C55.0913 57.9942 54.4247 57.7269 53.9257 57.1922C53.4302 56.6576 53.1825 55.9304 53.1825 55.0108V54.9413ZM54.7277 55.0536C54.7277 55.6025 54.831 56.0231 55.0378 56.3154C55.2445 56.6041 55.5404 56.7485 55.9253 56.7485C56.2996 56.7485 56.5919 56.6059 56.8022 56.3207C57.0125 56.032 57.1176 55.5722 57.1176 54.9413C57.1176 54.4031 57.0125 53.986 56.8022 53.6902C56.5919 53.3943 56.296 53.2464 55.9146 53.2464C55.5368 53.2464 55.2445 53.3943 55.0378 53.6902C54.831 53.9824 54.7277 54.4369 54.7277 55.0536Z" fill="black"/>
<path d="M59.3739 54.952C59.3739 54.0502 59.5753 53.3319 59.9781 52.7973C60.3845 52.2626 60.9387 51.9953 61.6409 51.9953C62.2041 51.9953 62.6693 52.2056 63.0364 52.6262V49.6748H64.587V57.8873H63.1915L63.1166 57.2724C62.7317 57.7536 62.2362 57.9942 61.6303 57.9942C60.9494 57.9942 60.4023 57.7269 59.9888 57.1922C59.5789 56.654 59.3739 55.9073 59.3739 54.952ZM60.9191 55.0643C60.9191 55.6061 61.0136 56.0213 61.2025 56.31C61.3914 56.5988 61.6659 56.7431 62.0259 56.7431C62.5035 56.7431 62.8404 56.5417 63.0364 56.1389V53.8559C62.8439 53.4531 62.5107 53.2517 62.0366 53.2517C61.2916 53.2517 60.9191 53.8559 60.9191 55.0643Z" fill="black"/>
<path d="M33.897 63.3178C33.897 63.1021 33.8212 62.9319 33.6697 62.8071C33.5183 62.6806 33.2411 62.5612 32.8383 62.4489C32.4355 62.3349 32.1415 62.211 31.9561 62.0773C31.6924 61.8884 31.5605 61.6407 31.5605 61.3341C31.5605 61.0365 31.6826 60.795 31.9267 60.6097C32.1727 60.4225 32.4863 60.329 32.8677 60.329C33.1262 60.329 33.357 60.3789 33.5601 60.4787C33.7651 60.5785 33.9237 60.7175 34.036 60.8957C34.1483 61.0739 34.2044 61.2726 34.2044 61.4919H33.8729C33.8729 61.2263 33.782 61.0133 33.6002 60.8529C33.4184 60.6908 33.1743 60.6097 32.8677 60.6097C32.5701 60.6097 32.3331 60.6765 32.1566 60.8102C31.9802 60.942 31.892 61.1149 31.892 61.3288C31.892 61.5266 31.9713 61.6879 32.1299 61.8127C32.2885 61.9374 32.5425 62.0479 32.8918 62.1442C33.2411 62.2386 33.5058 62.3375 33.6858 62.4409C33.8658 62.5425 34.0012 62.6646 34.0921 62.8071C34.183 62.9497 34.2285 63.1181 34.2285 63.3124C34.2285 63.619 34.1055 63.8649 33.8595 64.0503C33.6154 64.2356 33.2928 64.3283 32.8918 64.3283C32.6173 64.3283 32.3652 64.2793 32.1352 64.1812C31.9071 64.0832 31.7334 63.946 31.6139 63.7695C31.4963 63.5931 31.4375 63.3908 31.4375 63.1627H31.7663C31.7663 63.4372 31.8688 63.6537 32.0738 63.8123C32.2787 63.9709 32.5514 64.0503 32.8918 64.0503C33.1948 64.0503 33.4381 63.9834 33.6216 63.8497C33.8052 63.7161 33.897 63.5388 33.897 63.3178Z" fill="black"/>
<path d="M37.6958 63.0611C37.6512 63.471 37.5042 63.7847 37.2547 64.0021C37.007 64.2196 36.6764 64.3283 36.2629 64.3283C35.9742 64.3283 35.7184 64.2561 35.4956 64.1117C35.2746 63.9674 35.1035 63.7633 34.9824 63.4995C34.8612 63.234 34.7997 62.931 34.7979 62.5906V62.0853C34.7979 61.7396 34.8585 61.433 34.9797 61.1657C35.1009 60.8984 35.2746 60.6925 35.501 60.5482C35.7291 60.402 35.9911 60.329 36.2869 60.329C36.704 60.329 37.0328 60.4421 37.2734 60.6685C37.5158 60.893 37.6566 61.204 37.6958 61.6015H37.3643C37.2823 60.9403 36.9232 60.6097 36.2869 60.6097C35.9341 60.6097 35.6525 60.7415 35.4422 61.0053C35.2336 61.2691 35.1294 61.6335 35.1294 62.0987V62.5746C35.1294 63.0237 35.231 63.3819 35.4341 63.6492C35.6391 63.9166 35.9154 64.0503 36.2629 64.0503C36.6069 64.0503 36.8662 63.9683 37.0408 63.8043C37.2155 63.6386 37.3233 63.3908 37.3643 63.0611H37.6958Z" fill="black"/>
<path d="M40.5964 63.1841H38.8293L38.4283 64.2748H38.0834L39.5564 60.3824H39.8692L41.3422 64.2748H41.0001L40.5964 63.1841ZM38.9309 62.9034H40.4921L39.7115 60.7834L38.9309 62.9034Z" fill="black"/>
<path d="M44.8149 64.2748H44.4861L42.2485 60.9438V64.2748H41.917V60.3824H42.2485L44.4888 63.7161V60.3824H44.8149V64.2748Z" fill="black"/>
<path d="M49.3382 63.3178C49.3382 63.1021 49.2625 62.9319 49.111 62.8071C48.9595 62.6806 48.6824 62.5612 48.2796 62.4489C47.8768 62.3349 47.5827 62.211 47.3974 62.0773C47.1336 61.8884 47.0017 61.6407 47.0017 61.3341C47.0017 61.0365 47.1238 60.795 47.368 60.6097C47.6139 60.4225 47.9276 60.329 48.309 60.329C48.5674 60.329 48.7982 60.3789 49.0014 60.4787C49.2063 60.5785 49.3649 60.7175 49.4772 60.8957C49.5895 61.0739 49.6456 61.2726 49.6456 61.4919H49.3142C49.3142 61.2263 49.2233 61.0133 49.0415 60.8529C48.8597 60.6908 48.6155 60.6097 48.309 60.6097C48.0113 60.6097 47.7743 60.6765 47.5979 60.8102C47.4214 60.942 47.3332 61.1149 47.3332 61.3288C47.3332 61.5266 47.4125 61.6879 47.5711 61.8127C47.7298 61.9374 47.9837 62.0479 48.333 62.1442C48.6824 62.2386 48.947 62.3375 49.127 62.4409C49.307 62.5425 49.4425 62.6646 49.5334 62.8071C49.6243 62.9497 49.6697 63.1181 49.6697 63.3124C49.6697 63.619 49.5467 63.8649 49.3008 64.0503C49.0566 64.2356 48.734 64.3283 48.333 64.3283C48.0586 64.3283 47.8064 64.2793 47.5765 64.1812C47.3484 64.0832 47.1746 63.946 47.0552 63.7695C46.9376 63.5931 46.8787 63.3908 46.8787 63.1627H47.2076C47.2076 63.4372 47.31 63.6537 47.515 63.8123C47.7199 63.9709 47.9926 64.0503 48.333 64.0503C48.636 64.0503 48.8793 63.9834 49.0629 63.8497C49.2464 63.7161 49.3382 63.5388 49.3382 63.3178Z" fill="black"/>
<path d="M51.5223 62.5051L52.712 60.3824H53.0916L51.6854 62.8098V64.2748H51.3566V62.8098L49.9531 60.3824H50.3434L51.5223 62.5051Z" fill="black"/>
<path d="M55.8184 63.3178C55.8184 63.1021 55.7427 62.9319 55.5912 62.8071C55.4397 62.6806 55.1625 62.5612 54.7598 62.4489C54.357 62.3349 54.0629 62.211 53.8776 62.0773C53.6138 61.8884 53.4819 61.6407 53.4819 61.3341C53.4819 61.0365 53.604 60.795 53.8481 60.6097C54.0941 60.4225 54.4078 60.329 54.7892 60.329C55.0476 60.329 55.2784 60.3789 55.4816 60.4787C55.6865 60.5785 55.8451 60.7175 55.9574 60.8957C56.0697 61.0739 56.1258 61.2726 56.1258 61.4919H55.7943C55.7943 61.2263 55.7034 61.0133 55.5217 60.8529C55.3399 60.6908 55.0957 60.6097 54.7892 60.6097C54.4915 60.6097 54.2545 60.6765 54.0781 60.8102C53.9016 60.942 53.8134 61.1149 53.8134 61.3288C53.8134 61.5266 53.8927 61.6879 54.0513 61.8127C54.2099 61.9374 54.4639 62.0479 54.8132 62.1442C55.1625 62.2386 55.4272 62.3375 55.6072 62.4409C55.7872 62.5425 55.9227 62.6646 56.0136 62.8071C56.1044 62.9497 56.1499 63.1181 56.1499 63.3124C56.1499 63.619 56.0269 63.8649 55.781 64.0503C55.5368 64.2356 55.2142 64.3283 54.8132 64.3283C54.5388 64.3283 54.2866 64.2793 54.0567 64.1812C53.8285 64.0832 53.6548 63.946 53.5354 63.7695C53.4177 63.5931 53.3589 63.3908 53.3589 63.1627H53.6877C53.6877 63.4372 53.7902 63.6537 53.9952 63.8123C54.2001 63.9709 54.4728 64.0503 54.8132 64.0503C55.1162 64.0503 55.3595 63.9834 55.543 63.8497C55.7266 63.7161 55.8184 63.5388 55.8184 63.3178Z" fill="black"/>
<path d="M59.5023 60.6631H58.1683V64.2748H57.8394V60.6631H56.5081V60.3824H59.5023V60.6631Z" fill="black"/>
<path d="M62.2825 62.4088H60.462V63.9968H62.5552V64.2748H60.1332V60.3824H62.5419V60.6631H60.462V62.1308H62.2825V62.4088Z" fill="black"/>
<path d="M63.6861 60.3824L65.1216 63.8177L66.5626 60.3824H67.001V64.2748H66.6722V62.5799L66.6989 60.8422L65.25 64.2748H64.996L63.5524 60.8556L63.5791 62.5692V64.2748H63.2503V60.3824H63.6861Z" fill="black"/>
<path d="M21.5565 42.6068C21.701 43.3259 22.393 44.3558 22.2409 44.3558H21.9367C21.9367 44.3558 21.3516 43.7301 21.0242 43.2912C20.7681 42.9479 20.5661 42.7798 20.4159 42.3787C20.2892 42.0404 20.3472 41.8177 20.2638 41.4662C20.1922 41.1646 20.131 41.0008 20.0357 40.7058C19.8998 40.2857 19.7942 40.0603 19.6554 39.6412C19.5285 39.2578 19.4889 39.0324 19.3513 38.6527C19.2197 38.2897 19.1326 38.0908 18.9711 37.7402C18.8321 37.4386 18.5715 37.3112 18.5909 36.9798C18.6041 36.754 18.6967 36.6377 18.819 36.4475C19.0471 36.0924 19.2963 35.9848 19.6554 35.7631C20.3913 35.3089 20.9821 35.4769 21.7846 35.1548C22.1792 34.9964 22.418 34.9323 22.7732 34.6985C23.1419 34.4558 23.2442 34.1859 23.6096 33.9381C23.8078 33.8037 23.9331 33.5168 24.1419 33.6339C24.3057 33.7258 24.2674 33.9043 24.294 34.0902C24.3604 34.555 24.0828 34.7927 23.9138 35.2308C23.4258 36.4956 22.7456 37.0143 22.2409 38.2725C21.9051 39.1093 21.6862 39.5853 21.5565 40.4777C21.4369 41.3005 21.3927 41.7916 21.5565 42.6068Z" fill="black"/>
<path fill-rule="evenodd" clip-rule="evenodd" d="M23.9796 33.5399C24.0445 33.5215 24.1123 33.529 24.1809 33.5675C24.2891 33.6281 24.3294 33.7199 24.3461 33.8132C24.3541 33.8579 24.3571 33.9049 24.3598 33.9486L24.3602 33.9547C24.3628 33.9976 24.3653 34.0384 24.3711 34.0793C24.4071 34.3314 24.3488 34.5225 24.2626 34.7032C24.2317 34.768 24.1963 34.8331 24.1609 34.8983C24.1481 34.9218 24.1353 34.9453 24.1227 34.9689C24.0745 35.059 24.0271 35.1528 23.9866 35.2581C23.7393 35.8988 23.4432 36.3505 23.1489 36.7959L23.136 36.8154C22.8461 37.2539 22.5588 37.6886 22.3133 38.3007C22.279 38.3861 22.2459 38.4678 22.2141 38.5464C21.9339 39.2389 21.7486 39.6966 21.6336 40.4885C21.5145 41.3078 21.4715 41.7889 21.6329 42.5917C21.7028 42.9397 21.9069 43.3679 22.0799 43.7171C22.0941 43.7459 22.1082 43.7741 22.1219 43.8018C22.1903 43.9394 22.2512 44.0618 22.2902 44.1538C22.3132 44.2078 22.3318 44.2585 22.338 44.2982C22.3409 44.3164 22.3435 44.3455 22.3317 44.3735C22.325 44.3894 22.3133 44.4056 22.2949 44.4172C22.2769 44.4284 22.2581 44.4317 22.2427 44.4317H21.9055L21.883 44.4076L21.8829 44.4075L21.8762 44.4004L21.857 44.3796C21.8402 44.3615 21.816 44.3353 21.7859 44.3024C21.7257 44.2367 21.6421 44.1444 21.5481 44.0384C21.3607 43.8268 21.1308 43.5587 20.9651 43.3366C20.9003 43.2497 20.8377 43.1729 20.7777 43.0994C20.6088 42.8923 20.4611 42.7112 20.3465 42.4053C20.2795 42.2264 20.2616 42.0781 20.2496 41.9336C20.2479 41.9126 20.2463 41.8917 20.2447 41.8709C20.2352 41.7486 20.2259 41.6279 20.1916 41.4837C20.1354 41.2471 20.0862 41.0977 20.0202 40.8973C20.0031 40.8455 19.9849 40.7902 19.9651 40.7291C19.8978 40.5209 19.838 40.3609 19.7773 40.1998L19.7699 40.1802C19.7116 40.0254 19.6522 39.8676 19.5851 39.665C19.5287 39.4946 19.4893 39.3549 19.4515 39.2209C19.4463 39.2025 19.4412 39.1843 19.436 39.1662C19.3932 39.015 19.3495 38.8658 19.2816 38.6785C19.151 38.3182 19.0649 38.1214 18.9038 37.7719C18.8564 37.669 18.7961 37.5912 18.7335 37.5103C18.7097 37.4797 18.6856 37.4486 18.6618 37.4156C18.5768 37.2979 18.5056 37.1658 18.5168 36.9752C18.5297 36.7533 18.6154 36.6226 18.7177 36.4663C18.7305 36.4468 18.7436 36.4268 18.7568 36.4062C18.9594 36.0909 19.1827 35.9581 19.4592 35.7936C19.5101 35.7633 19.5627 35.732 19.6173 35.6983C19.998 35.4633 20.3414 35.3898 20.6847 35.3342C20.7312 35.3267 20.7776 35.3195 20.824 35.3123C21.1209 35.2663 21.4195 35.2199 21.7581 35.0841C21.8461 35.0487 21.9258 35.0183 22.0002 34.9898C22.2645 34.8888 22.4626 34.813 22.7332 34.6349C22.9089 34.5192 23.0212 34.3974 23.1383 34.2688L23.1444 34.2622C23.2597 34.1355 23.3811 34.0023 23.5688 33.875C23.6116 33.846 23.6522 33.8075 23.6944 33.7642C23.7048 33.7535 23.7155 33.7423 23.7264 33.731C23.7576 33.6984 23.7905 33.664 23.8228 33.635C23.8667 33.5955 23.9186 33.5571 23.9796 33.5399ZM21.9717 44.2796H22.1761C22.17 44.2618 22.1615 44.2397 22.1502 44.2132C22.1132 44.1258 22.0549 44.0087 21.9864 43.8709C21.9725 43.843 21.9582 43.8142 21.9436 43.7846C21.7725 43.4391 21.5583 42.9928 21.4838 42.6217C21.3175 41.7941 21.363 41.293 21.4831 40.4666C21.6009 39.656 21.7925 39.1825 22.0729 38.4899C22.1048 38.411 22.1379 38.3294 22.1721 38.244C22.4234 37.6176 22.718 37.172 23.0073 36.7342L23.022 36.7121C23.3159 36.2673 23.6039 35.8274 23.8447 35.2033C23.8886 35.0895 23.9393 34.9893 23.9886 34.8971C24.0024 34.8715 24.0158 34.8466 24.029 34.8224C24.0638 34.7584 24.0963 34.6986 24.1254 34.6376C24.2036 34.4737 24.2509 34.3136 24.2205 34.1008C24.2138 34.0536 24.211 34.0071 24.2084 33.9655L24.208 33.9579C24.2052 33.913 24.2026 33.8747 24.1964 33.8401C24.1847 33.7747 24.1622 33.7314 24.1065 33.7001C24.0708 33.6801 24.0446 33.6795 24.0211 33.6862C23.9936 33.6939 23.9626 33.7138 23.9244 33.7481C23.8967 33.773 23.8698 33.8011 23.84 33.8322C23.8283 33.8445 23.8161 33.8572 23.8033 33.8704C23.7597 33.915 23.7103 33.9628 23.6541 34.0009C23.4815 34.118 23.3704 34.2399 23.2542 34.3674L23.2507 34.3713C23.1331 34.5003 23.0098 34.6348 22.8168 34.7619C22.5313 34.9498 22.3159 35.0322 22.0483 35.1344C21.9752 35.1623 21.8982 35.1917 21.8148 35.2252C21.4589 35.368 21.1425 35.417 20.8457 35.4629C20.7997 35.47 20.7542 35.477 20.709 35.4843C20.3724 35.5388 20.0524 35.6084 19.6972 35.8277C19.6389 35.8637 19.5841 35.8964 19.5322 35.9273C19.258 36.091 19.0668 36.2052 18.8848 36.4885C18.8711 36.5098 18.8579 36.53 18.8453 36.5494C18.7427 36.7067 18.6791 36.8043 18.6686 36.9841C18.6604 37.1249 18.7098 37.2223 18.7851 37.3266C18.8033 37.3518 18.8238 37.3782 18.8454 37.406C18.9108 37.4904 18.9866 37.5882 19.042 37.7082C19.204 38.0599 19.2921 38.261 19.4246 38.6266C19.4943 38.8191 19.5392 38.9724 19.5824 39.1247C19.5875 39.1431 19.5927 39.1614 19.5979 39.1797C19.6357 39.3138 19.6742 39.4503 19.7295 39.6172C19.7956 39.8169 19.8541 39.9722 19.9124 40.1271L19.9196 40.1462C19.9804 40.3077 20.0413 40.4704 20.1098 40.6823C20.1291 40.7418 20.147 40.7962 20.164 40.8476C20.2304 41.0491 20.2818 41.2052 20.3396 41.4485C20.3768 41.6052 20.387 41.7382 20.3965 41.8607C20.398 41.8811 20.3996 41.9012 20.4012 41.921C20.4127 42.0603 20.4292 42.1924 20.4889 42.3519C20.5941 42.6328 20.7218 42.7894 20.885 42.9895C20.9469 43.0656 21.014 43.1479 21.087 43.2456C21.2487 43.4624 21.475 43.7266 21.662 43.9375C21.7552 44.0428 21.8383 44.1344 21.8981 44.1997C21.928 44.2324 21.952 44.2584 21.9685 44.2763L21.9717 44.2796Z" fill="black"/>
<path d="M23.9143 55.1538C23.9903 55.534 24.5226 56.7507 25.359 56.7507C26.1955 56.7507 26.0434 56.5986 26.4236 56.2184C26.8038 55.8382 26.9862 55.526 27.184 55.0018C27.3961 54.4399 27.3628 54.0795 27.4122 53.4809C27.4732 52.741 27.3501 52.3197 27.4122 51.5799C27.4726 50.8599 27.5023 50.445 27.7163 49.7549C27.9093 49.1328 27.9716 48.724 28.4007 48.2341C28.7373 47.8497 29.0018 47.6886 29.4653 47.4736C30.1474 47.1573 30.6181 47.2431 31.3663 47.1695C32.578 47.0502 33.2685 47.2389 34.4841 47.1695C35.9182 47.0876 36.7426 47.0703 38.1341 46.7132C39.5923 46.339 40.5051 46.1736 41.708 45.2684C42.7349 44.4957 43.2026 43.8766 43.8372 42.7591C44.4725 41.6403 44.5873 40.8889 44.9018 39.6413C45.3627 37.8127 45.2059 35.6111 45.5101 34.8507C45.8143 34.0903 46.1274 33.9405 46.6507 33.482C47.4998 32.7381 48.1657 32.5476 49.2361 32.1893C50.4074 31.7972 51.1481 31.9247 52.3539 31.657C53.465 31.4103 54.6351 31.2768 55.1674 30.8966C55.6997 30.5163 55.9164 30.0956 55.7757 29.5278C55.6213 28.9042 55.0189 28.8108 54.407 28.6153C53.3085 28.2644 52.6243 28.9001 51.5174 29.2236C50.3264 29.5718 49.7495 30.0401 48.5518 30.3643C47.1613 30.7406 46.3327 30.7308 44.9018 30.8966C42.9198 31.1262 41.7929 31.0853 39.807 31.2768C38.4686 31.4058 37.701 31.3809 36.3851 31.657C35.1073 31.9251 34.3773 32.0994 33.1913 32.6455C31.9418 33.2209 31.2671 33.6477 30.2257 34.5466C28.8986 35.692 28.3332 36.5528 27.4122 38.0445C26.3571 39.7532 25.9702 40.8461 25.359 42.7591C24.6412 45.0059 24.5031 46.3488 24.2184 48.6903C23.9135 51.1988 23.8382 54.7736 23.9143 55.1538Z" fill="black"/>
<path fill-rule="evenodd" clip-rule="evenodd" d="M52.3127 29.0137C52.075 29.1136 51.8215 29.2153 51.5405 29.2975C50.9698 29.4643 50.5418 29.6588 50.1131 29.8536L50.0704 29.873C49.6271 30.0744 49.1787 30.2747 48.5734 30.4385C47.542 30.7177 46.8143 30.7861 45.9317 30.869C45.6183 30.8984 45.2854 30.9297 44.9123 30.9729C43.919 31.088 43.14 31.1353 42.3618 31.1778C42.2891 31.1817 42.2163 31.1857 42.1434 31.1896C41.4366 31.2277 40.7145 31.2667 39.8161 31.3533C39.4078 31.3927 39.0537 31.4177 38.7219 31.4412C37.9598 31.4951 37.3156 31.5407 36.4025 31.7323C35.1268 31.9999 34.4032 32.1728 33.225 32.7154C31.9816 33.288 31.313 33.711 30.2772 34.605C28.959 35.7427 28.3985 36.5956 27.4787 38.0853C26.4285 39.7862 26.0438 40.8724 25.4333 42.7831C24.7549 44.9065 24.5962 46.218 24.3388 48.3451C24.3248 48.461 24.3104 48.5793 24.2957 48.7003C24.1436 49.9517 24.0487 51.4702 24.0013 52.7239C23.9776 53.3506 23.9658 53.9106 23.9647 54.3373C23.9641 54.5507 23.9662 54.7304 23.9708 54.8682C23.9755 55.0083 23.9826 55.0994 23.9906 55.1398C24.0264 55.3186 24.1739 55.7082 24.4155 56.052C24.6588 56.3981 24.9811 56.6755 25.3609 56.6755C25.7806 56.6755 25.9271 56.6358 26.0186 56.5672C26.0661 56.5316 26.1028 56.4855 26.1562 56.4164L26.1605 56.4108C26.2121 56.344 26.2756 56.2616 26.3717 56.1655C26.7428 55.7944 26.9199 55.492 27.1147 54.9758C27.2739 54.5541 27.2908 54.254 27.3128 53.8615C27.3195 53.7432 27.3266 53.6165 27.3382 53.4755C27.3682 53.1117 27.3531 52.8262 27.3377 52.5363L27.3377 52.5353C27.3223 52.2448 27.3067 51.95 27.3382 51.5744C27.3401 51.5517 27.342 51.5294 27.3438 51.5073C27.4007 50.8275 27.4356 50.41 27.6455 49.7332C27.6769 49.6322 27.7049 49.5361 27.7318 49.4439C27.8681 48.976 27.9757 48.6069 28.3453 48.1848C28.6912 47.7899 28.9657 47.6232 29.4351 47.4055C29.9459 47.1686 30.3498 47.1505 30.8159 47.1296C30.9864 47.1219 31.1653 47.1139 31.3607 47.0947C31.9723 47.0345 32.4524 47.0521 32.9293 47.0757C32.9675 47.0776 33.0056 47.0795 33.0437 47.0814C33.4826 47.1036 33.9268 47.1261 34.4815 47.0944C34.6124 47.0869 34.7382 47.08 34.8596 47.0733C36.0707 47.0065 36.86 46.963 38.117 46.6404C38.2582 46.6042 38.3941 46.57 38.5255 46.5368C39.7545 46.2272 40.5903 46.0166 41.6641 45.2085C42.6805 44.4437 43.1419 43.8336 43.7729 42.7224C44.3038 41.7873 44.4667 41.1149 44.6944 40.1748C44.7364 40.0013 44.7807 39.8187 44.8298 39.6236C45.0584 38.7169 45.1342 37.7159 45.1906 36.8414C45.1948 36.7766 45.1989 36.7125 45.2029 36.6492C45.226 36.2862 45.2475 35.9487 45.2777 35.656C45.313 35.3138 45.361 35.0242 45.4413 34.8233C45.5965 34.4353 45.7558 34.1991 45.9451 34.0014C46.0648 33.8764 46.1987 33.7651 46.3476 33.6414C46.4282 33.5745 46.513 33.5039 46.6024 33.4256C47.4096 32.7185 48.0574 32.5029 49.0137 32.1847C49.0789 32.163 49.1456 32.1409 49.2138 32.118C49.8071 31.9194 50.2914 31.8525 50.7759 31.8017C50.8512 31.7938 50.9263 31.7863 51.0019 31.7788C51.4128 31.7377 51.8344 31.6957 52.3392 31.5836C52.6181 31.5217 52.9006 31.4669 53.1747 31.4138L53.1799 31.4128C53.4526 31.3599 53.7167 31.3087 53.9628 31.2535C54.4616 31.1416 54.8729 31.0156 55.125 30.8355C55.385 30.6499 55.561 30.459 55.6567 30.2515C55.7515 30.0458 55.7705 29.8167 55.7037 29.5469C55.6331 29.2618 55.4624 29.0981 55.2302 28.9796C55.0545 28.89 54.8507 28.8291 54.6303 28.7633C54.5507 28.7396 54.469 28.7152 54.3857 28.6886C53.857 28.5197 53.4289 28.5872 52.9921 28.7392C52.8135 28.8014 52.635 28.8771 52.4466 28.957C52.4025 28.9757 52.3579 28.9947 52.3127 29.0137ZM52.9421 28.5956C53.3988 28.4366 53.8621 28.3617 54.4319 28.5437C54.5078 28.568 54.5849 28.591 54.6618 28.6139C54.8867 28.681 55.1102 28.7477 55.2993 28.8441C55.5599 28.9771 55.7675 29.1719 55.8514 29.5104C55.9252 29.8084 55.9062 30.0736 55.7948 30.3152C55.6842 30.5551 55.4858 30.7648 55.2134 30.9593C54.9332 31.1594 54.4933 31.2903 53.9961 31.4019C53.7478 31.4576 53.4819 31.5092 53.2101 31.5618L53.2036 31.5631C52.9292 31.6162 52.6488 31.6707 52.3721 31.7321C51.8579 31.8462 51.4266 31.8893 51.0155 31.9303C50.9404 31.9377 50.8659 31.9452 50.7918 31.953C50.3117 32.0033 49.8401 32.0687 49.2621 32.2622C49.195 32.2847 49.1295 32.3065 49.0655 32.3278C48.1077 32.6466 47.4862 32.8535 46.7027 33.54C46.6053 33.6253 46.517 33.6986 46.4355 33.7663C46.2918 33.8855 46.1691 33.9873 46.055 34.1066C45.8808 34.2885 45.7315 34.5074 45.5825 34.8798C45.5108 35.0592 45.4642 35.3299 45.429 35.6716C45.3991 35.961 45.3779 36.2951 45.3547 36.6583C45.3507 36.7217 45.3466 36.786 45.3424 36.8512C45.286 37.7248 45.2097 38.7388 44.9773 39.6608C44.9287 39.8536 44.8849 40.0348 44.843 40.2077C44.615 41.1495 44.4472 41.8428 43.9051 42.7975C43.2669 43.9214 42.793 44.5494 41.7556 45.3301C40.6564 46.1572 39.7925 46.3747 38.5641 46.684C38.4321 46.7172 38.2959 46.7515 38.1548 46.7877C36.8829 47.1141 36.0799 47.1584 34.8689 47.2251C34.7471 47.2318 34.6212 47.2388 34.4902 47.2463C33.927 47.2784 33.4752 47.2556 33.0367 47.2334C32.9983 47.2314 32.96 47.2295 32.9218 47.2276C32.4467 47.204 31.9757 47.1869 31.3756 47.246C31.1632 47.2669 30.9755 47.2754 30.8011 47.2832C30.3461 47.3036 29.9809 47.32 29.4991 47.5435C29.0415 47.7557 28.7871 47.9113 28.4597 48.285C28.1137 48.6801 28.0157 49.0153 27.8798 49.4802C27.8524 49.5738 27.8235 49.6727 27.7908 49.7783C27.5858 50.4391 27.5521 50.8423 27.4952 51.5227C27.4934 51.5439 27.4916 51.5654 27.4898 51.5871C27.4592 51.9513 27.4742 52.237 27.4895 52.5272L27.4897 52.5305C27.5051 52.8198 27.5207 53.1139 27.4898 53.488C27.4788 53.6209 27.472 53.743 27.4655 53.859C27.4433 54.2572 27.4251 54.5843 27.257 55.0295C27.0561 55.5617 26.8685 55.8838 26.4792 56.2731C26.3901 56.3622 26.3315 56.4381 26.2802 56.5046L26.2765 56.5093C26.2253 56.5757 26.1765 56.6389 26.1099 56.6889C25.9733 56.7913 25.7777 56.8276 25.3609 56.8276C24.9041 56.8276 24.5421 56.4967 24.2911 56.1394C24.0385 55.7799 23.8818 55.371 23.8415 55.1696C23.8306 55.115 23.8234 55.0112 23.8188 54.8732C23.8141 54.733 23.812 54.5513 23.8126 54.3369C23.8137 53.9081 23.8256 53.3462 23.8493 52.7182C23.8968 51.4623 23.9919 49.9392 24.1448 48.682C24.1595 48.5604 24.1739 48.4414 24.188 48.3249C24.4454 46.1981 24.6055 44.8742 25.2884 42.7368C25.9003 40.8217 26.2895 39.7219 27.3493 38.0054C28.2715 36.5118 28.8418 35.643 30.1779 34.4898C31.2249 33.5862 31.9056 33.1556 33.1614 32.5773C34.3549 32.0277 35.0915 31.8519 36.3713 31.5834C37.2949 31.3896 37.9533 31.343 38.7204 31.2887C39.0507 31.2653 39.4011 31.2405 39.8015 31.2019C40.7032 31.115 41.4284 31.0759 42.135 31.0377C42.208 31.0338 42.2808 31.0299 42.3536 31.0259C43.1308 30.9835 43.9062 30.9364 44.8948 30.8219C45.2745 30.7779 45.6109 30.7463 45.9259 30.7167C46.8041 30.6341 47.5157 30.5672 48.5337 30.2917C49.1263 30.1314 49.5652 29.9355 50.0075 29.7346L50.0519 29.7144C50.48 29.5198 50.9166 29.3214 51.4979 29.1515C51.7703 29.0719 52.0174 28.9728 52.2537 28.8735C52.2978 28.8549 52.3417 28.8363 52.3853 28.8178C52.574 28.7378 52.7583 28.6596 52.9421 28.5956Z" fill="black"/>
<path d="M30.7599 37.284C30.0999 38.0199 29.3686 38.8014 29.3911 39.4132C29.4137 40.0249 29.6002 40.262 29.9234 40.7819C30.2567 41.3181 30.5396 41.5542 30.988 41.9986C31.5876 42.5928 31.9187 42.9652 32.6609 43.3673C33.2967 43.7118 33.6987 43.8447 34.4099 43.9757L34.4572 43.9844C35.2758 44.1352 35.776 44.2273 36.6151 44.1278C37.402 44.0344 37.8574 43.816 38.5922 43.5194C39.2959 43.2354 39.701 43.0384 40.2651 42.5309C40.817 42.0343 40.9909 41.7467 41.3297 41.0861C41.7373 40.2911 41.9264 39.6831 42.0901 38.8048C42.2759 37.8084 42.3534 37.2269 42.2422 36.2194C42.1029 34.9585 41.1016 33.1777 41.1016 33.1777C41.1016 33.1777 40.0016 33.2646 39.2765 33.3298C38.7146 33.3803 38.3887 33.4675 37.8318 33.5579C37.2756 33.6483 36.9146 33.6644 36.387 33.8621L36.3711 33.8681C35.8017 34.0814 35.1599 34.3219 35.0182 34.6986C34.9136 34.9765 34.9422 35.1548 35.0182 35.3829C35.0812 35.5719 35.2163 35.6824 35.3984 35.7632C35.6304 35.866 35.8333 35.885 36.0828 35.8392C36.2531 35.8079 36.463 35.6111 36.463 35.6111L36.6151 34.4704C36.6151 34.4704 37.6839 35.4006 37.8318 36.2194C37.9437 36.8393 37.8619 37.2417 37.6036 37.8163C37.3276 38.4303 36.8984 38.8048 36.463 39.033C35.905 39.3253 35.4922 39.4072 34.8661 39.3371C34.2686 39.2703 33.9081 39.1578 33.4213 38.8048C32.9069 38.4317 32.8485 38.1193 32.6609 37.5121C32.4402 36.7977 32.6609 35.6111 32.6609 35.6111C32.6609 35.6111 31.4225 36.5451 30.7599 37.284Z" fill="#6A8BFF"/>
<path fill-rule="evenodd" clip-rule="evenodd" d="M41.1658 33.141L41.0995 33.1783L41.0935 33.1025L41.1419 33.0986L41.1658 33.141ZM32.6588 35.6116L32.6131 35.5509L32.7694 35.433L32.7336 35.6255L32.7335 35.6262L32.733 35.6286L32.7313 35.6383C32.7298 35.6469 32.7276 35.6598 32.7248 35.6764C32.7193 35.7097 32.7116 35.7582 32.7031 35.8188C32.686 35.9399 32.6656 36.1088 32.6519 36.2996C32.6244 36.6841 32.6256 37.1473 32.7315 37.4902C32.7475 37.542 32.7625 37.5913 32.7768 37.6384C32.8477 37.8718 32.9023 38.0516 32.9842 38.2122C33.0803 38.4007 33.2149 38.5632 33.4639 38.7438C33.9379 39.0875 34.2851 39.1964 34.8725 39.2621C35.1803 39.2965 35.432 39.2932 35.6737 39.2468C35.9154 39.2003 36.151 39.11 36.4256 38.9661C36.8482 38.7447 37.2641 38.382 37.5322 37.7856C37.66 37.5015 37.742 37.2642 37.7793 37.0237C37.8165 36.7839 37.8097 36.537 37.7549 36.2334C37.6848 35.8455 37.3928 35.4215 37.1081 35.0878C36.9671 34.9225 36.8306 34.7824 36.7292 34.6835C36.7074 34.6623 36.6873 34.643 36.6691 34.6257L36.5327 35.6485L36.5129 35.6671L36.4609 35.6116C36.5129 35.6671 36.513 35.6671 36.5129 35.6671L36.5127 35.6673L36.5121 35.6679L36.51 35.6698C36.5082 35.6715 36.5056 35.6738 36.5023 35.6767C36.4958 35.6826 36.4864 35.6909 36.4747 35.7008C36.4512 35.7207 36.418 35.7476 36.3791 35.7756C36.3041 35.8297 36.1974 35.8956 36.0945 35.9145C35.8311 35.9629 35.6125 35.9428 35.3655 35.8332C35.1718 35.7473 35.0161 35.6238 34.944 35.4075C34.9051 35.2909 34.8763 35.1812 34.8724 35.0625C34.8685 34.943 34.8898 34.8189 34.945 34.6723C35.0263 34.4561 35.2448 34.2906 35.4962 34.1556C35.7501 34.0193 36.0568 33.9044 36.3395 33.7985L36.3582 33.7914C36.7747 33.6354 37.0927 33.5897 37.4707 33.5355C37.58 33.5198 37.6943 33.5034 37.8175 33.4834C37.9977 33.4541 38.1549 33.4249 38.3046 33.3971C38.6118 33.34 38.8877 33.2888 39.2677 33.2546C39.6305 33.222 40.087 33.184 40.4527 33.1541C40.6355 33.1391 40.7957 33.1262 40.9102 33.1171C40.9675 33.1125 41.0133 33.1088 41.0448 33.1063L41.0935 33.1025L41.0995 33.1783C41.1658 33.141 41.1657 33.141 41.1658 33.141L41.166 33.1414L41.1688 33.1464L41.1773 33.1618C41.1848 33.1754 41.1957 33.1953 41.2097 33.2211C41.2375 33.2726 41.2774 33.3476 41.3257 33.4414C41.4223 33.629 41.5525 33.8924 41.6871 34.1954C41.9553 34.7993 42.2447 35.5688 42.3157 36.2116C42.4281 37.2296 42.3492 37.8195 42.1628 38.8193C41.9979 39.7035 41.8068 40.3188 41.3953 41.1213C41.2259 41.4516 41.0955 41.6932 40.9371 41.9147C40.7781 42.1371 40.5925 42.3373 40.3139 42.5879C39.7405 43.1039 39.3263 43.3048 38.6186 43.5905C38.5293 43.6265 38.4439 43.6615 38.3614 43.6953C37.7682 43.9383 37.3236 44.1205 36.622 44.2038C35.7714 44.3047 35.2617 44.2108 34.4437 44.0601L34.394 44.051C33.6758 43.9187 33.2661 43.7834 32.6226 43.4347C31.9511 43.0709 31.6088 42.7287 31.1194 42.2395C31.0596 42.1797 30.9975 42.1176 30.9324 42.0531C30.8625 41.9839 30.7964 41.9195 30.7334 41.8581C30.3944 41.5278 30.1428 41.2826 29.8568 40.8226C29.8272 40.775 29.7986 40.7296 29.771 40.6857C29.6499 40.4932 29.5485 40.3321 29.473 40.1636C29.3787 39.9529 29.3246 39.7309 29.3131 39.4165C29.3008 39.0829 29.4925 38.7161 29.7558 38.3512C29.9956 38.0189 30.3053 37.6743 30.6052 37.3407C30.6373 37.3049 30.6694 37.2692 30.7012 37.2338C31.0364 36.8599 31.5153 36.4388 31.9082 36.1125C32.1051 35.949 32.2812 35.8087 32.4081 35.7092C32.4715 35.6595 32.5227 35.62 32.558 35.5929C32.5757 35.5793 32.5894 35.5688 32.5987 35.5617L32.6094 35.5537L32.6131 35.5509C32.6131 35.5509 32.6131 35.5509 32.6588 35.6116ZM36.3893 35.5737L36.5563 34.3208L36.6629 34.4136L36.613 34.471C36.6629 34.4136 36.6629 34.4136 36.6629 34.4136L36.6632 34.4139L36.6639 34.4144L36.6663 34.4166L36.6757 34.4249C36.6838 34.4321 36.6956 34.4427 36.7106 34.4565C36.7406 34.484 36.7835 34.5241 36.8354 34.5747C36.9391 34.6758 37.079 34.8194 37.2238 34.9891C37.5104 35.3251 37.8267 35.7756 37.9045 36.2064C37.9616 36.5228 37.9699 36.7871 37.9296 37.047C37.8894 37.3064 37.8015 37.5576 37.6709 37.848C37.3869 38.4798 36.9444 38.866 36.4962 39.1008C36.2129 39.2493 35.963 39.3461 35.7024 39.3961C35.4416 39.4462 35.1739 39.4488 34.8556 39.4132C34.2478 39.3452 33.8742 39.2292 33.3746 38.8669C33.1091 38.6744 32.9573 38.4942 32.8487 38.2813C32.7601 38.1076 32.7009 37.9123 32.6301 37.6788C32.616 37.6324 32.6015 37.5846 32.5862 37.5351C32.4714 37.1636 32.4725 36.6763 32.5002 36.2888C32.5142 36.0937 32.5351 35.9213 32.5525 35.7976C32.5529 35.7945 32.5534 35.7914 32.5538 35.7884C32.5376 35.801 32.5203 35.8145 32.5019 35.8289C32.3759 35.9277 32.2009 36.0671 32.0054 36.2295C31.6135 36.5549 31.1418 36.9702 30.8144 37.3353C30.7826 37.3707 30.7508 37.4062 30.7188 37.4417C30.4178 37.7766 30.1138 38.1149 29.8792 38.4401C29.6175 38.8028 29.4548 39.1327 29.465 39.4109C29.476 39.7082 29.5265 39.9107 29.6119 40.1014C29.6825 40.2593 29.7768 40.4092 29.8974 40.6009C29.9255 40.6456 29.955 40.6925 29.9859 40.7423C30.2616 41.1857 30.4999 41.418 30.8376 41.7472C30.9011 41.8091 30.9681 41.8743 31.0395 41.9451C31.1049 42.0099 31.167 42.072 31.2267 42.1317C31.7161 42.6207 32.0438 42.9481 32.6951 43.301C33.3232 43.6413 33.7175 43.7718 34.4216 43.9014L34.4689 43.9101C35.2868 44.0608 35.7772 44.1509 36.6041 44.0528C37.2841 43.972 37.7101 43.7976 38.3033 43.5547C38.3858 43.5209 38.4715 43.4858 38.5616 43.4494C39.2613 43.167 39.6573 42.9741 40.2122 42.4749C40.4855 42.229 40.6627 42.037 40.8134 41.8263C40.9646 41.6148 41.0906 41.3822 41.2599 41.0519C41.6637 40.2645 41.8507 39.6636 42.0133 38.7914C42.1984 37.7984 42.2746 37.2252 42.1645 36.2283C42.0963 35.6102 41.8153 34.8587 41.5481 34.2571C41.4149 33.9573 41.2861 33.6967 41.1905 33.511C41.1427 33.4182 41.1033 33.3442 41.0759 33.2934C41.0686 33.2799 41.0621 33.2681 41.0566 33.2579C41.0251 33.2605 40.9794 33.2641 40.9224 33.2687C40.8079 33.2778 40.6478 33.2907 40.4651 33.3057C40.0995 33.3355 39.6435 33.3735 39.2813 33.4061C38.9083 33.4396 38.6431 33.4889 38.3402 33.5453C38.1894 33.5733 38.0293 33.6031 37.8419 33.6335C37.7131 33.6545 37.5955 33.6713 37.4845 33.6873C37.1102 33.7411 36.8114 33.784 36.4116 33.9338L36.3957 33.9398C36.1098 34.0469 35.8121 34.1586 35.5682 34.2896C35.321 34.4223 35.1477 34.5654 35.0873 34.7259C35.0379 34.8572 35.0212 34.9613 35.0244 35.0575C35.0276 35.1544 35.0511 35.2479 35.0883 35.3594C35.1422 35.5211 35.2567 35.6186 35.4272 35.6942C35.6441 35.7904 35.8313 35.8082 36.067 35.7649C36.1344 35.7526 36.2177 35.7045 36.2903 35.6522C36.3251 35.6271 36.3551 35.6028 36.3763 35.5848C36.3811 35.5808 36.3854 35.577 36.3893 35.5737Z" fill="black"/>
<path d="M18.4395 33.4951C18.8215 34.4691 18.6874 35.4327 18.14 35.6474C17.5927 35.8621 16.8393 35.2465 16.4573 34.2724C16.0753 33.2984 16.2094 32.3348 16.7567 32.1201C17.3041 31.9054 18.0575 32.521 18.4395 33.4951Z" fill="black"/>
<path d="M19.9004 30.6836C20.2824 31.6576 20.1483 32.6212 19.601 32.8359C19.0536 33.0506 18.3002 32.435 17.9182 31.4609C17.5362 30.4869 17.6703 29.5232 18.2177 29.3086C18.765 29.0939 19.5184 29.7095 19.9004 30.6836Z" fill="black"/>
<path d="M34.4115 21.0119C34.3367 21.6195 34.4004 22.3221 33.8032 22.4567C33.0906 22.6173 33.4038 21.369 32.9667 20.7838C32.295 19.8844 31.4691 19.8387 30.6855 19.0348C30.2289 18.5665 29.8064 18.3692 29.6209 17.7421C29.4861 17.2865 29.3971 16.9446 29.6209 16.5255C30.0027 15.8105 30.873 16.0969 31.674 16.2213C32.3444 16.3254 32.9323 16.3177 33.2709 16.9057C33.5524 17.3946 33.1955 17.7913 33.2709 18.3505C33.4219 19.4711 34.5497 19.8896 34.4115 21.0119Z" fill="black"/>
<path fill-rule="evenodd" clip-rule="evenodd" d="M31.3469 16.0878C31.4591 16.1082 31.5705 16.1285 31.6836 16.146C31.7721 16.1598 31.8606 16.1717 31.9481 16.1835C32.1839 16.2152 32.413 16.246 32.6173 16.3093C32.9045 16.3982 33.1539 16.5535 33.3347 16.8676C33.4893 17.1362 33.4665 17.3802 33.4207 17.6161C33.4127 17.6575 33.4041 17.6985 33.3955 17.7392C33.3547 17.933 33.3148 18.1223 33.3441 18.3402C33.4102 18.8306 33.6703 19.1801 33.9337 19.5342C33.9588 19.5678 33.9838 19.6015 34.0088 19.6354C34.2936 20.0221 34.5579 20.4285 34.4849 21.0211C34.4722 21.1237 34.4637 21.228 34.4551 21.3335C34.451 21.3827 34.447 21.4321 34.4425 21.4818C34.4286 21.6359 34.4104 21.7899 34.3748 21.9303C34.3392 22.0707 34.285 22.2021 34.1958 22.3084C34.1054 22.416 33.9826 22.4936 33.8178 22.5308C33.7192 22.553 33.6316 22.5524 33.5547 22.5271C33.4771 22.5015 33.417 22.453 33.3704 22.3909C33.2806 22.2712 33.2372 22.0949 33.2047 21.9132C33.1918 21.8413 33.1806 21.7684 33.1693 21.695C33.1507 21.5746 33.132 21.4527 33.1052 21.3309C33.0628 21.1376 33.0032 20.9625 32.9037 20.8292C32.5774 20.3923 32.2141 20.1623 31.8279 19.9392C31.792 19.9184 31.7558 19.8977 31.7195 19.8769C31.3653 19.6741 30.9922 19.4605 30.6289 19.0878C30.5169 18.9729 30.4068 18.8744 30.3002 18.7804C30.2899 18.7713 30.2797 18.7623 30.2695 18.7533C30.1743 18.6694 30.0815 18.5876 29.9956 18.5016C29.8034 18.309 29.6431 18.0923 29.5459 17.7636C29.4112 17.3086 29.3119 16.9386 29.5517 16.4895C29.6544 16.2972 29.7919 16.1693 29.9548 16.0903C30.1163 16.0119 30.2983 15.9836 30.4877 15.9825C30.677 15.9813 30.878 16.0073 31.0793 16.0407C31.1699 16.0557 31.2587 16.0718 31.3469 16.0878ZM30.0212 16.2271C29.8885 16.2915 29.7741 16.3959 29.6858 16.5612C29.478 16.9504 29.5567 17.2642 29.6917 17.7204C29.78 18.0188 29.9238 18.2143 30.1033 18.3942C30.1855 18.4765 30.2745 18.555 30.3704 18.6395C30.3805 18.6484 30.3906 18.6573 30.4008 18.6663C30.5077 18.7606 30.6215 18.8624 30.7378 18.9816C31.0856 19.3384 31.4409 19.542 31.796 19.7454C31.832 19.7661 31.868 19.7867 31.904 19.8075C32.2946 20.0331 32.6801 20.2756 33.0255 20.7382C33.1445 20.8975 33.2097 21.0979 33.2538 21.2982C33.2812 21.4234 33.3017 21.5557 33.321 21.6804C33.3321 21.7526 33.3429 21.8222 33.3544 21.8864C33.3872 22.0699 33.4265 22.2122 33.4921 22.2996C33.5232 22.3411 33.5589 22.3683 33.6022 22.3826C33.6463 22.3971 33.7048 22.4003 33.7843 22.3824C33.9182 22.3522 34.0113 22.2915 34.0793 22.2106C34.1485 22.1282 34.195 22.0208 34.2274 21.8929C34.2599 21.7648 34.2772 21.6208 34.291 21.4681C34.2953 21.4213 34.2992 21.3734 34.3032 21.325C34.3119 21.2178 34.3209 21.1082 34.3339 21.0025C34.3992 20.4728 34.1686 20.1088 33.8863 19.7255C33.8613 19.6915 33.8358 19.6573 33.81 19.6228C33.5486 19.2722 33.265 18.8918 33.1934 18.3605C33.1602 18.1142 33.2067 17.8954 33.248 17.7009C33.2562 17.662 33.2643 17.6241 33.2714 17.5871C33.3149 17.3626 33.3298 17.1639 33.2029 16.9435C33.0452 16.6696 32.8313 16.5347 32.5723 16.4545C32.381 16.3953 32.171 16.367 31.9403 16.336C31.8501 16.3239 31.7568 16.3113 31.6602 16.2963C31.5478 16.2789 31.4309 16.2577 31.3153 16.2367C31.2267 16.2206 31.1388 16.2047 31.0545 16.1907C30.8554 16.1577 30.6647 16.1335 30.4886 16.1345C30.3126 16.1356 30.1553 16.162 30.0212 16.2271Z" fill="black"/>
<path d="M19.8935 30.6846C20.2757 31.6591 20.1145 32.6338 19.5336 32.8616C18.9526 33.0894 18.1718 32.4841 17.7897 31.5096C17.4075 30.5351 17.5686 29.5604 18.1496 29.3326C18.7305 29.1047 19.5113 29.7101 19.8935 30.6846Z" fill="black"/>
<path d="M21.3803 25.0336C21.0597 26.6011 20.2567 27.7607 19.5869 27.6237C18.9171 27.4867 18.634 26.1049 18.9546 24.5374C19.2752 22.9699 20.0782 21.8103 20.748 21.9473C21.4178 22.0843 21.7009 23.4661 21.3803 25.0336Z" fill="black"/>
<path d="M17.2832 26.0899C17.2466 27.2191 16.8108 28.1214 16.3097 28.1052C15.8087 28.0889 15.4322 27.1603 15.4688 26.031C15.5055 24.9018 15.9413 23.9995 16.4424 24.0158C16.9434 24.032 17.3199 24.9606 17.2832 26.0899Z" fill="black"/>
<path d="M15.2292 24.4053C14.9685 25.4002 14.364 26.1038 13.8791 25.9767C13.3942 25.8496 13.2124 24.94 13.4732 23.9451C13.7339 22.9501 14.3384 22.2466 14.8233 22.3737C15.3083 22.5007 15.49 23.4103 15.2292 24.4053Z" fill="black"/>
<path d="M21.4072 25.2953C20.9855 26.9042 19.9803 28.0346 19.1619 27.8202C18.3435 27.6057 18.0219 26.1275 18.4436 24.5186C18.8652 22.9097 19.8705 21.7793 20.6888 21.9938C21.5072 22.2083 21.8288 23.6864 21.4072 25.2953Z" fill="black"/>
<path d="M30.0622 26.3403C30.7301 28.9898 30.2368 31.3986 28.9604 31.7203C27.6839 32.0421 26.1077 30.155 25.4398 27.5055C24.7719 24.8559 25.2652 22.4472 26.5417 22.1254C27.8181 21.8036 29.3943 23.6907 30.0622 26.3403Z" fill="black"/>
<path d="M35.3968 22.3157C37.6777 20.4988 40.4394 20.1717 41.5652 21.585C42.691 22.9984 41.7546 25.617 39.4737 27.4339C37.1928 29.2508 34.4311 29.5779 33.3053 28.1646C32.1795 26.7512 33.1159 24.1326 35.3968 22.3157Z" fill="black"/>
<path d="M22.8251 16.9193C22.8753 15.8594 24.1655 15.0593 25.707 15.1323C27.2485 15.2052 28.4574 16.1236 28.4072 17.1835C28.3571 18.2433 27.0668 19.0434 25.5253 18.9704C23.9839 18.8975 22.7749 17.9791 22.8251 16.9193Z" fill="black"/>
<path d="M20.5162 20.0892C20.5511 19.3509 21.4793 18.795 22.5893 18.8475C23.6993 18.9 24.5709 19.5411 24.5359 20.2794C24.501 21.0177 23.5728 21.5736 22.4628 21.5211C21.3527 21.4685 20.4812 20.8275 20.5162 20.0892Z" fill="black"/>
<path d="M15.9388 20.9938C15.7252 20.5977 16.0676 19.9985 16.7036 19.6555C17.3396 19.3124 18.0284 19.3554 18.2421 19.7515C18.4557 20.1476 18.1133 20.7468 17.4773 21.0899C16.8413 21.4329 16.1525 21.3899 15.9388 20.9938Z" fill="black"/>
<path d="M15.6888 17.7021C15.8225 17.2724 16.4903 17.0981 17.1803 17.3129C17.8703 17.5276 18.3212 18.05 18.1875 18.4797C18.0537 18.9095 17.386 19.0837 16.696 18.869C16.006 18.6543 15.555 18.1318 15.6888 17.7021Z" fill="black"/>
<path d="M48.1748 38.0443C47.9605 37.147 47.1028 36.9298 46.1977 36.7516C45.7315 36.6598 45.4152 36.5586 44.9811 36.7516C44.0041 37.1858 44.9811 38.42 44.9811 39.4891C44.9811 40.4097 44.713 40.9657 44.9811 41.8464C45.361 43.0944 46.8138 43.1055 47.1863 44.3558C47.4407 45.2095 46.7195 45.8782 47.1863 46.637C47.8241 47.6741 49.172 47.9275 50.2279 47.3214C51.0918 46.8255 51.4102 46.0353 51.3686 45.0401C51.3124 43.6968 49.3421 43.834 49.0113 42.5307C48.8432 41.8687 49.3666 41.3651 49.0113 40.7818C48.6095 40.1224 47.4981 40.7277 47.1863 40.0214C46.8376 39.2317 48.3754 38.8839 48.1748 38.0443Z" fill="black"/>
<path fill-rule="evenodd" clip-rule="evenodd" d="M46.0285 36.7951C45.6404 36.7152 45.3719 36.6599 45.0098 36.8209C44.7853 36.9207 44.6807 37.0612 44.6408 37.2294C44.5994 37.4044 44.626 37.6179 44.6865 37.8639C44.7225 38.0104 44.7683 38.1605 44.8158 38.3166C44.8489 38.4249 44.8827 38.536 44.9148 38.6507C44.9916 38.9253 45.055 39.211 45.055 39.4889C45.055 39.8171 45.021 40.1029 44.9895 40.3679C44.9764 40.4782 44.9638 40.5848 44.9541 40.6894C44.9212 41.0478 44.9215 41.3963 45.0517 41.824C45.233 42.4194 45.6681 42.7208 46.1275 43.0374L46.1317 43.0403C46.5856 43.3531 47.0628 43.6818 47.2571 44.3338C47.3797 44.7456 47.2865 45.1175 47.202 45.455C47.194 45.4869 47.1861 45.5185 47.1784 45.5498C47.0887 45.9169 47.0331 46.246 47.2489 46.5969C47.8625 47.5945 49.1629 47.8437 50.188 47.2552C50.6075 47.0144 50.8918 46.7041 51.067 46.3351C51.2427 45.9653 51.3109 45.532 51.2905 45.0431C51.2644 44.4193 50.8003 44.1362 50.2542 43.8368C50.2307 43.8239 50.207 43.811 50.1832 43.798C49.6684 43.5171 49.1028 43.2084 48.9355 42.5492C48.8552 42.2332 48.9236 41.9497 48.9846 41.6967C48.9917 41.6671 48.9987 41.638 49.0054 41.6093C49.0701 41.3305 49.1052 41.0853 48.9442 40.8211C48.8562 40.6767 48.7299 40.6003 48.5776 40.5571C48.427 40.5143 48.2564 40.5053 48.0767 40.4958C48.0708 40.4955 48.0649 40.4952 48.059 40.4949C47.8775 40.4853 47.6859 40.4741 47.5198 40.4172C47.349 40.3587 47.2026 40.2511 47.1146 40.0519C47.0159 39.8283 47.052 39.6327 47.1542 39.4587C47.2529 39.2903 47.4154 39.139 47.5714 38.9954C47.5768 38.9904 47.5823 38.9854 47.5877 38.9804C47.7419 38.8385 47.8899 38.7024 47.9909 38.5535C48.0932 38.4025 48.1426 38.2451 48.0988 38.0617C47.9976 37.6382 47.7464 37.3758 47.4075 37.1952C47.0644 37.0125 46.6344 36.9153 46.1809 36.826C46.128 36.8155 46.0773 36.8051 46.0285 36.7951ZM46.0594 36.646C46.1085 36.6562 46.1587 36.6666 46.2103 36.6768C46.6619 36.7657 47.1133 36.8662 47.479 37.061C47.8487 37.2579 48.1335 37.5527 48.2467 38.0264C48.3032 38.2628 48.2355 38.4637 48.1168 38.6388C48.0056 38.8028 47.8457 38.9498 47.696 39.0874C47.6888 39.0941 47.6816 39.1007 47.6744 39.1073C47.5147 39.2543 47.3705 39.3904 47.2853 39.5356C47.2034 39.6752 47.1781 39.8192 47.2537 39.9904C47.3217 40.1443 47.4311 40.226 47.5691 40.2733C47.7116 40.3221 47.8815 40.3332 48.067 40.343C48.0751 40.3435 48.0833 40.3439 48.0915 40.3443C48.2654 40.3534 48.4516 40.3632 48.6192 40.4108C48.7981 40.4616 48.9613 40.5568 49.0741 40.742C49.2685 41.0611 49.2196 41.3594 49.1535 41.6437C49.1467 41.6732 49.1396 41.7025 49.1327 41.7316C49.0714 41.9878 49.0124 42.2343 49.0829 42.5118C49.2335 43.1051 49.7427 43.3837 50.2728 43.6736C50.291 43.6836 50.3092 43.6935 50.3274 43.7035C50.8632 43.9972 51.4123 44.3171 51.4424 45.0367C51.4636 45.5429 51.3935 46.0024 51.2044 46.4004C51.0149 46.7993 50.708 47.132 50.2637 47.3871C49.1769 48.0109 47.7816 47.7533 47.1194 46.6766C46.8685 46.2687 46.9401 45.8841 47.0307 45.5137C47.0382 45.4829 47.0459 45.4522 47.0535 45.4215C47.1388 45.0794 47.2215 44.7472 47.1113 44.3772C46.9336 43.781 46.5005 43.4791 46.0412 43.1626L46.0322 43.1564C45.5798 42.8447 45.1036 42.5166 44.9062 41.8683C44.7683 41.4153 44.7687 41.0454 44.8027 40.6755C44.813 40.5636 44.8262 40.453 44.8395 40.3406C44.8707 40.079 44.9029 39.8077 44.9029 39.4889C44.9029 39.2322 44.8442 38.9627 44.7684 38.6917C44.7385 38.585 44.7054 38.4763 44.6726 38.3685C44.6237 38.2078 44.5753 38.0488 44.5388 37.9002C44.4772 37.6497 44.4427 37.4064 44.4928 37.1944C44.5446 36.9757 44.6842 36.7992 44.9481 36.6819C45.3569 36.5002 45.6734 36.5659 46.0594 36.646Z" fill="black"/>
<path d="M53.8364 37.8001C53.6048 39.5063 52.5736 40.7749 51.5332 40.6337C50.4929 40.4925 49.8372 38.9948 50.0689 37.2886C50.3005 35.5824 51.3317 34.3137 52.372 34.455C53.4124 34.5962 54.068 36.0938 53.8364 37.8001Z" fill="black"/>
</svg>
