<svg width="80" height="80" viewBox="0 0 80 80" fill="none" xmlns="http://www.w3.org/2000/svg">
<rect width="80" height="80" rx="20" fill="url(#paint0_linear)"/>
<path fill-rule="evenodd" clip-rule="evenodd" d="M40.5645 35.3021C40.8132 37.6359 40.994 39.5832 40.9661 39.6297C40.9382 39.6762 40.4901 39.7142 39.9701 39.7142H39.0249L39.0951 39.292C39.1335 39.0599 39.349 37.0861 39.5738 34.9058C39.7984 32.7257 40.0115 30.9682 40.0472 31.0004C40.0829 31.0326 40.3157 32.9684 40.5645 35.3021ZM52.7818 41.3394C52.7518 41.3664 49.8716 41.8265 46.3813 42.3618L40.0353 43.3352L33.7102 42.3621C30.2314 41.8268 27.3605 41.3667 27.3304 41.3395C27.3003 41.3124 33.0268 41.2902 40.056 41.2902C47.0851 41.2902 52.8117 41.3123 52.7818 41.3394ZM22.1616 43.2407L40.048 45.0733L57.9423 43.2388C67.7842 42.2298 75.9098 41.4165 75.9993 41.4316C76.0886 41.4467 68.0347 42.9823 58.1018 44.844L40.0418 48.2291L22.2209 44.8854C3.06969 41.2922 3.81054 41.434 4.08792 41.4184C4.19095 41.4127 12.3241 42.2327 22.1616 43.2407Z" fill="white"/>
<defs>
<linearGradient id="paint0_linear" x1="40" y1="0" x2="40" y2="80" gradientUnits="userSpaceOnUse">
<stop stop-color="#00034F"/>
<stop offset="1" stop-color="#00F8FA"/>
</linearGradient>
</defs>
</svg>
