<svg width="80" height="80" viewBox="0 0 80 80" fill="none" xmlns="http://www.w3.org/2000/svg">
<path fill-rule="evenodd" clip-rule="evenodd" d="M52.1087 0C60.14 0 64.1547 0 68.478 1.36667C73.198 3.08467 76.9153 6.802 78.6333 11.522C80 15.8447 80 19.8607 80 27.8913V52.1087C80 60.14 80 64.1547 78.6333 68.478C76.9153 73.198 73.198 76.9153 68.478 78.6327C64.1547 80 60.14 80 52.1087 80H27.8913C19.86 80 15.8447 80 11.522 78.6327C6.802 76.9153 3.08467 73.198 1.36667 68.478C0 64.1547 0 60.14 0 52.1087V27.8913C0 19.8607 0 15.8447 1.36667 11.522C3.08467 6.802 6.802 3.08467 11.522 1.36667C15.8447 0 19.86 0 27.8913 0H52.1087Z" fill="white"/>
<path fill-rule="evenodd" clip-rule="evenodd" d="M29.6773 33.3337H32.7742C35.78 33.3337 38.3304 35.7891 38.3304 38.8811V41.8821C38.3304 44.9741 35.78 47.4295 32.7742 47.4295H29.6773C26.6715 47.4295 24.1211 44.9741 24.1211 41.8821V38.8811C24.1211 35.7891 26.6715 33.3337 29.6773 33.3337ZM30.0416 34.7887H32.501C34.8692 34.7887 36.8731 36.7894 36.8731 39.1539V41.6093C36.8731 44.0647 34.8692 46.0654 32.501 46.0654H30.0416C27.5823 46.0654 25.5785 44.0647 25.5785 41.6093V39.1539C25.5785 36.7894 27.5823 34.7887 30.0416 34.7887Z" fill="#2B2B2A"/>
<path fill-rule="evenodd" clip-rule="evenodd" d="M62.0093 33.4251H65.1062C68.112 33.4251 70.6624 35.8805 70.6624 38.9725V41.9736C70.6624 45.0656 68.112 47.521 65.1062 47.521H62.0093C59.0035 47.521 56.4531 45.0656 56.4531 41.9736V38.9725C56.4531 35.8805 59.0035 33.4251 62.0093 33.4251ZM62.3737 34.7893H64.833C67.2012 34.7893 69.2051 36.79 69.2051 39.2454V41.7008C69.2051 44.1562 67.2012 46.1569 64.833 46.1569H62.3737C59.9144 46.1569 57.9105 44.1562 57.9105 41.7008V39.2454C57.9105 36.79 59.9144 34.7893 62.3737 34.7893Z" fill="#2B2B2A"/>
<path fill-rule="evenodd" clip-rule="evenodd" d="M69.0311 44.8827L70.3974 46.3377C70.6707 46.6106 70.6707 47.0653 70.3974 47.3381C70.1241 47.6109 69.6687 47.6109 69.3954 47.3381L68.0292 45.883C67.7559 45.6102 67.7559 45.1555 68.0292 44.8827C68.3024 44.6099 68.7578 44.6099 69.0311 44.8827Z" fill="#2B2B2A"/>
<path fill-rule="evenodd" clip-rule="evenodd" d="M45.8882 33.3333H48.8941C51.991 33.3333 54.4503 35.7887 54.4503 38.8807V41.6999H53.084V41.609V39.1536C53.084 36.7891 51.0801 34.7884 48.6208 34.7884H46.1615C43.7022 34.7884 41.6983 36.7891 41.6983 39.1536V41.609V41.6999H40.332V38.8807C40.332 35.7887 42.7913 33.3333 45.8882 33.3333Z" fill="#2B2B2A"/>
<path fill-rule="evenodd" clip-rule="evenodd" d="M41.0607 40.6097C41.4251 40.6097 41.6983 40.9735 41.6983 41.3372V46.7937C41.6983 47.1575 41.4251 47.4303 41.0607 47.4303C40.6053 47.4303 40.332 47.1575 40.332 46.7937V41.3372C40.332 40.9735 40.6053 40.6097 41.0607 40.6097Z" fill="#2B2B2A"/>
<path d="M53.9531 40.6097H53.6325C53.3306 40.6097 53.0859 42.1401 53.0859 44.028C53.0859 45.9159 53.3306 47.4464 53.6325 47.4464H53.9531C54.255 47.4464 54.4996 45.9159 54.4996 44.028C54.4996 42.1401 54.255 40.6097 53.9531 40.6097Z" fill="#2B2B2A"/>
<path fill-rule="evenodd" clip-rule="evenodd" d="M13.5562 33.3333H16.562C19.6589 33.3333 22.1182 35.7887 22.1182 38.8807V39.2445H20.752C20.752 39.2445 20.752 39.2445 20.752 39.1536C20.752 36.6982 18.7481 34.7884 16.2888 34.7884H13.8295C11.3702 34.7884 9.45737 36.6982 9.45737 39.1536V41.609V41.6999H8V38.8807C8 35.7887 10.4593 33.3333 13.5562 33.3333Z" fill="#2B2B2A"/>
<path fill-rule="evenodd" clip-rule="evenodd" d="M11.188 44.974H16.6531C19.6589 44.974 22.2093 42.5186 22.2093 39.4266V39.0628H20.752V39.1538C20.752 41.6092 18.7481 43.6099 16.2888 43.6099H11.188V44.974ZM9.45737 39.1538V39.0628H8V39.4266C8 40.8817 8.54651 42.1548 9.45737 43.0642V39.1538Z" fill="#2B2B2A"/>
<path d="M8.86719 40.6097H8.54651C8.24468 40.6097 8 42.1401 8 44.028C8 45.9159 8.24468 47.4464 8.54651 47.4464H8.86719C9.16902 47.4464 9.4137 45.9159 9.4137 44.028C9.4137 42.1401 9.16902 40.6097 8.86719 40.6097Z" fill="#2B2B2A"/>
<path d="M11.7904 43.6107H11.1857C10.7833 43.6107 10.457 43.9264 10.457 44.3159C10.457 44.7053 10.7833 45.021 11.1857 45.021H11.7904C12.1928 45.021 12.5191 44.7053 12.5191 44.3159C12.5191 43.9264 12.1928 43.6107 11.7904 43.6107Z" fill="#2B2B2A"/>
</svg>
