<svg width="80" height="80" viewBox="0 0 80 80" fill="none" xmlns="http://www.w3.org/2000/svg">
<rect width="80" height="80" rx="20" fill="#171618"/>
<g clip-path="url(#clip0)">
<path d="M8 35.9512V34H19.0108V35.9512H8Z" fill="white"/>
<path d="M8 37.2H19.0108V40.3498C19.0108 41.7157 18.5703 42.7749 17.6895 43.5833C16.8086 44.3917 15.6525 44.7819 14.1935 44.7819H12.7622C11.3032 44.7819 10.1471 44.3917 9.26624 43.5833C8.44043 42.7749 8 41.6878 8 40.322V37.2ZM17.3041 39.1512H9.70667V40.2105C9.70667 41.1025 9.98194 41.7714 10.5325 42.1896C11.083 42.6077 11.8262 42.8028 12.8172 42.8028H14.2761C15.2396 42.8028 16.0103 42.6077 16.5333 42.1896C17.0839 41.7714 17.3316 41.1303 17.3316 40.2383V39.1512H17.3041Z" fill="white"/>
<path d="M28.7016 39.993H23.7192V43.0592H29.5549V44.7038H21.2969V34H29.5274V35.6446H23.7192V38.3484H28.7016V39.993Z" fill="white"/>
<path d="M40.5648 44.7038H38.17L33.2702 37.3449H33.2427V44.7038H30.8203V34H33.2427L38.1425 41.3589H38.17V34H40.5648V44.7038Z" fill="white"/>
<path d="M51.8206 35.6446H48.0219V44.7038H45.5995V35.6446H41.8008V34H51.8206V35.6446V35.6446Z" fill="white"/>
<path d="M60.4672 39.993H55.4849V43.0592H61.3206V44.7038H53.0625V34H61.293V35.6446H55.4849V38.3484H60.4672V39.993Z" fill="white"/>
<path d="M65.0083 40.439V44.7317H62.5859V34H67.3206C68.7244 34 69.7705 34.2787 70.4586 34.7805C71.1743 35.3101 71.5046 36.0906 71.5046 37.122C71.5046 37.7073 71.3395 38.2091 70.9816 38.5993C70.6238 38.9895 70.1283 39.2962 69.4401 39.5192V39.547C70.1558 39.7422 70.6513 40.0488 70.9541 40.4669C71.2569 40.885 71.3945 41.4425 71.3945 42.0836V42.8641C71.3945 43.1707 71.4496 43.4774 71.5322 43.784C71.6148 44.0906 71.7799 44.3136 72.0001 44.4808V44.676H69.5227C69.3025 44.5087 69.1373 44.2578 69.0823 43.8955C69.0272 43.5331 68.9722 43.1707 68.9722 42.8641V42.1115C68.9722 41.554 68.8345 41.1359 68.5317 40.8571C68.2289 40.5784 67.7885 40.4111 67.1829 40.4111H65.0083V40.439ZM65.0083 38.7666H67.1003C67.7885 38.7666 68.3115 38.6551 68.6143 38.4042C68.9446 38.1533 69.1098 37.7631 69.1098 37.2613C69.1098 36.7596 68.9446 36.3693 68.6419 36.0906C68.3391 35.8118 67.8436 35.6725 67.1829 35.6725H64.9808V38.7666H65.0083Z" fill="white"/>
</g>
<defs>
<clipPath id="clip0">
<rect width="64" height="11.4286" fill="white" transform="translate(8 34)"/>
</clipPath>
</defs>
</svg>
