<svg width="80" height="80" viewBox="0 0 80 80" fill="none" xmlns="http://www.w3.org/2000/svg">
<rect width="80" height="80" rx="20" fill="#C60C0F"/>
<path fill-rule="evenodd" clip-rule="evenodd" d="M18.4508 29.265C17.781 28.9209 17.1418 28.7483 16.534 28.7483C15.5135 28.7483 14.6734 29.0877 14.0142 29.767C13.3443 30.4558 13.0096 31.3628 13.0096 32.4873C13.0096 33.5923 13.3602 34.4893 14.0609 35.1781C14.7508 35.8775 15.6478 36.2269 16.7504 36.2269C17.3795 36.2269 18.0281 36.0501 18.6986 35.6948C18.8221 35.6339 18.9404 35.6038 19.0545 35.6038C19.2703 35.6038 19.4353 35.6901 19.5482 35.8621L19.8267 36.2878C19.8988 36.3895 19.9354 36.506 19.9354 36.6378C19.9354 36.83 19.8633 36.9719 19.719 37.0629C18.7807 37.6713 17.7348 37.9752 16.5807 37.9752C14.9318 37.9752 13.5861 37.4739 12.5461 36.4705C11.5156 35.4666 11 34.1392 11 32.4873C11 30.9063 11.4895 29.595 12.4686 28.5508C13.4377 27.5167 14.7928 27 16.534 27C17.4818 27 18.4254 27.2536 19.3631 27.7597C19.5695 27.8721 19.6717 28.0187 19.6717 28.2008C19.6717 28.3025 19.6416 28.4036 19.5795 28.5053L19.2549 29.0676C19.1308 29.2597 18.977 29.3561 18.7908 29.3561C18.6779 29.3561 18.5644 29.3259 18.4508 29.265Z" fill="white"/>
<path fill-rule="evenodd" clip-rule="evenodd" d="M27.896 36.6222V37.2459C27.896 37.3979 27.8393 37.5292 27.7264 37.6409C27.6128 37.7526 27.4786 37.8082 27.3243 37.8082H22.0528C21.8979 37.8082 21.7643 37.7526 21.6507 37.6409C21.5372 37.5292 21.4805 37.3979 21.4805 37.2459V27.7299C21.4805 27.578 21.5372 27.4461 21.6507 27.335C21.7643 27.2232 21.8979 27.1676 22.0528 27.1676H27.1694C27.3243 27.1676 27.4579 27.2232 27.5714 27.335C27.685 27.4461 27.7417 27.578 27.7417 27.7299V28.3531C27.7417 28.505 27.685 28.6369 27.5714 28.7486C27.4579 28.8598 27.3243 28.9153 27.1694 28.9153H23.3819V31.5606H26.7059C26.8608 31.5606 26.9944 31.6161 27.1079 31.7279C27.2208 31.839 27.2776 31.9709 27.2776 32.1228V32.746C27.2776 32.898 27.2208 33.0298 27.1079 33.141C26.9944 33.2533 26.8608 33.3089 26.7059 33.3089H23.3819V36.0599H27.3243C27.4786 36.0599 27.6128 36.1161 27.7264 36.2272C27.8393 36.339 27.896 36.4702 27.896 36.6222Z" fill="white"/>
<path fill-rule="evenodd" clip-rule="evenodd" d="M38.5053 27.7299V37.2459C38.5053 37.3979 38.4486 37.5292 38.3356 37.6409C38.2221 37.7526 38.0879 37.8082 37.933 37.8082H37.191C37.0373 37.8082 36.9025 37.7526 36.7895 37.6409C36.676 37.5292 36.6198 37.3979 36.6198 37.2459V33.2627H31.6723V37.2459C31.6723 37.3979 31.6162 37.5292 31.5026 37.6409C31.3891 37.7526 31.2549 37.8082 31.1012 37.8082H30.3432C30.1889 37.8082 30.0547 37.7526 29.9418 37.6409C29.8277 37.5292 29.7715 37.3979 29.7715 37.2459V27.7299C29.7715 27.578 29.8277 27.4467 29.9418 27.335C30.0547 27.2232 30.1889 27.1676 30.3432 27.1676H31.1012C31.2549 27.1676 31.3891 27.2232 31.5026 27.335C31.6162 27.4467 31.6723 27.578 31.6723 27.7299V31.5144H36.6198V27.7299C36.6198 27.578 36.676 27.4467 36.7895 27.335C36.9025 27.2232 37.0373 27.1676 37.191 27.1676H37.933C38.0879 27.1676 38.2221 27.2232 38.3356 27.335C38.4486 27.4467 38.5053 27.578 38.5053 27.7299Z" fill="white"/>
<path fill-rule="evenodd" clip-rule="evenodd" d="M42.4171 32.5637V36.0449C43.097 36.075 43.4476 36.0904 43.4683 36.0904C44.973 36.0904 45.7256 35.4667 45.7256 34.2209C45.7256 33.6533 45.5294 33.2223 45.138 32.9285C44.746 32.6346 44.2002 32.4874 43.499 32.4874C43.314 32.4874 42.9527 32.5134 42.4171 32.5637ZM40.5156 37.2457V27.7297C40.5156 27.5777 40.5724 27.4465 40.6859 27.3347C40.7994 27.223 40.933 27.1674 41.0879 27.1674H41.8453C41.9996 27.1674 42.1339 27.223 42.2474 27.3347C42.3603 27.4465 42.4171 27.5777 42.4171 27.7297V30.8154C42.8599 30.7651 43.2726 30.7397 43.6539 30.7397C44.9931 30.7397 46.0089 31.0388 46.6988 31.6366C47.3894 32.2343 47.7347 33.0804 47.7347 34.1754C47.7347 35.3106 47.3409 36.2039 46.5522 36.8584C45.7641 37.5112 44.6638 37.8387 43.2519 37.8387C42.8806 37.8387 42.1593 37.8281 41.0879 37.808C40.923 37.808 40.7864 37.7524 40.6782 37.6407C40.57 37.5289 40.5156 37.3977 40.5156 37.2457Z" fill="white"/>
<path fill-rule="evenodd" clip-rule="evenodd" d="M51.0174 32.4874C51.0174 33.5416 51.368 34.4285 52.0687 35.148C52.7693 35.8676 53.6242 36.227 54.6347 36.227C55.748 36.227 56.6342 35.8729 57.2935 35.1628C57.9433 34.4439 58.2678 33.5517 58.2678 32.4874C58.2678 31.3836 57.922 30.4861 57.232 29.7967C56.5414 29.0984 55.6758 28.7484 54.6347 28.7484C53.5935 28.7484 52.7332 29.0984 52.0533 29.7967C51.3627 30.4861 51.0174 31.3836 51.0174 32.4874ZM49.0078 32.4874C49.0078 30.9171 49.5382 29.6099 50.6 28.5657C51.6513 27.5222 52.9963 27.0001 54.6347 27.0001C56.2736 27.0001 57.6234 27.5068 58.6853 28.5202C59.7465 29.5336 60.2769 30.8562 60.2769 32.4874C60.2769 34.0785 59.7412 35.391 58.6693 36.4245C57.5974 37.458 56.2523 37.9753 54.6347 37.9753C53.0064 37.9753 51.6613 37.4687 50.6 36.4553C49.5382 35.4419 49.0078 34.1193 49.0078 32.4874Z" fill="white"/>
<path fill-rule="evenodd" clip-rule="evenodd" d="M63.6358 28.915V32.1834C64.1821 32.2343 64.6303 32.2591 64.9803 32.2591C65.5887 32.2591 66.0759 32.1125 66.4413 31.8186C66.8072 31.5248 66.9905 31.0991 66.9905 30.5421C66.9905 29.4371 66.326 28.8849 64.9963 28.8849L63.6358 28.915ZM64.8106 27.1366C65.5727 27.1366 66.2349 27.23 66.7972 27.418C67.3589 27.6054 67.794 27.8644 68.1038 28.1931C68.4125 28.5224 68.6389 28.8819 68.7837 29.2721C68.9274 29.6629 68.9996 30.091 68.9996 30.5569C68.9996 31.52 68.649 32.3354 67.9489 33.0041C67.2584 33.6733 66.2893 34.0074 65.0424 34.0074C64.4133 34.0074 63.9444 33.9926 63.6358 33.9619V37.2456C63.6358 37.3976 63.579 37.5288 63.4655 37.6406C63.3526 37.7523 63.2184 37.8079 63.0635 37.8079H62.3061C62.1518 37.8079 62.0182 37.7523 61.9041 37.6406C61.7911 37.5288 61.7344 37.3976 61.7344 37.2456V27.7296C61.7344 27.5776 61.7888 27.4464 61.897 27.3346C62.0046 27.2229 62.1417 27.1673 62.3061 27.1673C63.6872 27.1472 64.5221 27.1366 64.8106 27.1366Z" fill="white"/>
<path fill-rule="evenodd" clip-rule="evenodd" d="M15.6838 43.1592V50.4563H16.2248C17.3275 50.4563 18.2599 50.1217 19.0226 49.453C19.7752 48.7843 20.1512 47.9075 20.1512 46.8226C20.1512 45.7288 19.7959 44.8372 19.0846 44.1478C18.3734 43.4785 17.3896 43.1444 16.132 43.1444C16.0906 43.1444 16.0108 43.1468 15.8925 43.1515C15.7737 43.1569 15.7039 43.1592 15.6838 43.1592ZM15.8074 52.204H12.8861C12.7312 52.204 12.5969 52.1485 12.484 52.0373C12.3705 51.9256 12.3137 51.7937 12.3137 51.6418V51.0186C12.3137 50.8667 12.3705 50.7348 12.484 50.6231C12.5969 50.5119 12.7312 50.4563 12.8861 50.4563H13.7824V43.631C13.3082 43.8539 12.8807 44.1679 12.4994 44.5735C12.3752 44.7047 12.2256 44.7709 12.0506 44.7709C11.917 44.7709 11.7881 44.7248 11.6646 44.6338L11.201 44.2542C11.0662 44.1531 11 44.0059 11 43.8125C11 43.7014 11.0408 43.5902 11.1236 43.4785C11.7521 42.7791 12.458 42.2576 13.2414 41.9129C14.0035 41.5688 15.0039 41.3967 16.2402 41.3967C17.9406 41.3967 19.3525 41.8721 20.4758 42.8252C21.5992 43.7777 22.1609 45.0695 22.1609 46.7014C22.1609 48.3834 21.5738 49.7214 20.399 50.7141C19.2029 51.708 17.6722 52.204 15.8074 52.204Z" fill="white"/>
<path fill-rule="evenodd" clip-rule="evenodd" d="M30.3257 51.0185V51.6417C30.3257 51.7937 30.269 51.9255 30.156 52.0373C30.0425 52.1484 29.9083 52.204 29.754 52.204H24.4825C24.3276 52.204 24.194 52.1484 24.0804 52.0373C23.9669 51.9255 23.9102 51.7937 23.9102 51.6417V42.1257C23.9102 41.9737 23.9669 41.8419 24.0804 41.7307C24.194 41.6196 24.3276 41.5634 24.4825 41.5634H29.5991C29.754 41.5634 29.8876 41.6196 30.0011 41.7307C30.1147 41.8419 30.1708 41.9737 30.1708 42.1257V42.7494C30.1708 42.9014 30.1147 43.0326 30.0011 43.1444C29.8876 43.2561 29.754 43.3117 29.5991 43.3117H25.8116V45.9563H29.1356C29.2899 45.9563 29.4241 46.0119 29.5376 46.1237C29.6505 46.2348 29.7073 46.3672 29.7073 46.5192V47.1418C29.7073 47.2937 29.6505 47.4262 29.5376 47.5373C29.4241 47.6491 29.2899 47.7046 29.1356 47.7046H25.8116V50.4563H29.754C29.9083 50.4563 30.0425 50.5119 30.156 50.623C30.269 50.7347 30.3257 50.8666 30.3257 51.0185Z" fill="white"/>
<path fill-rule="evenodd" clip-rule="evenodd" d="M41.0717 42.1257V51.6417C41.0717 51.7937 41.015 51.9255 40.902 52.0373C40.7885 52.1484 40.6543 52.204 40.4994 52.204H39.7574C39.6037 52.204 39.4689 52.1484 39.3559 52.0373C39.2424 51.9255 39.1862 51.7937 39.1862 51.6417V47.6585H34.2387V51.6417C34.2387 51.7937 34.1826 51.9255 34.069 52.0373C33.9555 52.1484 33.8213 52.204 33.6676 52.204H32.9096C32.7553 52.204 32.6211 52.1484 32.5082 52.0373C32.3941 51.9255 32.3379 51.7937 32.3379 51.6417V42.1257C32.3379 41.9737 32.3941 41.8425 32.5082 41.7307C32.6211 41.6196 32.7553 41.5634 32.9096 41.5634H33.6676C33.8213 41.5634 33.9555 41.6196 34.069 41.7307C34.1826 41.8425 34.2387 41.9737 34.2387 42.1257V45.9108H39.1862V42.1257C39.1862 41.9737 39.2424 41.8425 39.3559 41.7307C39.4689 41.6196 39.6037 41.5634 39.7574 41.5634H40.4994C40.6543 41.5634 40.7885 41.6196 40.902 41.7307C41.015 41.8425 41.0717 41.9737 41.0717 42.1257Z" fill="white"/>
<path fill-rule="evenodd" clip-rule="evenodd" d="M48.2026 38.7209C48.5118 38.7209 48.7719 38.8095 48.983 38.9863C49.1947 39.1643 49.2999 39.3895 49.2999 39.6633C49.2999 39.9672 49.1947 40.2108 48.983 40.3929C48.7719 40.5756 48.5118 40.6666 48.2026 40.6666C47.8519 40.6666 47.5664 40.5756 47.3447 40.3929C47.1229 40.2108 47.0124 39.9672 47.0124 39.6633C47.0124 39.3895 47.1259 39.1643 47.3529 38.9863C47.5788 38.8095 47.8626 38.7209 48.2026 38.7209ZM44.6167 38.7209C44.9253 38.7209 45.1854 38.8095 45.3971 38.9863C45.6076 39.1643 45.714 39.3895 45.714 39.6633C45.714 39.9672 45.6076 40.2108 45.3971 40.3929C45.1854 40.5756 44.9253 40.6666 44.6167 40.6666C44.2661 40.6666 43.9793 40.5756 43.7582 40.3929C43.5365 40.2108 43.4259 39.9672 43.4259 39.6633C43.4259 39.3895 43.5388 39.1643 43.7659 38.9863C43.9929 38.8095 44.2761 38.7209 44.6167 38.7209ZM49.5009 51.0187V51.6419C49.5009 51.7932 49.4447 51.9257 49.3312 52.0368C49.2177 52.1486 49.0835 52.2041 48.9292 52.2041H43.6577C43.5034 52.2041 43.3691 52.1486 43.2562 52.0368C43.1421 51.9257 43.0859 51.7932 43.0859 51.6419V42.1258C43.0859 41.9739 43.1421 41.842 43.2562 41.7309C43.3691 41.6191 43.5034 41.5635 43.6577 41.5635H48.7749C48.9292 41.5635 49.0628 41.6191 49.1763 41.7309C49.2898 41.842 49.3466 41.9739 49.3466 42.1258V42.749C49.3466 42.9009 49.2898 43.0328 49.1763 43.1439C49.0628 43.2563 48.9292 43.3118 48.7749 43.3118H44.9874V45.9565H48.3113C48.4651 45.9565 48.5993 46.0121 48.7128 46.1238C48.8263 46.235 48.8825 46.3674 48.8825 46.5187V47.1419C48.8825 47.2939 48.8263 47.4263 48.7128 47.5375C48.5993 47.6492 48.4651 47.7042 48.3113 47.7042H44.9874V50.4564H48.9292C49.0835 50.4564 49.2177 50.5114 49.3312 50.6232C49.4447 50.7343 49.5009 50.8667 49.5009 51.0187Z" fill="white"/>
<path fill-rule="evenodd" clip-rule="evenodd" d="M53.4132 43.3117V46.5795C53.9595 46.6304 54.4082 46.6558 54.7576 46.6558C55.366 46.6558 55.8532 46.5086 56.2192 46.2147C56.5846 45.9209 56.7679 45.4952 56.7679 44.9382C56.7679 43.8338 56.1033 43.281 54.7736 43.281L53.4132 43.3117ZM54.588 41.5333C55.3507 41.5333 56.0123 41.6267 56.5745 41.8147C57.1362 42.0015 57.5714 42.2605 57.8812 42.5892C58.1898 42.9192 58.4168 43.2786 58.5611 43.6688C58.7054 44.0591 58.7775 44.4871 58.7775 44.953C58.7775 45.9162 58.4269 46.7315 57.7263 47.4008C57.0357 48.0695 56.0666 48.4035 54.8203 48.4035C54.1912 48.4035 53.7224 48.3887 53.4132 48.3586V51.6417C53.4132 51.7937 53.3564 51.9255 53.2435 52.0373C53.1299 52.1484 52.9957 52.204 52.8414 52.204H52.084C51.9291 52.204 51.7955 52.1484 51.682 52.0373C51.5685 51.9255 51.5117 51.7937 51.5117 51.6417V42.1257C51.5117 41.9738 51.5661 41.8425 51.6743 41.7308C51.7825 41.6196 51.9191 41.5634 52.084 41.5634C53.4646 41.5433 54.2994 41.5333 54.588 41.5333Z" fill="white"/>
</svg>
