<svg width="150" height="45" viewBox="0 0 150 45" fill="none" xmlns="http://www.w3.org/2000/svg">
<g clip-path="url(#clip0)">
<path d="M149.005 39.4308C149.005 41.7808 147.099 43.6842 144.742 43.6842H5.25703C2.90131 43.6842 0.989258 41.7808 0.989258 39.4308V5.51139C0.989258 3.16258 2.9014 1.25244 5.25703 1.25244H144.741C147.099 1.25244 149.004 3.16258 149.004 5.51139L149.005 39.4308Z" fill="white"/>
<path d="M144.743 44.6742H5.25728C2.35905 44.6742 0 42.3231 0 39.4313V5.51297C0 2.61888 2.35905 0.264526 5.25728 0.264526H144.742C147.636 0.264526 149.999 2.61888 149.999 5.51297V39.4313C150.001 42.3231 147.639 44.6742 144.743 44.6742Z" fill="#A6A6A6"/>
<path d="M149.005 39.4308C149.005 41.7808 147.099 43.6842 144.742 43.6842H5.25703C2.90131 43.6842 0.989258 41.7808 0.989258 39.4308V5.51139C0.989258 3.16258 2.9014 1.25244 5.25703 1.25244H144.741C147.099 1.25244 149.004 3.16258 149.004 5.51139L149.005 39.4308Z" fill="black"/>
<path d="M33.4933 22.2351C33.4611 18.6558 36.4271 16.9145 36.5627 16.8334C34.8829 14.3869 32.2794 14.0526 31.3645 14.026C29.1777 13.7961 27.0566 15.3331 25.9427 15.3331C24.8065 15.3331 23.0911 14.0482 21.2423 14.0859C18.8633 14.1226 16.6377 15.4985 15.417 17.6352C12.8979 21.9919 14.7766 28.3942 17.1902 31.9158C18.3975 33.6415 19.8083 35.5661 21.6548 35.4984C23.4613 35.4251 24.1361 34.349 26.3162 34.349C28.4762 34.349 29.1099 35.4984 30.9931 35.4551C32.932 35.4251 34.1526 33.7226 35.3177 31.9824C36.7129 30.0067 37.2731 28.0588 37.2955 27.9589C37.2509 27.9433 33.5311 26.5241 33.4933 22.2351ZM29.9358 11.7094C30.9074 10.4955 31.5723 8.84415 31.3877 7.16833C29.9813 7.23053 28.2227 8.14006 27.2098 9.32724C26.3138 10.3734 25.5133 12.0881 25.7201 13.7006C27.3 13.8183 28.9219 12.9043 29.9358 11.7094Z" fill="white"/>
<path d="M59.659 35.2508H57.1343L55.7514 30.9097H50.9442L49.6268 35.2508H47.1689L51.9326 20.4716H54.8742L59.659 35.2508ZM55.3346 29.0884L54.0839 25.2292C53.9516 24.835 53.7026 23.9066 53.3378 22.4451H53.2935C53.1467 23.0737 52.9121 24.0021 52.5909 25.2292L51.3613 29.0884H55.3346ZM71.8857 29.7913C71.8857 31.6038 71.3932 33.0364 70.4071 34.0881C69.5244 35.0242 68.4272 35.4919 67.1186 35.4919C65.7056 35.4919 64.6895 34.9887 64.0725 33.9804V39.572H61.7024V28.0966C61.7024 26.9582 61.6724 25.7912 61.6146 24.594H63.6991L63.8314 26.2831H63.8757C64.6662 25.0104 65.8657 24.374 67.4755 24.374C68.7339 24.374 69.7845 24.8704 70.625 25.8644C71.4643 26.8606 71.8857 28.1688 71.8857 29.7913ZM69.471 29.878C69.471 28.8407 69.2375 27.9856 68.7684 27.3115C68.2559 26.6107 67.5677 26.2599 66.7051 26.2599C66.1203 26.2599 65.5889 26.4553 65.1142 26.8406C64.6384 27.2293 64.3271 27.7368 64.1816 28.3654C64.1082 28.6586 64.0715 28.8974 64.0715 29.0862V30.8641C64.0715 31.6382 64.3094 32.2924 64.7852 32.8277C65.261 33.3607 65.8791 33.6283 66.6396 33.6283C67.5324 33.6283 68.2272 33.283 68.724 32.5977C69.222 31.9103 69.471 31.0041 69.471 29.878ZM84.1556 29.7913C84.1556 31.6038 83.6631 33.0364 82.677 34.0881C81.7932 35.0242 80.6971 35.4919 79.3875 35.4919C77.9745 35.4919 76.9584 34.9887 76.3414 33.9804V39.572H73.9712V28.0966C73.9712 26.9582 73.9412 25.7912 73.8834 24.594H75.9678L76.1001 26.2831H76.1446C76.9339 25.0104 78.1335 24.374 79.7442 24.374C81.0016 24.374 82.0521 24.8704 82.8949 25.8644C83.7332 26.8606 84.1556 28.1688 84.1556 29.7913ZM81.7398 29.878C81.7398 28.8407 81.5054 27.9856 81.0361 27.3115C80.5236 26.6107 79.8377 26.2599 78.975 26.2599C78.3903 26.2599 77.8589 26.4553 77.3819 26.8406C76.9061 27.2293 76.5961 27.7368 76.4503 28.3654C76.3781 28.6586 76.3392 28.8974 76.3392 29.0862V30.8641C76.3392 31.6382 76.5782 32.2924 77.0518 32.8277C77.5276 33.3596 78.1457 33.6283 78.9083 33.6283C79.802 33.6283 80.4969 33.283 80.9928 32.5977C81.4908 31.9103 81.7398 31.0041 81.7398 29.878ZM97.8741 31.1051C97.8741 32.3634 97.4339 33.3862 96.5591 34.1758C95.5962 35.0376 94.2523 35.4696 92.529 35.4696C90.937 35.4696 89.6608 35.1631 88.6981 34.5489L89.2461 32.5755C90.2856 33.1907 91.4273 33.4972 92.6702 33.4972C93.564 33.4972 94.2588 33.2951 94.7547 32.8942C95.2515 32.4922 95.5028 31.9547 95.5028 31.2839C95.5028 30.6832 95.2949 30.18 94.8869 29.7703C94.4767 29.3617 93.7986 28.9807 92.8459 28.6309C90.2556 27.6659 88.9593 26.2543 88.9593 24.3975C88.9593 23.1848 89.4173 22.192 90.3312 21.4157C91.2451 20.6405 92.4568 20.2531 93.9643 20.2531C95.3106 20.2531 96.4323 20.4874 97.3228 20.9549L96.728 22.885C95.8898 22.4318 94.9436 22.2053 93.8853 22.2053C93.0494 22.2053 92.3934 22.4107 91.9242 22.8194C91.5296 23.1848 91.3295 23.6302 91.3295 24.1587C91.3295 24.7419 91.5575 25.2261 92.011 25.6059C92.4045 25.9556 93.1227 26.3366 94.161 26.7453C95.435 27.2584 96.371 27.8558 96.9703 28.5422C97.574 29.2283 97.8741 30.0845 97.8741 31.1051ZM105.731 26.3709H103.118V31.5449C103.118 32.8609 103.578 33.5172 104.501 33.5172C104.925 33.5172 105.276 33.4816 105.554 33.4073L105.619 35.2053C105.153 35.3797 104.538 35.4673 103.776 35.4673C102.84 35.4673 102.109 35.1819 101.581 34.6111C101.055 34.0403 100.79 33.0841 100.79 31.7381V26.3664H99.2337V24.5895H100.79V22.6383L103.118 21.9365V24.5895H105.731V26.3709ZM117.495 29.8347C117.495 31.4726 117.026 32.8175 116.09 33.8693C115.11 34.952 113.807 35.4918 112.183 35.4918C110.615 35.4918 109.369 34.9731 108.44 33.937C107.51 32.8986 107.046 31.5904 107.046 30.0123C107.046 28.3609 107.526 27.0083 108.483 25.9566C109.443 24.9038 110.734 24.3775 112.359 24.3775C113.924 24.3775 115.181 24.8972 116.133 25.9344C117.042 26.9406 117.495 28.2399 117.495 29.8347ZM115.038 29.8891C115.038 28.9128 114.827 28.0755 114.403 27.3747C113.906 26.5285 113.195 26.1054 112.273 26.1054C111.324 26.1054 110.596 26.5285 110.1 27.3747C109.675 28.0755 109.464 28.9272 109.464 29.9334C109.464 30.9108 109.675 31.7503 110.1 32.4489C110.612 33.2951 111.327 33.7182 112.253 33.7182C113.159 33.7182 113.869 33.2862 114.383 32.4278C114.819 31.7104 115.038 30.8675 115.038 29.8891ZM125.202 26.6763C124.968 26.6329 124.716 26.6106 124.455 26.6106C123.621 26.6106 122.977 26.9239 122.523 27.5546C122.13 28.1099 121.932 28.8118 121.932 29.6591V35.2507H119.561V27.9501C119.561 26.7229 119.538 25.6035 119.493 24.5951H121.557L121.644 26.634H121.709C121.961 25.9333 122.354 25.3679 122.894 24.9448C123.423 24.564 123.993 24.374 124.608 24.374C124.827 24.374 125.025 24.3896 125.2 24.4174L125.202 26.6763ZM135.802 29.4182C135.802 29.8424 135.775 30.1999 135.716 30.4921H128.605C128.632 31.5449 128.977 32.3512 129.637 32.9064C130.236 33.4018 131.011 33.6505 131.963 33.6505C133.015 33.6505 133.976 33.4839 134.84 33.1474L135.211 34.7899C134.202 35.2297 133.01 35.4485 131.635 35.4485C129.98 35.4485 128.682 34.962 127.737 33.9914C126.794 33.0197 126.322 31.7137 126.322 30.0779C126.322 28.4719 126.761 27.1338 127.64 26.0666C128.561 24.9272 129.805 24.3573 131.37 24.3573C132.908 24.3573 134.071 24.9271 134.862 26.0666C135.488 26.9694 135.802 28.0889 135.802 29.4182ZM133.542 28.8041C133.559 28.1011 133.403 27.4958 133.082 26.9839C132.672 26.3242 132.04 25.9955 131.194 25.9955C130.419 25.9955 129.788 26.3164 129.308 26.9606C128.913 27.4725 128.679 28.0878 128.606 28.8018L133.542 28.8041Z" fill="white"/>
<path d="M54.1923 15.1822H52.9504L52.2712 13.0488H49.9088L49.2607 15.1822H48.0522L50.3935 7.9181H51.8387L54.1923 15.1822ZM52.0666 12.1537L51.4519 10.2569C51.3874 10.0626 51.2684 9.61057 51.085 8.88872H51.0628C50.9872 9.20078 50.8793 9.65389 50.717 10.2569L50.1134 12.1537H52.0666ZM60.0465 9.94485L58.061 15.1822H56.9281L55.0071 9.94485H56.2589L57.1549 12.7146C57.3061 13.1776 57.4351 13.6196 57.5318 14.0394H57.564C57.6509 13.663 57.7797 13.221 57.9409 12.7146L58.8258 9.94485H60.0465ZM64.2732 15.1822L64.1865 14.5791H64.1542C63.7984 15.0644 63.2804 15.3009 62.6223 15.3009C61.684 15.3009 61.0147 14.6435 61.0147 13.7595C61.0147 12.4668 62.1364 11.7983 64.0786 11.7983V11.7016C64.0786 11.012 63.7117 10.6666 62.9891 10.6666C62.471 10.6666 62.0175 10.7965 61.6195 11.0553L61.3826 10.2901C61.8684 9.98807 62.4722 9.83703 63.1847 9.83703C64.5543 9.83703 65.2458 10.5589 65.2458 12.0037V13.9327C65.2458 14.4613 65.268 14.8711 65.3214 15.1832L64.2732 15.1822ZM64.1109 12.5735C62.8159 12.5735 62.1688 12.8867 62.1688 13.6296C62.1688 14.1794 62.5034 14.4481 62.967 14.4481C63.5605 14.4481 64.1109 13.9961 64.1109 13.382V12.5735ZM67.8407 9.08195C67.4527 9.08195 67.1503 8.77989 67.1503 8.3812C67.1503 7.98251 67.4628 7.69155 67.8629 7.69155C68.2621 7.69155 68.5856 7.98251 68.5745 8.3812C68.5745 8.8021 68.2733 9.08195 67.8407 9.08195ZM68.4455 15.1822H67.2804V9.94485H68.4455V15.1822ZM71.6806 15.1822H70.5155V7.54163H71.6806V15.1822ZM76.6321 15.1822L76.5453 14.5791H76.5132C76.1574 15.0644 75.6394 15.3009 74.9812 15.3009C74.0429 15.3009 73.3737 14.6435 73.3737 13.7595C73.3737 12.4668 74.4953 11.7983 76.4375 11.7983V11.7016C76.4375 11.012 76.0706 10.6666 75.348 10.6666C74.8299 10.6666 74.3764 10.7965 73.9784 11.0553L73.7406 10.289C74.2264 9.98696 74.83 9.83592 75.5426 9.83592C76.9123 9.83592 77.6037 10.5578 77.6037 12.0026V13.9316C77.6037 14.4602 77.6271 14.87 77.6782 15.1821H76.6321V15.1822ZM76.4698 12.5735C75.1747 12.5735 74.5277 12.8867 74.5277 13.6296C74.5277 14.1794 74.8622 14.4481 75.3258 14.4481C75.9194 14.4481 76.4698 13.9961 76.4698 13.382V12.5735ZM82.3242 15.301C81.5804 15.301 81.0312 14.9878 80.6754 14.3737H80.6521L80.5854 15.1822H79.5926C79.6249 14.7624 79.636 14.2871 79.636 13.7707V7.54163H80.8022V10.7111H80.8244C81.17 10.1292 81.7294 9.83824 82.4964 9.83824C83.7593 9.83824 84.6442 10.9166 84.6442 12.4891C84.6442 14.115 83.6615 15.301 82.3242 15.301ZM82.0873 10.7522C81.4169 10.7522 80.8034 11.3341 80.8034 12.1426V13.0588C80.8034 13.7807 81.3547 14.3737 82.0674 14.3737C82.9401 14.3737 83.4592 13.663 83.4592 12.5313C83.458 11.4752 82.9177 10.7522 82.0873 10.7522ZM87.5313 15.1822H86.3675V7.54163H87.5313V15.1822ZM93.8738 12.8434H90.3763C90.3997 13.8351 91.0555 14.3948 92.0271 14.3948C92.5452 14.3948 93.0199 14.3082 93.4401 14.1472L93.6213 14.9556C93.1255 15.1711 92.5429 15.2788 91.8637 15.2788C90.2228 15.2788 89.2523 14.2438 89.2523 12.639C89.2523 11.0332 90.2462 9.82602 91.7325 9.82602C93.07 9.82602 93.9126 10.8177 93.9126 12.3159C93.917 12.5202 93.907 12.7034 93.8738 12.8434ZM92.8053 12.0138C92.8053 11.2053 92.395 10.6345 91.6502 10.6345C90.9809 10.6345 90.454 11.2164 90.3762 12.0138H92.8053ZM100.935 15.301C99.4033 15.301 98.4106 14.1583 98.4106 12.6068C98.4106 10.9899 99.4244 9.83713 101.023 9.83713C102.532 9.83713 103.548 10.9255 103.548 12.5213C103.548 14.1583 102.501 15.301 100.935 15.301ZM100.98 10.6878C100.138 10.6878 99.5991 11.4741 99.5991 12.5735C99.5991 13.6519 100.149 14.4381 100.969 14.4381C101.788 14.4381 102.337 13.5974 102.337 12.5513C102.338 11.4852 101.799 10.6878 100.98 10.6878ZM109.811 15.1822H108.647V12.1748C108.647 11.2486 108.291 10.7844 107.59 10.7844C106.9 10.7844 106.424 11.3775 106.424 12.0671V15.1822H105.26V11.4419C105.26 10.9788 105.248 10.4824 105.217 9.94374H106.242L106.296 10.7522H106.328C106.639 10.1925 107.278 9.83602 107.989 9.83602C109.089 9.83602 109.811 10.6767 109.811 12.0449V15.1822H109.811ZM117.434 10.8177H116.152V13.3609C116.152 14.0083 116.378 14.3315 116.831 14.3315C117.036 14.3315 117.21 14.3093 117.349 14.2771L117.381 15.1611C117.154 15.2478 116.851 15.291 116.476 15.291C115.558 15.291 115.01 14.7846 115.01 13.4586V10.8177H114.245V9.94485H115.01V8.98534L116.152 8.63996V9.94374H117.434V10.8177ZM123.604 15.1822H122.438V12.197C122.438 11.2597 122.082 10.7855 121.381 10.7855C120.777 10.7855 120.217 11.1953 120.217 12.0249V15.1822H119.051V7.54163H120.217V10.6878H120.239C120.606 10.117 121.135 9.83602 121.814 9.83602C122.925 9.83602 123.604 10.6978 123.604 12.0671V15.1822ZM129.557 12.8434H126.061C126.083 13.8351 126.739 14.3948 127.711 14.3948C128.23 14.3948 128.704 14.3082 129.124 14.1472L129.306 14.9556C128.81 15.1711 128.227 15.2788 127.548 15.2788C125.907 15.2788 124.936 14.2438 124.936 12.639C124.936 11.0332 125.93 9.82602 127.416 9.82602C128.754 9.82602 129.596 10.8177 129.596 12.3159C129.601 12.5202 129.59 12.7034 129.557 12.8434ZM128.489 12.0138C128.489 11.2053 128.08 10.6345 127.335 10.6345C126.665 10.6345 126.138 11.2164 126.061 12.0138H128.489Z" fill="white"/>
</g>
<defs>
<clipPath id="clip0">
<rect width="150" height="44.4134" fill="white" transform="translate(0 0.262207)"/>
</clipPath>
</defs>
</svg>
