<svg width="26" height="26" viewBox="0 0 26 26" fill="none" xmlns="http://www.w3.org/2000/svg">
<path fill-rule="evenodd" clip-rule="evenodd" d="M13.1971 4.33342H13.2015C18.0907 4.33342 22.0666 8.31151 22.0666 13.2007C22.0666 18.0899 18.0907 22.068 13.2015 22.068C11.3981 22.068 9.72556 21.5315 8.32342 20.6027L4.91506 21.6922L6.02014 18.398C4.95717 16.9383 4.33203 15.1404 4.33203 13.2007C4.33203 8.3104 8.3079 4.33342 13.1971 4.33342ZM16.6208 18.1066C17.298 17.9603 18.1471 17.4593 18.361 16.8552C18.5749 16.25 18.5749 15.7346 18.5128 15.6248C18.4627 15.5378 18.3442 15.4807 18.1673 15.3955C18.1212 15.3733 18.0712 15.3493 18.0174 15.3222C17.7569 15.1926 16.49 14.5663 16.2506 14.4832C16.0156 14.3945 15.7917 14.4255 15.6143 14.676C15.5806 14.7233 15.547 14.7706 15.5135 14.8177C15.2995 15.1186 15.0932 15.4088 14.9216 15.5938C14.7653 15.7601 14.5104 15.7811 14.2964 15.6925C14.2731 15.6827 14.2464 15.6719 14.2165 15.6598C13.8777 15.523 13.1265 15.2196 12.2171 14.41C11.4501 13.7272 10.9291 12.8771 10.7784 12.6222C10.6304 12.3664 10.758 12.2165 10.876 12.0779L10.8825 12.0702C10.9586 11.976 11.0324 11.8977 11.1066 11.8189C11.16 11.7623 11.2136 11.7054 11.2683 11.6423C11.2764 11.633 11.2843 11.6239 11.292 11.615C11.4082 11.4814 11.4774 11.4019 11.5554 11.2355C11.644 11.0637 11.5808 10.8864 11.5177 10.7556C11.4742 10.664 11.2057 10.0125 10.9752 9.4532C10.8765 9.21386 10.7848 8.9914 10.7207 8.83694C10.5489 8.42572 10.4181 8.4102 10.1576 8.39911C10.1497 8.39871 10.1416 8.39831 10.1335 8.39789C10.0511 8.39373 9.96045 8.38914 9.86059 8.38914C9.52142 8.38914 9.16783 8.48889 8.95391 8.70725C8.94644 8.71489 8.93864 8.72281 8.93056 8.73103C8.65688 9.00937 8.04723 9.62939 8.04723 10.8653C8.04723 12.1037 8.92587 13.3021 9.08845 13.5238C9.09293 13.5299 9.09686 13.5353 9.10022 13.5399C9.11 13.5528 9.12844 13.5795 9.15527 13.6183C9.48722 14.099 11.104 16.4405 13.515 17.4393C15.5523 18.2839 16.1575 18.2052 16.6208 18.1066Z" fill="#47AF53"/>
</svg>
