<svg width="70" height="121" viewBox="0 0 70 121" fill="none" xmlns="http://www.w3.org/2000/svg">
<path fill-rule="evenodd" clip-rule="evenodd" d="M29.336 0.408054C28.8474 0.496901 28.4031 0.585747 27.9145 0.674594C29.4249 9.0706 31.1574 19.0658 32.4457 26.3957C33.2897 26.1736 34.1782 26.0403 35.1111 26.0403C35.3776 26.0403 35.5997 26.0403 35.8663 26.0847L35.8218 0.00824457C33.6451 -0.0361787 31.5128 0.0970912 29.336 0.452477V0.408054ZM31.7349 26.5734C30.6687 26.9288 29.6914 27.4618 28.8029 28.1726L16.4533 5.16135C18.5412 3.91749 20.7623 2.85134 23.1168 2.00729L31.7349 26.5734ZM28.7585 28.1726C26.4041 30.0384 24.8937 32.9259 24.8937 36.1688C24.8937 41.7661 29.4249 46.3417 35.0666 46.3417C35.7774 46.3417 36.4882 46.2529 37.1545 46.1196C38.6649 55.2264 41.5524 71.2632 43.3738 81.5694L39.9976 85.7452C38.043 87.8331 36.4438 89.8766 34.4003 89.4768L34.3559 46.6083L27.9145 83.3463C27.7812 83.2131 27.6924 83.0798 27.5591 82.9465C25.6045 80.8142 23.3833 78.1932 21.0733 75.3057L30.9353 47.1414C29.8691 49.096 28.8474 50.9173 28.2254 51.9835L27.7812 52.7387C26.4929 55.0043 25.2935 57.2699 24.1385 59.5355C23.0279 61.6233 21.9618 63.6668 20.7623 65.7991L17.8748 71.1744C16.4533 69.3086 15.0762 67.3984 13.699 65.4437L27.5591 46.6527C23.0279 51.4504 16.9864 57.7585 12.0109 62.956C10.9448 61.4012 9.96748 59.8464 8.99016 58.336C11.5667 56.2037 14.1433 54.027 16.7198 51.8502C18.3635 50.4287 20.0516 49.0516 21.6952 47.6744L17.6971 50.3398C17.475 50.5175 17.2529 50.6064 17.0308 50.7396C16.8531 50.8285 16.6754 50.9618 16.4533 51.095C16.2756 51.2283 16.0979 51.3616 15.9646 51.4504C15.7425 51.6281 15.5204 51.8058 15.2094 51.9835L8.01285 56.7812C7.16881 55.3597 6.36919 54.027 5.61399 52.6943L17.5639 46.2085C13.8323 47.8521 9.56767 49.7179 5.08091 51.6725C4.37014 50.2954 3.70379 49.0071 3.17071 47.8077C6.1915 46.7415 9.16786 45.7198 12.1442 44.6981C9.16786 45.4977 6.0138 46.3417 2.90417 47.1858C2.37109 45.9419 1.88244 44.6537 1.52705 43.4098L9.2567 41.8994L1.34936 42.9211C0.993971 41.6329 0.683008 40.3446 0.460892 39.0563L8.1017 38.5677H0.372045C0.194352 37.4127 0.061082 36.2132 0.0166587 35.0582L7.03554 35.5025C4.6811 35.1915 2.32667 34.8805 0.0166587 34.614C-0.0277646 33.1924 0.0166587 31.8153 0.149929 30.4382L9.96748 32.3484L6.10265 31.2822C4.76995 30.9269 3.88149 30.6603 3.21514 30.4826C2.28225 30.2161 1.26051 29.9495 0.283198 29.683C0.460892 28.217 0.727431 26.7955 1.12724 25.3739L3.88149 26.3513C4.50341 26.5734 8.99016 28.1282 14.2321 29.9051L12.3663 29.0611C8.6792 27.4174 5.03649 25.8182 1.39378 24.2189C1.83801 22.7085 2.41552 21.1982 3.12629 19.7766L19.2964 28.6168L9.61209 22.0866C9.38997 21.9089 9.21228 21.7757 9.03459 21.6424C8.85689 21.5091 8.63478 21.3314 8.41266 21.1982L3.92591 18.2662C4.81437 16.6226 5.79169 15.1122 6.94669 13.6462C8.14612 14.6235 9.30113 15.6008 10.4117 16.5781C10.9892 17.0668 13.6546 19.288 16.9419 21.9978C19.5185 24.1301 22.4504 26.5734 25.2047 28.839L8.6792 11.5583C10.1007 10.0035 11.6111 8.58194 13.2992 7.29366L19.9627 16.356C20.3181 16.8002 20.8512 17.5554 21.6508 18.6216C23.4277 20.976 26.2264 24.7076 28.7585 28.1726ZM37.2434 46.0752L47.7717 76.1053L52.1696 70.6857C52.4361 70.3303 52.7471 69.9305 53.0136 69.5751L41.0638 47.3635C43.6403 50.9173 46.5723 54.7822 48.3936 57.2254C49.1932 58.2472 49.7263 59.0024 50.0817 59.491L55.2792 66.5543C56.4342 64.9551 57.5892 63.3114 58.7442 61.5789L44.8398 47.0525C47.594 49.3181 50.5259 51.7614 53.1025 53.8937C56.4342 56.6479 59.0552 58.8247 59.6327 59.3133L59.9881 59.6243C60.8766 58.2028 61.765 56.7812 62.6091 55.3152L61.6318 54.6489C61.4096 54.5156 61.1875 54.3379 61.0098 54.2047C60.8321 54.0714 60.6545 53.9381 60.4323 53.7604L50.7481 47.2302L63.3643 54.1158C64.1195 52.8275 64.7858 51.4948 65.4522 50.2066C62.8756 49.0516 60.2546 47.8965 57.6781 46.7415L55.8567 45.9419C60.5212 47.5412 64.6081 48.9627 65.8964 49.4069C66.5183 48.1187 67.0958 46.8748 67.5845 45.5865L66.8737 45.4088C66.2518 45.2312 65.3189 44.9646 63.9418 44.6092L60.0769 43.5431L67.7622 45.0535C68.2508 43.7208 68.6951 42.4325 69.0505 41.1886C67.0514 40.9221 65.0079 40.6556 63.0089 40.4334L69.1393 40.8332C69.3614 40.0336 69.5391 39.234 69.6724 38.4344C69.7168 38.079 69.7612 37.768 69.8056 37.4127H61.9427L69.8501 36.924C69.9833 35.5913 70.0278 34.2586 69.9833 32.8815L60.7877 34.0365L69.9389 32.2596C69.8501 30.8824 69.6724 29.5053 69.4058 28.1282C65.541 29.1499 61.5873 30.2161 57.9002 31.2378C61.6318 29.9495 65.4077 28.6168 69.2281 27.2841C68.8728 25.8182 68.4285 24.3966 67.8954 22.9751C62.2981 25.4184 57.0117 27.7284 52.4806 29.7274L64.4749 23.2416L64.5193 23.1972C65.0079 22.8862 65.1856 22.7974 65.6743 22.5753L65.8964 22.4864C66.2962 22.3087 66.7849 22.0422 67.3624 21.7312C66.696 20.1764 65.8964 18.666 65.0079 17.2001L54.8794 23.9968C54.5685 24.2189 54.3463 24.3522 54.1242 24.5299C53.991 24.6632 53.8133 24.752 53.6356 24.8853C53.4135 25.0186 53.2358 25.1074 53.0581 25.2407C52.836 25.3739 52.6583 25.4628 52.3917 25.6405L48.3936 28.3059C50.0373 26.9288 51.7254 25.5072 53.369 24.1301C56.8785 21.1982 60.3435 18.2218 63.8085 15.3787C62.6979 13.7795 61.4541 12.2691 60.1214 10.892C54.835 16.4004 47.6828 23.8636 42.5297 29.3276L57.8114 8.62636C56.0788 7.11597 54.2575 5.78327 52.3473 4.62827L49.3709 10.1812C48.2159 12.3135 47.1054 14.357 45.9948 16.4449C44.7953 18.7104 43.5959 20.976 42.3521 23.2416L41.9078 23.9968C41.4636 24.7964 40.7528 26.0403 39.9976 27.373C43.1073 29.1055 45.1951 32.4372 45.1951 36.2577C45.1951 41.0998 41.7746 45.1867 37.2434 46.164V46.0752ZM39.7311 27.1509L48.3492 2.54037C47.8605 2.31826 47.3275 2.14056 46.8388 1.96287C44.9286 1.29652 42.9296 0.763441 40.8417 0.408054L36.3549 26.0403C37.5543 26.218 38.7093 26.5734 39.7311 27.1065V27.1509Z" fill="#1A1A1A"/>
<path d="M14.801 115.814C15.452 115.814 15.9954 115.628 16.4312 115.257C16.867 114.88 17.0849 114.404 17.0849 113.828V113.142L14.9543 113.288C13.7438 113.363 13.1385 113.793 13.1385 114.579C13.1385 114.956 13.2891 115.257 13.5904 115.483C13.8917 115.703 14.2953 115.814 14.801 115.814ZM14.3329 117.21C13.4559 117.21 12.7431 116.973 12.1943 116.5C11.6455 116.021 11.3711 115.391 11.3711 114.611C11.3711 113.847 11.6562 113.247 12.2266 112.812C12.8022 112.376 13.6335 112.123 14.7203 112.053L17.0849 111.916V111.238C17.0849 110.737 16.9235 110.355 16.6007 110.092C16.2833 109.823 15.8313 109.688 15.2449 109.688C14.7714 109.688 14.3706 109.801 14.0424 110.027C13.7196 110.253 13.5205 110.557 13.4452 110.939H11.8069C11.8338 110.164 12.1754 109.522 12.8318 109.01C13.4882 108.499 14.3087 108.244 15.2933 108.244C16.364 108.244 17.2167 108.505 17.8516 109.027C18.4918 109.548 18.812 110.242 18.812 111.109V117.121H17.1414V115.66H17.1011C16.8589 116.134 16.4877 116.51 15.9873 116.79C15.487 117.07 14.9355 117.21 14.3329 117.21Z" fill="#1A1A1A"/>
<path d="M20.9296 105.476H25.4894C26.6192 105.476 27.5419 105.831 28.2575 106.541C28.9731 107.251 29.3309 108.171 29.3309 109.301C29.3309 110.436 28.9677 111.362 28.2414 112.077C27.515 112.787 26.5789 113.142 25.4329 113.142H22.7374V117.121H20.9296V105.476ZM22.7374 107.001V111.625H25.0132C25.7987 111.625 26.4067 111.423 26.8371 111.02C27.2676 110.611 27.4828 110.041 27.4828 109.309C27.4828 108.572 27.2676 108.004 26.8371 107.606C26.4067 107.203 25.7987 107.001 25.0132 107.001H22.7374Z" fill="#1A1A1A"/>
<path d="M33.2886 115.814C33.9396 115.814 34.483 115.628 34.9188 115.257C35.3546 114.88 35.5725 114.404 35.5725 113.828V113.142L33.4419 113.288C32.2314 113.363 31.6261 113.793 31.6261 114.579C31.6261 114.956 31.7767 115.257 32.078 115.483C32.3793 115.703 32.7828 115.814 33.2886 115.814ZM32.8205 117.21C31.9435 117.21 31.2306 116.973 30.6819 116.5C30.1331 116.021 29.8587 115.391 29.8587 114.611C29.8587 113.847 30.1438 113.247 30.7141 112.812C31.2898 112.376 32.1211 112.123 33.2079 112.053L35.5725 111.916V111.238C35.5725 110.737 35.4111 110.355 35.0883 110.092C34.7708 109.823 34.3189 109.688 33.7325 109.688C33.259 109.688 32.8582 109.801 32.53 110.027C32.2072 110.253 32.0081 110.557 31.9328 110.939H30.2945C30.3214 110.164 30.663 109.522 31.3194 109.01C31.9758 108.499 32.7963 108.244 33.7809 108.244C34.8515 108.244 35.7043 108.505 36.3392 109.027C36.9794 109.548 37.2996 110.242 37.2996 111.109V117.121H35.629V115.66H35.5886C35.3465 116.134 34.9753 116.51 34.4749 116.79C33.9746 117.07 33.4231 117.21 32.8205 117.21Z" fill="#1A1A1A"/>
<path d="M39.2397 117.121V108.357H40.9102V109.834H40.9425C41.077 109.344 41.3326 108.962 41.7092 108.688C42.0912 108.408 42.5404 108.268 43.0569 108.268C43.2991 108.268 43.4927 108.289 43.638 108.332V109.971C43.4443 109.895 43.1888 109.858 42.8713 109.858C42.2956 109.858 41.8383 110.043 41.4994 110.415C41.1604 110.781 40.9909 111.273 40.9909 111.892V117.121H39.2397Z" fill="#1A1A1A"/>
<path d="M45.4974 106.388H47.2406V108.357H48.9193V109.737H47.2406V114.635C47.2406 115.017 47.3267 115.3 47.4989 115.483C47.6764 115.66 47.9481 115.749 48.314 115.749C48.5238 115.749 48.7229 115.736 48.9112 115.709V117.089C48.6745 117.148 48.3463 117.178 47.9266 117.178C47.0496 117.178 46.4255 116.997 46.0543 116.637C45.683 116.271 45.4974 115.663 45.4974 114.813V109.737H44.2869V108.357H45.4974V106.388Z" fill="#1A1A1A"/>
<path d="M51.4566 120.309C51.166 120.309 50.9293 120.293 50.7464 120.26V118.84C50.854 118.867 51.0396 118.88 51.3032 118.88C51.7229 118.88 52.0538 118.781 52.2959 118.582C52.5434 118.388 52.7425 118.06 52.8931 117.597L53.0303 117.145L49.8506 108.357H51.731L53.9826 115.523H54.023L56.2746 108.357H58.1146L54.83 117.525C54.4534 118.574 54.0203 119.3 53.5307 119.704C53.0464 120.107 52.3551 120.309 51.4566 120.309Z" fill="#1A1A1A"/>
</svg>
