<svg width="170" height="61" viewBox="0 0 170 61" fill="none" xmlns="http://www.w3.org/2000/svg">
<g clip-path="url(#clip0)">
<path d="M80.8241 36.8445C81.6602 36.8445 82.5945 37.1255 83.1927 37.7503L82.6197 38.5836C82.1954 38.1672 81.5345 37.8733 80.8737 37.8733C79.6016 37.8733 78.6786 38.8172 78.6786 40.078C78.6786 41.3409 79.6016 42.3087 80.9115 42.3087C81.6098 42.3087 82.3702 41.9777 82.8571 41.4745L83.3436 42.345C82.7688 42.9464 81.8093 43.3371 80.8241 43.3371C78.8286 43.3371 77.4434 41.9525 77.4434 40.0908C77.4434 38.2535 78.8407 36.8445 80.8241 36.8445Z" fill="#1A1A1A"/>
<path d="M80.8244 43.4786C78.7819 43.4786 77.3008 42.0533 77.3008 40.0907C77.3008 38.1268 78.7819 36.7019 80.8244 36.7019C81.8023 36.7019 82.7271 37.0581 83.2974 37.6524L83.3776 37.7356L82.6411 38.8056L82.5177 38.6839C82.0974 38.2715 81.4667 38.0149 80.8739 38.0149C79.6856 38.0149 78.8234 38.8826 78.8234 40.0779C78.8234 41.2886 79.7018 42.1661 80.9118 42.1661C81.5649 42.1661 82.2884 41.8568 82.7528 41.378L82.8893 41.2373L83.5204 42.367L83.4483 42.4422C82.8366 43.0821 81.8312 43.4786 80.8244 43.4786ZM80.8244 36.9851C78.9495 36.9851 77.5886 38.291 77.5886 40.0903C77.5886 41.8895 78.9495 43.195 80.8244 43.195C81.7154 43.195 82.6001 42.8613 83.1654 42.3201L82.8204 41.7054C82.3055 42.1608 81.5762 42.4489 80.9113 42.4489C79.5342 42.4489 78.5346 41.4514 78.5346 40.0774C78.5346 38.7397 79.5401 37.7308 80.8735 37.7308C81.4834 37.7308 82.1262 37.971 82.5943 38.3662L83.0073 37.7666C82.4861 37.2758 81.6794 36.9851 80.8244 36.9851Z" fill="#1A1A1A"/>
<path d="M87.4294 36.8445C89.2124 36.8445 90.1615 38.1557 90.1615 39.7478C90.1615 39.9076 90.1359 40.078 90.1115 40.2501H85.5212C85.5839 41.5856 86.5573 42.3087 87.6916 42.3087C88.3651 42.3087 89.0511 42.0259 89.5489 41.5852L90.062 42.4547C89.4507 43.007 88.4903 43.3371 87.6159 43.3371C85.6348 43.3371 84.2617 41.9281 84.2617 40.0908C84.2617 38.1176 85.6348 36.8445 87.4294 36.8445ZM88.9394 39.3916C88.9016 38.326 88.2281 37.7623 87.4051 37.7623C86.4704 37.7623 85.7343 38.3636 85.5586 39.3916H88.9394Z" fill="#1A1A1A"/>
<path d="M87.6171 43.4786C85.5899 43.4786 84.1191 42.0541 84.1191 40.0907C84.1191 38.0949 85.4809 36.7019 87.4306 36.7019C89.15 36.7019 90.3059 37.9259 90.3059 39.7477C90.3059 39.9172 90.2798 40.0969 90.2555 40.2708L90.237 40.3916H85.6787C85.8048 41.6165 86.7657 42.1661 87.6941 42.1661C88.3112 42.1661 88.968 41.9094 89.4541 41.4798L89.5865 41.3629L90.2456 42.4821L90.1604 42.5591C89.541 43.1175 88.5428 43.4786 87.6171 43.4786ZM87.4306 36.9851C85.6507 36.9851 84.4079 38.2627 84.4079 40.0903C84.4079 41.8895 85.7566 43.195 87.6171 43.195C88.4324 43.195 89.3045 42.8949 89.8775 42.425L89.5122 41.8028C88.9923 42.2108 88.3234 42.4493 87.6941 42.4493C86.3706 42.4493 85.4399 41.5678 85.3791 40.2558L85.3715 40.108H89.9874C90.0037 39.9818 90.0176 39.8606 90.0176 39.7477C90.0176 38.0697 89.0027 36.9851 87.4306 36.9851ZM89.0896 39.534H85.3899L85.4179 39.369C85.5989 38.3069 86.3792 37.6206 87.4058 37.6206C88.3883 37.6206 89.0473 38.3136 89.0838 39.388L89.0896 39.534ZM85.7368 39.2504H88.7856C88.7027 38.4268 88.1747 37.9047 87.4062 37.9047C86.5679 37.9047 85.9413 38.4149 85.7368 39.2504Z" fill="#1A1A1A"/>
<path d="M93.0912 38.0078H90.8965V36.9905H96.4958V38.0078H94.2881V43.1902H93.0912V38.0078Z" fill="#1A1A1A"/>
<path d="M94.4317 43.3318H92.9461V38.1495H90.75V36.8494H96.6386V38.1495H94.4317V43.3318ZM93.2348 43.0482H94.1439V37.8663H96.3503V37.1335H91.0397V37.8663H93.2348V43.0482Z" fill="#1A1A1A"/>
<path d="M97.7031 36.9915H98.9126V39.2332H100.185C101.495 39.2332 102.48 39.8209 102.48 41.2299C102.48 42.3941 101.756 43.1902 100.16 43.1902H97.7036V36.9915H97.7031ZM99.9983 42.3326C100.871 42.3326 101.246 41.8676 101.246 41.2175C101.246 40.5555 100.871 40.0904 99.9983 40.0904H98.9126V42.3322H99.9983V42.3326Z" fill="#1A1A1A"/>
<path d="M100.159 43.3319H97.5586V36.8499H99.0569V39.0916H100.184C101.734 39.0916 102.624 39.8705 102.624 41.2299C102.624 42.5663 101.725 43.3319 100.159 43.3319ZM97.8469 43.0482H100.159C101.561 43.0482 102.335 42.4026 102.335 41.2299C102.335 39.6156 100.987 39.3753 100.184 39.3753H98.7681V37.1335H97.8469V43.0482ZM99.9974 42.4738H98.7681V39.9492H99.9974C100.881 39.9492 101.388 40.4117 101.388 41.2179C101.388 42.0162 100.881 42.4738 99.9974 42.4738ZM99.0569 42.1902H99.9974C100.719 42.1902 101.1 41.8547 101.1 41.2179C101.1 40.5732 100.718 40.2325 99.9974 40.2325H99.0569V42.1902Z" fill="#1A1A1A"/>
<path d="M108.376 40.0054L106.343 36.9915H107.727L108.899 38.8775C108.986 39.0363 109.099 39.2456 109.099 39.2456H109.125C109.125 39.2456 109.248 39.0363 109.335 38.8775L110.508 36.9915H111.894L109.859 40.0054L112.017 43.1902H110.645L109.323 41.1201C109.223 40.9723 109.125 40.7891 109.125 40.7891H109.099C109.099 40.7891 109.011 40.9723 108.912 41.1201L107.59 43.1902H106.217L108.376 40.0054Z" fill="#1A1A1A"/>
<path d="M112.287 43.3318H110.565L109.203 41.1953C109.174 41.1529 109.145 41.1064 109.117 41.063C109.092 41.1073 109.063 41.1537 109.032 41.198L107.672 43.3318H105.949L108.203 40.005L106.075 36.8494H107.81L109.117 38.9748C109.148 38.9212 109.18 38.8624 109.209 38.8097L110.429 36.8494H112.162L110.034 40.005L112.287 43.3318ZM110.726 43.0482H111.749L109.687 40.005L111.624 37.133H110.591L109.459 38.9522C109.375 39.1062 109.249 39.316 109.249 39.316L109.208 39.3876H109.038L108.972 39.3115L108.772 38.9442L107.647 37.1326H106.612L108.549 40.0054L106.488 43.0477H107.511L108.791 41.0444C108.884 40.9046 108.969 40.7298 108.969 40.728L109.007 40.6466H109.187L109.252 40.7218C109.253 40.7236 109.349 40.8997 109.444 41.0409L110.726 43.0482Z" fill="#1A1A1A"/>
<path d="M113.188 36.9905H114.348V40.6913C114.348 41.0214 114.322 41.4621 114.311 41.5236H114.335C114.384 41.4148 114.684 40.9842 114.896 40.6913L117.615 36.9905H118.788V43.1902H117.615V39.4903C117.615 39.1964 117.652 38.7676 117.652 38.6698H117.627C117.59 38.7796 117.278 39.196 117.079 39.4903L114.347 43.1902H113.188V36.9905H113.188Z" fill="#1A1A1A"/>
<path d="M118.932 43.3319H117.471V39.4899C117.471 39.3912 117.475 39.2775 117.48 39.1669C117.455 39.2014 117.429 39.2386 117.401 39.2766C117.331 39.3771 117.259 39.4789 117.199 39.5687L114.42 43.3319H113.043V36.8499H114.49V40.69C114.49 40.7936 114.489 40.9104 114.484 41.0237C114.609 40.844 114.736 40.6675 114.777 40.6086L117.54 36.8499H118.931V43.3319H118.932ZM117.759 43.0482H118.643V37.1331H117.689L115.013 40.7745C114.732 41.1644 114.502 41.5038 114.466 41.5826L114.427 41.6658H114.157L114.167 41.4963C114.177 41.4445 114.202 41.0268 114.202 40.69V37.1335H113.331V43.0482H114.271L116.961 39.4067C117.02 39.3195 117.092 39.2164 117.163 39.1147C117.292 38.9332 117.469 38.6841 117.49 38.6243L117.524 38.5292L117.771 38.5266L117.796 38.6682C117.796 38.7062 117.79 38.789 117.784 38.8947C117.775 39.0686 117.759 39.3054 117.759 39.4895V43.0482Z" fill="#1A1A1A"/>
<path d="M120.953 36.9905H122.301L123.909 40.4943C124.083 40.8625 124.259 41.3276 124.259 41.3276H124.283C124.283 41.3276 124.47 40.8745 124.633 40.4943L126.278 36.9905H127.601L128.149 43.1902H126.976L126.703 39.5031C126.691 39.1358 126.715 38.4366 126.715 38.4366H126.69C126.69 38.4366 126.527 38.8654 126.291 39.3442L124.794 42.4428H123.758L122.263 39.3553C122.063 38.9026 121.864 38.4366 121.864 38.4366H121.839C121.839 38.4366 121.876 39.1358 121.851 39.5031L121.576 43.1902H120.404L120.953 36.9905Z" fill="#1A1A1A"/>
<path d="M128.307 43.3317H126.843L126.56 39.5123C126.556 39.4017 126.555 39.2627 126.556 39.1233C126.515 39.2123 126.47 39.3083 126.422 39.4052L124.887 42.5842H123.668L122.133 39.4167C122.09 39.3171 122.046 39.218 122.005 39.1238C122.006 39.2627 122.004 39.4012 121.996 39.5118L121.712 43.3321H120.248L120.821 36.8501H122.394L124.041 40.4367C124.125 40.6146 124.209 40.8146 124.274 40.9753C124.341 40.8173 124.423 40.6208 124.499 40.4402L126.187 36.8501H127.734L127.744 36.9789L128.307 43.3317ZM127.111 43.048H127.992L127.469 37.1329H126.372L124.765 40.5535C124.605 40.9288 124.419 41.3797 124.419 41.3815L124.381 41.4695H124.183L124.124 41.3762C124.121 41.3717 123.949 40.912 123.778 40.5544L122.207 37.1329H121.086L120.562 43.048H121.444L121.709 39.4915C121.732 39.1379 121.697 38.4511 121.695 38.444L121.688 38.2945H121.936L121.998 38.3808C121.998 38.3808 122.196 38.8459 122.397 39.2994L123.851 42.3002H124.705L126.161 39.2822C126.393 38.8144 126.555 38.3909 126.556 38.387L126.591 38.2945H126.841L126.86 38.4423C126.86 38.4485 126.835 39.1388 126.848 39.4977L127.111 43.048Z" fill="#1A1A1A"/>
<path d="M129.344 39.0119V36.9905H130.529V38.8411C130.529 39.454 130.752 40.0054 131.788 40.0054C132.411 40.0054 132.924 39.7478 133.184 39.5646V36.9909H134.394V43.1906H133.184V40.9488C133.184 40.7775 133.197 40.5815 133.197 40.5815H133.172C132.773 40.8262 132.087 41.0351 131.464 41.0351C130.117 41.0347 129.344 40.3364 129.344 39.0119Z" fill="#1A1A1A"/>
<path d="M134.539 43.3318H133.041V40.9479C133.041 40.9037 133.041 40.8563 133.042 40.8121C132.64 41.0072 132.052 41.1749 131.464 41.1749C130.025 41.1749 129.199 40.3868 129.199 39.0115V36.8489H130.673V38.8402C130.673 39.346 130.805 39.8629 131.789 39.8629C132.384 39.8629 132.847 39.6124 133.041 39.4885V36.8489H134.54V43.3318H134.539ZM133.33 43.0481H134.25V37.133H133.33V39.6367L133.269 39.6792C133.112 39.789 132.544 40.1461 131.788 40.1461C130.843 40.1461 130.384 39.7199 130.384 38.8411V37.1334H129.488V39.0123C129.488 40.2421 130.172 40.8922 131.464 40.8922C132.102 40.8922 132.758 40.6682 133.096 40.4607L133.131 40.439H133.326L133.342 40.5886C133.342 40.5904 133.33 40.7815 133.33 40.9479V43.0481H133.33Z" fill="#1A1A1A"/>
<path d="M136.29 36.9905H137.449V40.6913C137.449 41.0214 137.423 41.4621 137.411 41.5236H137.436C137.487 41.4148 137.785 40.9842 137.998 40.6913L140.717 36.9905H141.889V43.1902H140.717V39.4903C140.717 39.1964 140.754 38.7676 140.754 38.6698H140.729C140.692 38.7796 140.38 39.196 140.179 39.4903L137.449 43.1902H136.289V36.9905H136.29Z" fill="#1A1A1A"/>
<path d="M142.033 43.3319H140.572V39.4899C140.572 39.3912 140.576 39.2775 140.581 39.1669C140.556 39.2014 140.532 39.2386 140.504 39.2766C140.432 39.3771 140.36 39.4789 140.3 39.5687L137.523 43.3319H136.145V36.8499H137.593V40.69C137.593 40.7914 137.591 40.9086 137.588 41.0237C137.712 40.844 137.838 40.6675 137.879 40.6086L140.642 36.8499H142.033V43.3319ZM140.861 43.0482H141.744V37.1331H140.79L138.114 40.7745C137.833 41.1644 137.603 41.5038 137.568 41.5826L137.53 41.6658H137.26L137.27 41.4963C137.28 41.4427 137.305 41.0246 137.305 40.69V37.1335H136.433V43.0482H137.375L140.064 39.4067C140.122 39.3195 140.195 39.2164 140.267 39.1147C140.395 38.9332 140.57 38.6841 140.592 38.6243L140.626 38.5292L140.873 38.5266L140.898 38.6682C140.898 38.7062 140.894 38.789 140.887 38.8947C140.876 39.0686 140.861 39.3054 140.861 39.4895V43.0482Z" fill="#1A1A1A"/>
<path d="M146.738 36.8445C147.573 36.8445 148.509 37.1255 149.106 37.7503L148.533 38.5836C148.11 38.1672 147.448 37.8733 146.788 37.8733C145.515 37.8733 144.592 38.8172 144.592 40.078C144.592 41.3409 145.515 42.3087 146.825 42.3087C147.524 42.3087 148.283 41.9777 148.771 41.4745L149.258 42.345C148.682 42.9464 147.723 43.3371 146.738 43.3371C144.742 43.3371 143.357 41.9525 143.357 40.0908C143.357 38.2535 144.755 36.8445 146.738 36.8445Z" fill="#1A1A1A"/>
<path d="M146.737 43.4786C144.694 43.4786 143.213 42.0533 143.213 40.0907C143.213 38.1268 144.694 36.7019 146.737 36.7019C147.714 36.7019 148.64 37.0581 149.21 37.6524L149.29 37.7356L148.554 38.8056L148.43 38.6839C148.01 38.2715 147.379 38.0149 146.787 38.0149C145.598 38.0149 144.736 38.8826 144.736 40.0779C144.736 41.2886 145.614 42.1661 146.824 42.1661C147.477 42.1661 148.201 41.8568 148.665 41.378L148.802 41.2373L149.433 42.367L149.361 42.4422C148.748 43.0821 147.743 43.4786 146.737 43.4786ZM146.737 36.9851C144.862 36.9851 143.501 38.291 143.501 40.0903C143.501 41.8895 144.862 43.195 146.737 43.195C147.627 43.195 148.512 42.8613 149.077 42.3201L148.733 41.7054C148.218 42.1608 147.489 42.4489 146.823 42.4489C145.447 42.4489 144.447 41.4514 144.447 40.0774C144.447 38.7397 145.452 37.7308 146.787 37.7308C147.396 37.7308 148.039 37.971 148.507 38.3662L148.92 37.7666C148.398 37.2758 147.591 36.9851 146.737 36.9851Z" fill="#1A1A1A"/>
<path d="M152.108 38.0078H149.912V36.9905H155.512V38.0078H153.305V43.1902H152.108V38.0078Z" fill="#1A1A1A"/>
<path d="M153.45 43.3318H151.964V38.1495H149.77V36.8494H155.658V38.1495H153.45V43.3318ZM152.253 43.0482H153.162V37.8663H155.369V37.1335H150.058V37.8663H152.253V43.0482Z" fill="#1A1A1A"/>
<path d="M159.489 36.8445C161.373 36.8445 162.895 38.203 162.895 40.078C162.895 41.9657 161.373 43.3371 159.502 43.3371C157.618 43.3371 156.098 41.9653 156.098 40.078C156.098 38.203 157.618 36.8445 159.489 36.8445ZM159.502 42.3087C160.687 42.3087 161.672 41.3776 161.672 40.078C161.672 38.7929 160.686 37.8742 159.502 37.8742C158.305 37.8742 157.332 38.7929 157.332 40.078C157.332 41.3776 158.304 42.3087 159.502 42.3087Z" fill="#1A1A1A"/>
<path d="M159.502 43.4788C157.479 43.4788 155.953 42.0163 155.953 40.0776C155.953 38.185 157.507 36.7017 159.489 36.7017C161.512 36.7017 163.039 38.1536 163.039 40.0776C163.039 41.9853 161.485 43.4788 159.502 43.4788ZM159.489 36.9853C157.638 36.9853 156.241 38.3146 156.241 40.0776C156.241 41.8557 157.643 43.1952 159.502 43.1952C161.353 43.1952 162.75 41.8557 162.75 40.0776C162.75 38.3146 161.348 36.9853 159.489 36.9853ZM159.502 42.4495C158.183 42.4495 157.188 41.4304 157.188 40.0781C157.188 38.7403 158.183 37.7314 159.502 37.7314C160.8 37.7314 161.817 38.7625 161.817 40.0781C161.816 41.4078 160.8 42.4495 159.502 42.4495ZM159.502 38.0146C158.347 38.0146 157.477 38.9023 157.477 40.0776C157.477 41.2693 158.348 42.1659 159.502 42.1659C160.638 42.1659 161.528 41.249 161.528 40.0776C161.528 38.9023 160.658 38.0146 159.502 38.0146Z" fill="#1A1A1A"/>
<path d="M164.377 36.9905H165.586V39.4898H166.472L168.194 36.9905H169.565L167.458 39.9438V39.9682L169.815 43.1902H168.38L166.496 40.5063H165.586V43.1902H164.377V36.9905Z" fill="#1A1A1A"/>
<path d="M170.096 43.3319H168.303L166.42 40.6484H165.731V43.3319H164.232V36.8499H165.731V39.3483H166.395L168.115 36.8499H169.842L167.625 39.9554L170.096 43.3319ZM168.456 43.0482H169.533L167.312 40.0139V39.9231L167.338 39.8625L169.287 37.1331H168.269L166.548 39.6315H165.442V37.1331H164.521V43.0482H165.442V40.3657H166.572L168.456 43.0482Z" fill="#1A1A1A"/>
<path d="M89.1642 50.094C89.9998 50.094 90.935 50.3768 91.5346 51.0016L90.9611 51.834C90.5359 51.4176 89.8759 51.1237 89.2137 51.1237C87.942 51.1237 87.0199 52.0676 87.0199 53.3292C87.0199 54.5913 87.942 55.5591 89.2516 55.5591C89.9502 55.5591 90.7115 55.2281 91.1972 54.7258L91.6837 55.5954C91.1102 56.195 90.1507 56.5875 89.1642 56.5875C87.1686 56.5875 85.7852 55.2028 85.7852 53.3403C85.7852 51.5039 87.1812 50.094 89.1642 50.094Z" fill="#1A1A1A"/>
<path d="M89.1642 56.73C87.1231 56.73 85.6406 55.3038 85.6406 53.3412C85.6406 51.3782 87.1231 49.9524 89.1642 49.9524C90.1436 49.9524 91.0684 50.3086 91.6391 50.9038L91.7175 50.987L90.9814 52.0561L90.8585 51.9344C90.4377 51.522 89.808 51.2662 89.2138 51.2662C88.0268 51.2662 87.1637 52.1331 87.1637 53.3292C87.1637 54.5391 88.0417 55.4175 89.2516 55.4175C89.9062 55.4175 90.6283 55.1082 91.0941 54.6285L91.2292 54.4877L91.8608 55.6184L91.7887 55.6927C91.1783 56.3308 90.1724 56.73 89.1642 56.73ZM89.1642 50.236C87.2907 50.236 85.9285 51.5419 85.9285 53.3416C85.9285 55.14 87.2903 56.4454 89.1642 56.4454C90.0553 56.4454 90.9418 56.1136 91.5053 55.5715L91.1625 54.9568C90.6472 55.4139 89.9174 55.7011 89.2512 55.7011C87.8741 55.7011 86.8749 54.7037 86.8749 53.3297C86.8749 51.9911 87.8804 50.983 89.2133 50.983C89.8246 50.983 90.4679 51.2224 90.9346 51.6185L91.3472 51.0189C90.8256 50.5263 90.0188 50.236 89.1642 50.236Z" fill="#1A1A1A"/>
<path d="M96.9438 55.4603C97.829 54.2717 97.9286 52.3357 97.9286 51.3807V50.2417H102.195V55.4603H103.092V57.9105H101.982V56.4414H97.3042V57.9105H96.1699V55.4603H96.9438ZM100.984 55.4603V51.2086H99.0876V51.5396C99.0876 52.4707 98.9885 54.2345 98.1907 55.4599H100.984V55.4603Z" fill="#1A1A1A"/>
<path d="M103.233 58.0526H101.836V56.5825H97.4474V58.0526H96.0234V55.3196H96.8672C97.6627 54.1943 97.7825 52.376 97.7825 51.3812V50.1001H102.335V55.3196H103.233V58.0526H103.233ZM102.125 57.7689H102.945V55.6028H102.048V50.3833H98.0722V51.3807C98.0722 52.6592 97.8951 54.4195 97.0582 55.5439L97.0149 55.6028H96.3117V57.7689H97.1591V56.2989H102.124V57.7689H102.125ZM101.127 55.6032H97.9262L98.0677 55.3846C98.7898 54.2748 98.942 52.6813 98.942 51.5409V51.0683H101.127V55.6032ZM98.4434 55.3196H100.838V51.3515H99.2303V51.5409C99.2303 52.6472 99.0893 54.1699 98.4434 55.3196Z" fill="#1A1A1A"/>
<path d="M107.691 50.094C109.574 50.094 111.096 51.4543 111.096 53.3292C111.096 55.2152 109.574 56.5875 107.704 56.5875C105.82 56.5875 104.299 55.2148 104.299 53.3292C104.299 51.4547 105.82 50.094 107.691 50.094ZM107.703 55.5591C108.888 55.5591 109.873 54.6276 109.873 53.3292C109.873 52.0433 108.888 51.1246 107.703 51.1246C106.507 51.1246 105.533 52.0433 105.533 53.3292C105.533 54.6271 106.507 55.5591 107.703 55.5591Z" fill="#1A1A1A"/>
<path d="M107.704 56.73C105.681 56.73 104.154 55.2675 104.154 53.3288C104.154 51.4352 105.708 49.9519 107.691 49.9519C109.714 49.9519 111.24 51.4038 111.24 53.3288C111.24 55.2351 109.687 56.73 107.704 56.73ZM107.691 50.236C105.839 50.236 104.444 51.5662 104.444 53.3292C104.444 55.1055 105.845 56.445 107.704 56.445C109.555 56.445 110.951 55.1055 110.951 53.3292C110.951 51.5662 109.55 50.236 107.691 50.236ZM107.704 55.7007C106.383 55.7007 105.389 54.6798 105.389 53.3292C105.389 51.9906 106.383 50.9825 107.704 50.9825C109.002 50.9825 110.018 52.0136 110.018 53.3292C110.018 54.6585 109.002 55.7007 107.704 55.7007ZM107.704 51.2662C106.548 51.2662 105.678 52.1521 105.678 53.3292C105.678 54.5192 106.548 55.4175 107.704 55.4175C108.839 55.4175 109.729 54.4997 109.729 53.3292C109.729 52.1521 108.858 51.2662 107.704 51.2662Z" fill="#1A1A1A"/>
<path d="M115.943 50.094C116.779 50.094 117.714 50.3768 118.313 51.0016L117.74 51.834C117.315 51.4176 116.655 51.1237 115.993 51.1237C114.721 51.1237 113.799 52.0676 113.799 53.3292C113.799 54.5913 114.721 55.5591 116.031 55.5591C116.73 55.5591 117.49 55.2281 117.976 54.7258L118.462 55.5954C117.889 56.195 116.93 56.5875 115.943 56.5875C113.948 56.5875 112.564 55.2028 112.564 53.3403C112.564 51.5039 113.96 50.094 115.943 50.094Z" fill="#1A1A1A"/>
<path d="M115.944 56.73C113.902 56.73 112.42 55.3038 112.42 53.3412C112.42 51.3782 113.902 49.9524 115.944 49.9524C116.923 49.9524 117.848 50.3086 118.418 50.9038L118.497 50.987L117.761 52.0561L117.638 51.9344C117.217 51.522 116.587 51.2662 115.994 51.2662C114.806 51.2662 113.943 52.1331 113.943 53.3292C113.943 54.5391 114.821 55.4175 116.031 55.4175C116.685 55.4175 117.408 55.1082 117.873 54.6285L118.008 54.4877L118.64 55.6184L118.567 55.6927C117.957 56.3308 116.952 56.73 115.944 56.73ZM115.944 50.236C114.07 50.236 112.708 51.5419 112.708 53.3416C112.708 55.14 114.07 56.4454 115.944 56.4454C116.835 56.4454 117.721 56.1136 118.284 55.5715L117.942 54.9568C117.427 55.4139 116.697 55.7011 116.03 55.7011C114.653 55.7011 113.654 54.7037 113.654 53.3297C113.654 51.9911 114.66 50.983 115.993 50.983C116.603 50.983 117.247 51.2224 117.714 51.6185L118.126 51.0189C117.605 50.5263 116.799 50.236 115.944 50.236Z" fill="#1A1A1A"/>
<path d="M121.714 51.2582H119.52V50.2417H125.119V51.2582H122.911V56.4405H121.714V51.2582Z" fill="#1A1A1A"/>
<path d="M123.057 56.5821H121.571V51.3997H119.375V50.0996H125.263V51.3997H123.057V56.5821ZM121.859 56.2989H122.768V51.1165H124.975V50.3837H119.664V51.1165H121.859V56.2989Z" fill="#1A1A1A"/>
<path d="M129.906 52.5812H130.23V52.4595C130.23 51.4421 129.632 51.0992 128.846 51.0992C128.222 51.0992 127.586 51.3448 127.075 51.6992L126.589 50.8297C127.1 50.4133 128.061 50.0942 128.946 50.0942C130.53 50.0942 131.439 50.9527 131.439 52.521V56.4404H130.304V55.8156C130.304 55.5337 130.342 55.3257 130.342 55.3257H130.316C129.955 56.0359 129.181 56.5877 128.246 56.5877C127.148 56.5877 126.139 55.9147 126.139 54.7495C126.14 52.8024 128.596 52.5812 129.906 52.5812ZM128.534 55.6443C129.593 55.6443 130.23 54.5907 130.23 53.672V53.4388H129.918C129.02 53.4388 127.35 53.5131 127.35 54.6513C127.35 55.1425 127.749 55.6443 128.534 55.6443Z" fill="#1A1A1A"/>
<path d="M128.248 56.7291C127.13 56.7291 125.996 56.0489 125.996 54.7506C125.996 53.2606 127.385 52.4384 129.907 52.4384H130.088C130.081 51.633 129.675 51.2405 128.848 51.2405C128.299 51.2405 127.685 51.4498 127.16 51.8145L127.028 51.9061L126.406 50.7953L126.497 50.7201C127.052 50.2683 128.061 49.9519 128.947 49.9519C130.623 49.9519 131.586 50.8878 131.586 52.5207V56.583H130.162V55.825C129.699 56.3861 128.993 56.7291 128.248 56.7291ZM129.907 52.7243C128.255 52.7243 126.284 53.0752 126.284 54.751C126.284 55.8635 127.273 56.4459 128.248 56.4459C129.062 56.4459 129.823 55.9817 130.19 55.2626L130.23 55.1847H130.491L130.485 55.3506C130.485 55.3533 130.451 55.5511 130.451 55.8157V56.2998H131.297V52.5212C131.297 51.0476 130.462 50.236 128.947 50.236C128.169 50.236 127.298 50.4927 126.775 50.867L127.127 51.4954C127.674 51.1471 128.279 50.9577 128.847 50.9577C129.847 50.9577 130.376 51.4764 130.376 52.4601V52.7247H129.907V52.7243ZM128.535 55.7856C127.662 55.7856 127.206 55.2161 127.206 54.6519C127.206 53.2973 129.248 53.2973 129.919 53.2973H130.376V53.6717C130.376 54.6886 129.672 55.7856 128.535 55.7856ZM129.919 53.5806C128.289 53.5806 127.494 53.9306 127.494 54.6514C127.494 55.0612 127.821 55.502 128.535 55.502C129.494 55.502 130.087 54.5528 130.087 53.6713V53.5806H129.919Z" fill="#1A1A1A"/>
<path d="M133.646 50.2417H136.252C137.524 50.2417 138.359 50.7922 138.359 51.8339C138.359 52.4353 138.036 52.949 137.462 53.1933V53.2061C138.248 53.3902 138.659 53.9898 138.659 54.6762C138.659 55.8272 137.712 56.4409 136.339 56.4409H133.646V50.2417ZM136.041 52.8632C136.764 52.8632 137.125 52.4959 137.125 51.9193C137.125 51.356 136.763 51.0617 136.004 51.0617H134.856V52.8627H136.041V52.8632ZM136.153 55.6072C137.026 55.6072 137.437 55.2156 137.437 54.639C137.437 54.027 136.976 53.6597 136.141 53.6597H134.856V55.6068H136.153V55.6072Z" fill="#1A1A1A"/>
<path d="M136.338 56.5821H133.5V50.1001H136.251C137.661 50.1001 138.503 50.7484 138.503 51.8339C138.503 52.3915 138.248 52.8711 137.806 53.1694C138.429 53.4287 138.802 53.9836 138.802 54.6766C138.802 55.8519 137.858 56.5821 136.338 56.5821ZM133.788 56.2989H136.338C137.7 56.2989 138.514 55.6922 138.514 54.6766C138.514 54.0111 138.097 53.5013 137.427 53.3437L137.316 53.3176V53.1128L137.403 53.0645C137.91 52.8477 138.214 52.3879 138.214 51.8339C138.214 50.9117 137.499 50.3838 136.251 50.3838H133.788V56.2989ZM136.151 55.7493H134.71V53.5177H136.139C137.041 53.5177 137.581 53.9376 137.581 54.6394C137.58 55.3342 137.046 55.7493 136.151 55.7493ZM134.998 55.4656H136.151C136.886 55.4656 137.292 55.1727 137.292 54.6394C137.292 53.9111 136.57 53.8013 136.139 53.8013H134.998V55.4656ZM136.04 53.0048H134.71V50.9201H136.002C137.049 50.9201 137.269 51.4639 137.269 51.9193C137.269 52.5994 136.809 53.0048 136.04 53.0048ZM134.998 52.7216H136.039C136.654 52.7216 136.98 52.445 136.98 51.9197C136.98 51.6139 136.877 51.2033 136.002 51.2033H134.998V52.7216H134.998Z" fill="#1A1A1A"/>
<path d="M140.551 50.2417H141.761V52.7406H142.646L144.366 50.2417H145.739L143.63 53.1942V53.2185L145.988 56.4405H144.555L142.671 53.7579H141.761V56.4405H140.551V50.2417Z" fill="#1A1A1A"/>
<path d="M146.27 56.5821H144.479L142.595 53.8987H141.905V56.5821H140.406V50.1001H141.905V52.5994H142.569L144.291 50.1001H146.017L143.799 53.2057L146.27 56.5821ZM144.631 56.2989H145.707L143.487 53.2645V53.1738L143.514 53.1132L145.462 50.3838H144.445L142.723 52.8831H141.617V50.3838H140.695V56.2989H141.617V53.6163H142.748L144.631 56.2989Z" fill="#1A1A1A"/>
<path d="M150.202 50.094C152.085 50.094 153.608 51.4543 153.608 53.3292C153.608 55.2152 152.085 56.5875 150.215 56.5875C148.331 56.5875 146.811 55.2148 146.811 53.3292C146.811 51.4547 148.331 50.094 150.202 50.094ZM150.214 55.5591C151.399 55.5591 152.385 54.6276 152.385 53.3292C152.385 52.0433 151.399 51.1246 150.214 51.1246C149.017 51.1246 148.045 52.0433 148.045 53.3292C148.045 54.6271 149.017 55.5591 150.214 55.5591Z" fill="#1A1A1A"/>
<path d="M150.214 56.73C148.191 56.73 146.664 55.2675 146.664 53.3288C146.664 51.4352 148.218 49.9519 150.202 49.9519C152.224 49.9519 153.75 51.4038 153.75 53.3288C153.75 55.2351 152.197 56.73 150.214 56.73ZM150.202 50.236C148.35 50.236 146.953 51.5662 146.953 53.3292C146.953 55.1055 148.355 56.445 150.214 56.445C152.065 56.445 153.462 55.1055 153.462 53.3292C153.462 51.5662 152.06 50.236 150.202 50.236ZM150.214 55.7007C148.895 55.7007 147.899 54.6798 147.899 53.3292C147.899 51.9906 148.895 50.9825 150.214 50.9825C151.512 50.9825 152.528 52.0136 152.528 53.3292C152.528 54.6585 151.512 55.7007 150.214 55.7007ZM150.214 51.2662C149.06 51.2662 148.188 52.1521 148.188 53.3292C148.188 54.5192 149.06 55.4175 150.214 55.4175C151.35 55.4175 152.24 54.4997 152.24 53.3292C152.24 52.1521 151.37 51.2662 150.214 51.2662Z" fill="#1A1A1A"/>
<path d="M155.487 50.2417H156.647V53.9407C156.647 54.2717 156.622 54.7125 156.609 54.7749H156.635C156.684 54.6633 156.984 54.2345 157.195 53.9407L159.914 50.2417H161.087V56.4414H159.914V52.7406C159.914 52.4468 159.951 52.018 159.951 51.9202H159.926C159.889 52.029 159.577 52.4463 159.378 52.7406L156.646 56.4414H155.486V50.2417H155.487ZM156.422 47.9627V47.7795H157.395V47.9508C157.395 48.4902 157.832 48.7588 158.268 48.7588C158.705 48.7588 159.154 48.4902 159.154 47.9384V47.7795H160.115V47.9627C160.115 48.9677 159.242 49.5306 158.268 49.5306C157.308 49.5306 156.422 48.9677 156.422 47.9627Z" fill="#1A1A1A"/>
<path d="M161.232 56.583H159.771V52.7402C159.771 52.6406 159.775 52.5273 159.781 52.4158C159.756 52.4503 159.73 52.4875 159.702 52.5264C159.632 52.6278 159.56 52.7287 159.498 52.8194L156.72 56.5825H155.344V50.0997H156.791V53.9407C156.791 54.0434 156.789 54.1602 156.785 54.2744C156.918 54.0814 157.052 53.8965 157.078 53.8593L159.841 50.0997H161.232V56.583ZM160.06 56.2998H160.944V50.3829H159.989L157.313 54.0248C157.038 54.4058 156.802 54.7532 156.766 54.8319L156.728 54.9156H156.458L156.468 54.7461C156.478 54.6952 156.502 54.2761 156.502 53.9407V50.3824H155.632V56.2993H156.572L159.261 52.6574C159.32 52.5711 159.393 52.4671 159.464 52.3653C159.593 52.1839 159.769 51.9339 159.79 51.8746L159.825 51.7803L160.072 51.7786L160.097 51.9202C160.097 51.9573 160.091 52.041 160.084 52.1459C160.075 52.3198 160.06 52.5574 160.06 52.7406V56.2998ZM158.268 49.6722C157.28 49.6722 156.278 49.0854 156.278 47.9627V47.6379H157.539V47.9508C157.539 48.4088 157.918 48.6181 158.268 48.6181C158.626 48.6181 159.01 48.4048 159.01 47.9389V47.6379H160.258V47.9627C160.258 49.0854 159.257 49.6722 158.268 49.6722ZM156.567 47.9203V47.9627C156.567 48.9429 157.45 49.3899 158.268 49.3899C159.088 49.3899 159.969 48.9429 159.969 47.9627V47.9203L159.298 47.9384C159.298 49.196 157.252 49.2053 157.251 47.9504V47.9203H156.567Z" fill="#1A1A1A"/>
<path d="M78.2514 4.09717H77.4531V26.9293H78.2514H81.1677H83.2268V4.09717H81.1677H78.2514Z" fill="#1A1A1A"/>
<path d="M149.077 11.2051H144.102V26.93H149.077V11.2051Z" fill="#1A1A1A"/>
<path d="M146.591 4.35474C144.986 4.35474 143.939 5.41678 143.971 6.83195C143.94 8.18296 144.986 9.27509 146.558 9.27509C148.194 9.27509 149.242 8.18252 149.242 6.83195C149.208 5.41678 148.194 4.35474 146.591 4.35474Z" fill="#1A1A1A"/>
<path d="M163.142 17.5724L168.87 11.205H162.88L159.639 15.9329C159.247 16.5431 158.853 17.1861 158.493 17.8291H158.429V4.09644H153.453V26.9304H158.429V22.01L159.703 20.4665L163.568 26.9304H169.689L163.142 17.5724Z" fill="#1A1A1A"/>
<path d="M28.5424 56.0785C29.6379 56.0785 30.7411 56.0161 31.8223 55.8958C31.8511 55.8931 31.8804 55.8896 31.9133 55.8856C31.9727 55.8763 32.0263 55.8635 32.0745 55.8493C31.7497 54.2894 31.4268 52.73 31.1038 51.171C30.9141 51.1927 30.7173 51.2104 30.5154 51.2259C30.274 51.2431 30.0416 51.2546 29.8168 51.2622C29.806 51.2626 29.1676 51.2953 28.5419 51.2953C15.4877 51.2953 4.86871 40.8621 4.86871 28.0393C4.86871 15.2164 15.4877 4.78406 28.5419 4.78406C41.5962 4.78406 52.2156 15.2164 52.2156 28.0393C52.2156 28.6136 52.1935 29.1916 52.1498 29.7638C52.1372 29.9408 52.1233 30.1027 52.1233 30.1027C52.1147 30.1784 52.1066 30.2408 52.0998 30.2855C53.7004 30.5784 55.2991 30.8718 56.8978 31.1656C56.9257 30.9581 56.9604 30.6718 56.9893 30.3293C57.0032 30.1722 57.0149 29.9877 57.0325 29.7288C57.0654 29.1664 57.0848 28.6017 57.0848 28.0397C57.0857 12.5777 44.2801 0 28.5424 0C12.8024 0 0 12.5777 0 28.0388C0 43.4995 12.8024 56.0785 28.5424 56.0785Z" fill="#1A1A1A"/>
<path d="M43.6144 28.5053C43.6144 28.5477 43.6113 28.5933 43.605 28.6433C43.6018 28.6739 43.5978 28.7031 43.591 28.7296C45.174 29.019 46.756 29.3089 48.339 29.5978C48.3777 29.604 48.4147 29.6098 48.452 29.6169C48.4809 29.2297 48.5088 28.6876 48.5061 28.0388C48.5061 28.0388 48.5016 26.021 48.0984 24.0916C46.2344 15.1638 38.1754 8.42822 28.543 8.42822V13.2118C35.6505 13.2118 41.626 18.0618 43.2198 24.5708C43.659 26.3661 43.636 28.0388 43.636 28.0388C43.6306 28.2154 43.623 28.3721 43.6144 28.5053Z" fill="#1A1A1A"/>
<path d="M28.9477 42.8597C28.8121 42.8641 28.677 42.8655 28.5432 42.8655C20.2198 42.8655 13.4492 36.2144 13.4492 28.0393C13.4492 24.0793 15.0196 20.3555 17.8711 17.5552L14.4268 14.1726C10.6568 17.8769 8.58008 22.8017 8.58008 28.0393C8.58008 38.8527 17.5355 47.65 28.5423 47.65C28.9401 47.65 29.3396 47.6349 29.7383 47.611C29.8365 47.6061 29.9329 47.6013 29.9329 47.6013C30.0987 47.592 30.237 47.5827 30.3374 47.5752C30.0145 45.9998 29.6897 44.4267 29.3667 42.8504C29.3297 42.8504 29.2743 42.8504 29.209 42.8517C29.0842 42.8539 28.9959 42.8593 28.9477 42.8597Z" fill="#1A1A1A"/>
<path d="M36.6822 20.0434C34.5087 17.9069 31.6171 16.7302 28.5417 16.7302C22.195 16.7302 17.0312 21.8028 17.0312 28.0383C17.0312 31.0598 18.2286 33.8999 20.4021 36.0351L23.8464 32.6529C22.5919 31.42 21.9009 29.7818 21.9009 28.0383C21.9009 24.4415 24.8807 21.5147 28.5417 21.5147C30.3161 21.5147 31.9847 22.1922 33.2397 23.4255L36.6822 20.0434Z" fill="#1A1A1A"/>
<path d="M51.976 46.066L61.7752 36.2722L31.1484 30.6775L37.3753 60.6607L47.0807 50.9607L43.6076 47.6073L40.3165 50.8952L37.3654 36.6789L51.8864 39.3309L48.5029 42.7131L51.976 46.066Z" fill="#1A1A1A"/>
<path d="M97.0563 10.8511C94.4062 10.8511 92.7683 12.3627 92.1142 13.3602H92.016L91.7862 11.2055H87.4648C87.5302 12.5875 87.5964 14.2598 87.5964 16.2219V26.9295H92.5723V17.8623C92.5723 17.4118 92.6372 16.9291 92.7682 16.6401C93.0957 15.7405 93.9152 14.8059 95.2886 14.8059C97.091 14.8059 97.8104 16.1887 97.8104 18.2155V26.9291H102.786V17.6043C102.785 12.9738 100.33 10.8511 97.0563 10.8511Z" fill="#1A1A1A"/>
<path d="M139.645 4.09717H134.67V26.9293H139.645V4.09717Z" fill="#1A1A1A"/>
<path d="M124.658 8.03093C126.516 8.03093 127.996 8.43451 129.063 8.87437L130.13 4.78462C129.201 4.31024 127.136 3.76904 124.417 3.76904C117.396 3.76904 111.752 8.09731 111.752 15.8737C111.752 22.3636 115.883 27.2659 123.901 27.2659C126.723 27.2659 128.892 26.7587 129.856 26.2839L129.063 22.2623C128.031 22.6677 126.276 23.0049 124.692 23.0049C120.012 23.0049 117.259 20.1329 117.259 15.5683C117.259 10.4975 120.494 8.03093 124.658 8.03093Z" fill="#1A1A1A"/>
</g>
<defs>
<clipPath id="clip0">
<rect width="170" height="60.6608" fill="white"/>
</clipPath>
</defs>
</svg>
