<svg width="150" height="31" viewBox="0 0 150 31" fill="none" xmlns="http://www.w3.org/2000/svg">
<path fill-rule="evenodd" clip-rule="evenodd" d="M65.0822 0H70.0302C76.9317 0 82.5784 5.73031 82.5784 12.7345V17.7343C82.5784 24.7383 76.9317 30.4688 70.0302 30.4688H65.0822C58.1807 30.4688 52.5341 24.7383 52.5341 17.7343V12.7345C52.5341 5.73031 58.1807 0 65.0822 0ZM15.0222 25.5989H10.9028C9.57638 25.5989 8.49083 24.4977 8.49083 23.1512V23.1508C8.49083 21.8043 9.57638 20.703 10.9028 20.703H15.1247C15.1868 20.703 15.2483 20.7052 15.3095 20.7102H16.7018C27.8186 20.7102 27.8278 4.89222 16.7018 4.89222H13.3428C8.65718 4.89222 4.82423 8.78217 4.82423 13.5372V15.2939V28.0202C4.82423 29.3667 3.73905 30.4688 2.4123 30.4688H2.41185C1.0851 30.4688 0 29.3667 0 28.0202V15.2939V13.1507V12.7345C0 5.73031 5.64645 0 12.5481 0H17.4962C34.1129 0 34.0448 25.6023 17.4962 25.6023H15.0222V25.5989ZM132.504 0H137.452C144.353 0 150 5.73031 150 12.7345V17.7343C150 20.3566 149.209 22.8003 147.856 24.8313L149.296 26.2926C150.235 27.2451 150.234 28.802 149.296 29.7542H149.296C148.358 30.7064 146.823 30.7068 145.885 29.7542L144.445 28.293C142.443 29.6657 140.035 30.4688 137.452 30.4688H132.504C125.602 30.4688 119.956 24.7383 119.956 17.7343V12.7345C119.956 5.73031 125.602 0 132.504 0ZM133.299 4.89222H136.658C141.343 4.89222 145.176 8.78217 145.176 13.5372V16.9316C145.176 21.6867 141.343 25.5765 136.658 25.5765H133.299C128.613 25.5765 124.78 21.6867 124.78 16.9316V13.5372C124.78 8.78217 128.613 4.89222 133.299 4.89222ZM113.877 30.4688H113.877C112.55 30.4688 111.465 29.3662 111.465 28.0214V17.7343H111.428C111.45 17.4989 111.462 17.2607 111.465 17.0201V17.0074V16.9952V15.7935L111.465 15.7622V13.5372C111.465 8.78217 107.632 4.89222 102.947 4.89222H99.5876C94.9022 4.89222 91.0692 8.78217 91.0692 13.5372V15.7935V16.9316V16.9443V16.957V16.9697V16.9824C91.0706 17.2351 91.0835 17.4865 91.1063 17.7343H91.0692V28.0214C91.0692 29.3662 89.984 30.4688 88.6573 30.4688H88.6569C87.3301 30.4688 86.2448 29.3662 86.2448 28.0214V17.7343V15.7935V12.7345C86.2448 5.73031 91.8914 0 98.793 0H103.741C110.643 0 116.289 5.73031 116.289 12.7345V15.7935V17.7343V28.0214C116.289 29.3662 115.204 30.4688 113.877 30.4688ZM48.2253 25.5765C48.2681 25.5742 48.3119 25.5728 48.3553 25.5728H48.5273C49.8536 25.5728 50.9392 26.6745 50.9392 28.0206V28.0209C50.9392 29.3674 49.8536 30.4688 48.5273 30.4688H48.3553H46.7395C39.838 30.4688 34.1914 24.7383 34.1914 17.7343V17.318V16.9316V2.44843C34.1914 1.10198 35.2765 0 36.6032 0H36.6037C37.9304 0 39.0157 1.10198 39.0157 2.44843V16.9316C39.0157 21.6867 42.8487 25.5765 47.5341 25.5765H48.2253ZM65.8769 4.89222H69.236C73.9214 4.89222 77.7545 8.78217 77.7545 13.5372V16.9316C77.7545 21.6867 73.9214 25.5765 69.236 25.5765H65.8769C61.1915 25.5765 57.3584 21.6867 57.3584 16.9316V13.5372C57.3584 8.78217 61.1915 4.89222 65.8769 4.89222Z" fill="#2B2A29"/>
</svg>
