<svg width="80" height="80" viewBox="0 0 80 80" fill="none" xmlns="http://www.w3.org/2000/svg">
<rect width="80" height="80" rx="20" fill="white"/>
<mask id="mask0" mask-type="alpha" maskUnits="userSpaceOnUse" x="7" y="16" width="66" height="49">
<path d="M36.3008 17.465H26.5339C21.8883 17.465 18.5515 17.4682 16.0121 17.8096C13.5149 18.1453 12.0094 18.7838 10.8966 19.8966C9.78385 21.0094 9.1453 22.5149 8.80956 25.0121C8.46815 27.5515 8.46504 30.8883 8.46504 35.5339V45.3008C8.46504 49.9464 8.46815 53.2832 8.80956 55.8226C9.1453 58.3198 9.78385 59.8253 10.8966 60.938C12.0094 62.0508 13.5149 62.6893 16.0121 63.0251C18.5515 63.3665 21.8883 63.3696 26.5339 63.3696H36.3008C40.9464 63.3696 44.2832 63.3665 46.8226 63.0251C49.3198 62.6893 50.8253 62.0508 51.938 60.938C52.9798 59.8963 53.6059 58.5103 53.9571 56.2886H55.439C55.0696 58.8049 54.3553 60.5927 52.974 61.974C50.1133 64.8346 45.5091 64.8346 36.3008 64.8346H26.5339C17.3255 64.8346 12.7213 64.8346 9.86067 61.974C7 59.1133 7 54.5091 7 45.3008V35.5339C7 26.3255 7 21.7213 9.86067 18.8607C12.7213 16 17.3255 16 26.5339 16H36.3008C45.5091 16 50.1133 16 52.974 18.8607C55.8346 21.7213 55.8346 26.3255 55.8346 35.5339V39.1965H54.3696V35.5339C54.3696 30.8883 54.3665 27.5515 54.0251 25.0121C53.6893 22.5149 53.0508 21.0094 51.938 19.8966C50.8253 18.7838 49.3198 18.1453 46.8226 17.8096C44.2832 17.4682 40.9464 17.465 36.3008 17.465Z" fill="#19191E"/>
<path d="M21.3098 35.1041H19.6567L19.2384 33.9631H16.3199L15.8914 35.1041H14.2383L16.871 28.3693H18.6873L21.3098 35.1041ZM18.8404 32.701L17.7792 29.8031L16.7179 32.701H18.8404Z" fill="#19191E"/>
<path d="M26.5507 35.1041H25.1017V28.3693H28.2854C28.9997 28.3693 29.5575 28.578 29.9589 28.9953C30.3671 29.4059 30.5712 29.9209 30.5712 30.5402C30.5712 31.1527 30.3671 31.6677 29.9589 32.085C29.5507 32.5024 28.9929 32.7111 28.2854 32.7111H26.5507V35.1041ZM28.0915 31.4489C28.384 31.4489 28.6221 31.3681 28.8058 31.2066C28.9963 31.0383 29.0915 30.8162 29.0915 30.5402C29.0915 30.2642 28.9963 30.0454 28.8058 29.8839C28.6221 29.7156 28.384 29.6314 28.0915 29.6314H26.5507V31.4489H28.0915Z" fill="#19191E"/>
<path d="M36.0817 35.1041H34.6327V28.3693H37.8164C38.5307 28.3693 39.0885 28.578 39.4899 28.9953C39.8981 29.4059 40.1022 29.9209 40.1022 30.5402C40.1022 31.1527 39.8981 31.6677 39.4899 32.085C39.0817 32.5024 38.5239 32.7111 37.8164 32.7111H36.0817V35.1041ZM37.6225 31.4489C37.9151 31.4489 38.1532 31.3681 38.3368 31.2066C38.5273 31.0383 38.6226 30.8162 38.6226 30.5402C38.6226 30.2642 38.5273 30.0454 38.3368 29.8839C38.1532 29.7156 37.9151 29.6314 37.6225 29.6314H36.0817V31.4489H37.6225Z" fill="#19191E"/>
<path d="M46.5821 35.2253C45.3712 35.2253 44.412 34.8685 43.7045 34.155L44.4902 33.0645C45.0753 33.6703 45.7964 33.9732 46.6535 33.9732C47.0277 33.9732 47.3168 33.9025 47.5209 33.7612C47.7318 33.6131 47.8372 33.4347 47.8372 33.226C47.8372 33.0443 47.7386 32.8928 47.5413 32.7717C47.3508 32.6505 47.1093 32.563 46.8168 32.5091C46.5311 32.4553 46.2182 32.3779 45.878 32.2769C45.5379 32.1759 45.2215 32.0615 44.929 31.9336C44.6433 31.8057 44.4018 31.6037 44.2045 31.3278C44.014 31.0518 43.9188 30.7152 43.9188 30.318C43.9188 29.7391 44.1535 29.2545 44.6229 28.864C45.0923 28.4669 45.7182 28.2683 46.5005 28.2683C47.5821 28.2683 48.4665 28.5813 49.1536 29.2073L48.3474 30.2575C47.81 29.7661 47.1502 29.5204 46.3678 29.5204C46.0617 29.5204 45.8236 29.5809 45.6535 29.7021C45.4835 29.8233 45.3984 29.9882 45.3984 30.1969C45.3984 30.3584 45.4937 30.4964 45.6841 30.6109C45.8814 30.7186 46.1229 30.7993 46.4086 30.8532C46.7012 30.907 47.0141 30.9878 47.3474 31.0955C47.6876 31.1965 48.0005 31.3143 48.2862 31.4489C48.5787 31.5768 48.8202 31.7821 49.0107 32.0649C49.208 32.3408 49.3066 32.6741 49.3066 33.0645C49.3066 33.7107 49.0719 34.2324 48.6026 34.6295C48.14 35.0267 47.4665 35.2253 46.5821 35.2253Z" fill="#19191E"/>
<path d="M17.3796 51.1754C16.1686 51.1754 15.2094 50.8186 14.502 50.1051L15.2877 49.0146C15.8727 49.6204 16.5938 49.9233 17.451 49.9233C17.8251 49.9233 18.1143 49.8526 18.3183 49.7113C18.5292 49.5632 18.6347 49.3848 18.6347 49.1761C18.6347 48.9944 18.536 48.8429 18.3388 48.7217C18.1483 48.6006 17.9068 48.5131 17.6143 48.4592C17.3285 48.4054 17.0156 48.328 16.6755 48.227C16.3353 48.126 16.019 48.0116 15.7265 47.8837C15.4407 47.7558 15.1992 47.5538 15.002 47.2779C14.8115 47.0019 14.7162 46.6653 14.7162 46.2681C14.7162 45.6892 14.9509 45.2046 15.4203 44.8141C15.8897 44.417 16.5156 44.2184 17.2979 44.2184C18.3796 44.2184 19.2639 44.5314 19.951 45.1574L19.1449 46.2076C18.6075 45.7162 17.9476 45.4705 17.1653 45.4705C16.8591 45.4705 16.621 45.531 16.451 45.6522C16.2809 45.7734 16.1959 45.9383 16.1959 46.147C16.1959 46.3085 16.2911 46.4465 16.4816 46.561C16.6789 46.6687 16.9204 46.7494 17.2061 46.8033C17.4986 46.8571 17.8115 46.9379 18.1449 47.0456C18.485 47.1466 18.7979 47.2644 19.0837 47.399C19.3762 47.5269 19.6177 47.7322 19.8082 48.0149C20.0054 48.2909 20.1041 48.6241 20.1041 49.0146C20.1041 49.6608 19.8694 50.1825 19.4 50.5796C18.9374 50.9768 18.2639 51.1754 17.3796 51.1754Z" fill="#19191E"/>
<path d="M27.1441 51.0542H25.6849V45.5815H23.6951V44.3194H29.1238V45.5815H27.1441V51.0542Z" fill="#19191E"/>
<path d="M38.5732 50.4181C38.0562 50.9229 37.2943 51.1754 36.2875 51.1754C35.2807 51.1754 34.5153 50.9229 33.9915 50.4181C33.4745 49.9065 33.216 49.2232 33.216 48.3683V44.3194H34.6854V48.3179C34.6854 48.8025 34.8249 49.1896 35.1038 49.479C35.3827 49.7618 35.7773 49.9031 36.2875 49.9031C36.7977 49.9031 37.1889 49.7618 37.461 49.479C37.7399 49.1896 37.8793 48.8025 37.8793 48.3179V44.3194H39.359V48.3582C39.359 49.2266 39.0971 49.9132 38.5732 50.4181Z" fill="#19191E"/>
<path d="M46.5468 51.0542H43.8631V44.3194H46.5468C47.6149 44.3194 48.4822 44.629 49.1489 45.2483C49.8224 45.8676 50.1591 46.6821 50.1591 47.6918C50.1591 48.7016 49.8258 49.5161 49.1591 50.1353C48.4924 50.7479 47.6217 51.0542 46.5468 51.0542ZM46.5468 49.792C47.1999 49.792 47.7169 49.5901 48.0979 49.1862C48.4856 48.7823 48.6795 48.2842 48.6795 47.6918C48.6795 47.0725 48.4924 46.5677 48.1183 46.1773C47.7441 45.7801 47.2203 45.5815 46.5468 45.5815H45.3121V49.792H46.5468Z" fill="#19191E"/>
<path d="M55.7998 51.0542H54.3508V44.3194H55.7998V51.0542Z" fill="#19191E"/>
<path d="M63.5388 51.1754C62.5116 51.1754 61.6612 50.8489 60.9878 50.1959C60.3211 49.5363 59.9877 48.7016 59.9877 47.6918C59.9877 46.6821 60.3211 45.8508 60.9878 45.1978C61.6612 44.5382 62.5116 44.2083 63.5388 44.2083C64.5729 44.2083 65.4232 44.5348 66.0899 45.1877C66.7634 45.8407 67.1001 46.6754 67.1001 47.6918C67.1001 48.7083 66.7634 49.543 66.0899 50.1959C65.4232 50.8489 64.5729 51.1754 63.5388 51.1754ZM62.0388 49.2771C62.4197 49.6944 62.9198 49.9031 63.5388 49.9031C64.1579 49.9031 64.6579 49.6944 65.0388 49.2771C65.4198 48.8597 65.6103 48.3313 65.6103 47.6918C65.6103 47.0523 65.4198 46.5239 65.0388 46.1066C64.6579 45.6892 64.1579 45.4806 63.5388 45.4806C62.9198 45.4806 62.4197 45.6892 62.0388 46.1066C61.6646 46.5239 61.4776 47.0523 61.4776 47.6918C61.4776 48.3313 61.6646 48.8597 62.0388 49.2771Z" fill="#19191E"/>
<path d="M72.2454 50.9229C72.0822 51.0845 71.8883 51.1653 71.6638 51.1653C71.4393 51.1653 71.2454 51.0845 71.0822 50.9229C70.9189 50.7614 70.8373 50.5695 70.8373 50.3474C70.8373 50.1253 70.9189 49.9334 71.0822 49.7719C71.2454 49.6103 71.4393 49.5295 71.6638 49.5295C71.8883 49.5295 72.0822 49.6103 72.2454 49.7719C72.4087 49.9334 72.4903 50.1253 72.4903 50.3474C72.4903 50.5695 72.4087 50.7614 72.2454 50.9229Z" fill="#19191E"/>
</mask>
<g mask="url(#mask0)">
<circle cx="37.5445" cy="40.5101" r="39.5933" fill="url(#paint0_linear)"/>
</g>
<defs>
<linearGradient id="paint0_linear" x1="6.24691" y1="19.0166" x2="58.2838" y2="60.8724" gradientUnits="userSpaceOnUse">
<stop stop-color="#7ECAA6"/>
<stop offset="0.293991" stop-color="#61BDD1"/>
<stop offset="0.606345" stop-color="#CF6DDD"/>
<stop offset="1" stop-color="#4061F8"/>
</linearGradient>
</defs>
</svg>
