<svg width="80" height="80" viewBox="0 0 80 80" fill="none" xmlns="http://www.w3.org/2000/svg">
<rect width="80" height="80" rx="20" fill="url(#paint0_linear)"/>
<path d="M39.9984 24.3974C33.5655 24.3974 28.332 29.6309 28.332 36.0638C28.332 42.4967 33.5655 47.7302 39.9984 47.7302C46.4314 47.7302 51.6649 42.4967 51.6649 36.0638C51.6649 29.6309 46.4314 24.3974 39.9984 24.3974V24.3974ZM39.9984 43.457C36.7396 43.457 34.0883 40.8058 34.0883 37.5468C34.0883 37.0506 34.0883 35.5405 36.5864 32.0653C37.7307 30.4735 39.9984 27.9415 39.9984 27.9415C39.9984 27.9415 42.2662 30.4737 43.4105 32.0654C45.9085 35.5406 45.9085 37.0507 45.9085 37.5469C45.9086 40.8058 43.2572 43.457 39.9984 43.457V43.457Z" fill="white"/>
<path d="M39.9981 32.4158C39.6756 32.8197 39.3117 33.2921 38.9504 33.7956C37.1108 36.3593 37.0176 37.3702 37.0176 37.5468C37.0176 39.1902 38.3546 40.5273 39.998 40.5273C41.6414 40.5273 42.9785 39.1903 42.9785 37.5468C42.9785 37.3701 42.8854 36.3593 41.0458 33.7956C40.6846 33.2921 40.3207 32.8197 39.9981 32.4158Z" fill="white"/>
<path d="M39.9994 15C28.3848 15 18.9355 24.4492 18.9355 36.0638C18.9355 40.3851 20.2403 44.5409 22.709 48.0819C25.0451 51.433 28.2555 54.01 32.0105 55.5532L39.9994 65L47.9883 55.5533C51.7434 54.0101 54.9537 51.4332 57.2899 48.082C59.7585 44.541 61.0634 40.3852 61.0634 36.0639C61.0633 24.4492 51.6142 15 39.9994 15V15ZM39.9994 50.6599C31.9511 50.6599 25.4033 44.1121 25.4033 36.0638C25.4033 28.0154 31.9511 21.4677 39.9994 21.4677C48.0478 21.4677 54.5955 28.0154 54.5955 36.0638C54.5955 44.1121 48.0478 50.6599 39.9994 50.6599Z" fill="white"/>
<defs>
<linearGradient id="paint0_linear" x1="0" y1="0" x2="80" y2="80" gradientUnits="userSpaceOnUse">
<stop stop-color="#4061F8"/>
<stop offset="1" stop-color="#9A52FD"/>
</linearGradient>
</defs>
</svg>
