<svg width="80" height="80" viewBox="0 0 80 80" fill="none" xmlns="http://www.w3.org/2000/svg">
<rect width="80" height="80" rx="20" fill="white"/>
<rect width="80" height="80" rx="20" fill="url(#paint0_linear)"/>
<path fill-rule="evenodd" clip-rule="evenodd" d="M36.0329 34H38.0121C40.7727 34 43.0313 36.2921 43.0313 39.0938V41.0937C43.0313 43.8953 40.7727 46.1875 38.0121 46.1875H36.0329C33.2723 46.1875 31.0136 43.8953 31.0136 41.0937V39.0938C31.0136 36.2921 33.2723 34 36.0329 34ZM16.0089 44.2396H14.3611C13.8305 44.2396 13.3963 43.7991 13.3963 43.2605V43.2603C13.3963 42.7217 13.8305 42.2812 14.3611 42.2812H16.0499C16.0747 42.2812 16.0993 42.2821 16.1238 42.2841H16.6807C21.1274 42.2841 21.1311 35.9569 16.6807 35.9569H15.3371C13.4629 35.9569 11.9297 37.5129 11.9297 39.4149V40.1176V45.2081C11.9297 45.7467 11.4956 46.1875 10.9649 46.1875H10.9647C10.434 46.1875 10 45.7467 10 45.2081V40.1176V39.2603V39.0938C10 36.2921 12.2586 34 15.0192 34H16.9985C23.6452 34 23.6179 44.2409 16.9985 44.2409H16.0089V44.2396ZM63.0015 34H64.9808C67.7414 34 70 36.2921 70 39.0938V41.0937C70 42.1427 69.6834 43.1201 69.1424 43.9325L69.7184 44.517C70.0938 44.898 70.0937 45.5208 69.7184 45.9017H69.7182C69.343 46.2826 68.7293 46.2827 68.3538 45.9017L67.7779 45.3172C66.9772 45.8663 66.0142 46.1875 64.9808 46.1875H63.0015C60.2409 46.1875 57.9823 43.8953 57.9823 41.0937V39.0938C57.9823 36.2921 60.2409 34 63.0015 34ZM63.3194 35.9569H64.6631C66.5372 35.9569 68.0704 37.5129 68.0704 39.4149V40.7726C68.0704 42.6747 66.5372 44.2306 64.6631 44.2306H63.3194C61.4452 44.2306 59.912 42.6747 59.912 40.7726V39.4149C59.912 37.5129 61.4452 35.9569 63.3194 35.9569ZM55.5509 46.1875H55.5507C55.02 46.1875 54.586 45.7465 54.586 45.2086V41.0937H54.5712C54.5799 40.9996 54.5849 40.9043 54.586 40.808V40.803V40.7981V40.3174L54.5861 40.3049V39.4149C54.5861 37.5129 53.0529 35.9569 51.1787 35.9569H49.835C47.9609 35.9569 46.4277 37.5129 46.4277 39.4149V40.3174V40.7726V40.7777V40.7828V40.7879V40.793C46.4282 40.894 46.4334 40.9946 46.4425 41.0937H46.4277V45.2086C46.4277 45.7465 45.9936 46.1875 45.4629 46.1875H45.4628C44.932 46.1875 44.4979 45.7465 44.4979 45.2086V41.0937V40.3174V39.0938C44.4979 36.2921 46.7566 34 49.5172 34H51.4964C54.257 34 56.5157 36.2921 56.5157 39.0938V40.3174V41.0937V45.2086C56.5157 45.7465 56.0816 46.1875 55.5509 46.1875ZM29.2901 44.2306C29.3072 44.2297 29.3247 44.2291 29.3421 44.2291H29.4109C29.9414 44.2291 30.3757 44.6698 30.3757 45.2082V45.2084C30.3757 45.747 29.9414 46.1875 29.4109 46.1875H29.3421H28.6958C25.9352 46.1875 23.6765 43.8953 23.6765 41.0937V40.9272V40.7726V34.9794C23.6765 34.4408 24.1106 34 24.6413 34H24.6415C25.1722 34 25.6063 34.4408 25.6063 34.9794V40.7726C25.6063 42.6747 27.1395 44.2306 29.0136 44.2306H29.2901ZM36.3507 35.9569H37.6944C39.5686 35.9569 41.1018 37.5129 41.1018 39.4149V40.7726C41.1018 42.6747 39.5686 44.2306 37.6944 44.2306H36.3507C34.4766 44.2306 32.9434 42.6747 32.9434 40.7726V39.4149C32.9434 37.5129 34.4766 35.9569 36.3507 35.9569Z" fill="#2B2A29"/>
<defs>
<linearGradient id="paint0_linear" x1="7.15978e-08" y1="39.8625" x2="82.8019" y2="39.8625" gradientUnits="userSpaceOnUse">
<stop stop-color="#EFE4C5"/>
<stop offset="1" stop-color="#BEAD80"/>
</linearGradient>
</defs>
</svg>
