<svg width="80" height="80" viewBox="0 0 80 80" fill="none" xmlns="http://www.w3.org/2000/svg">
<rect width="80" height="80" rx="20" fill="white"/>
<g opacity="0.5">
<g opacity="0.5">
<path opacity="0.5" d="M12.3887 33.6553C13.4856 27.5414 15.913 25.2536 18.7675 23.574C22.0353 21.6511 28.0315 21.451 31.8079 23.7372C35.122 25.7434 41.0514 29.0657 48.301 30.2926C55.2361 31.4662 57.8801 30.5783 62.2502 31.5591C65.1492 32.2098 68.9071 34.2974 69.4191 40.0917C69.8329 44.776 67.9681 48.9074 65.6531 52.0236C60.8805 58.4478 51.4299 59.1086 44.9342 56.588C40.786 54.9784 39.7892 52.8583 34.7045 51.923C30.9557 51.2335 27.4316 51.7424 25.1038 51.9155C20.7047 52.2426 17.7353 51.7047 15.6799 49.0771C13.2441 45.9631 11.1304 40.6682 12.3887 33.6553Z" fill="#4DC3D0"/>
</g>
</g>
<g opacity="0.5">
<g opacity="0.5">
<path opacity="0.5" d="M11.4053 45.4648C10.3723 40.8579 11.4619 35.8691 13.0107 33.9184C15.5506 30.7194 19.5227 29.5667 24.886 28.5506C34.1536 26.7947 35.3333 29.0906 42.7581 27.5962C49.6469 26.2099 49.5116 24.9589 54.9837 24.1295C58.2345 23.6368 63.3408 24.1886 65.7895 26.8399C67.8681 29.0906 69.0701 33.5966 68.3801 39.2412C67.1723 49.122 61.03 52.0993 50.3609 51.8442C45.9272 51.7381 44.1594 50.744 39.1685 52.0717C35.4888 53.0507 32.5912 55.1523 30.4722 56.1224C25.9008 58.2154 23.6284 58.3049 20.765 57.6132C16.9819 56.6992 12.9183 52.2132 11.4053 45.4648Z" fill="#4DC3D0"/>
</g>
</g>
<path d="M45.3885 41.7537C45.1931 41.7537 45.0096 41.7394 44.8379 41.7108V40.6598C44.9619 40.6836 45.1335 40.6956 45.3528 40.6956C45.7055 40.6956 45.9891 40.599 46.2036 40.406C46.418 40.213 46.6064 39.8852 46.7684 39.4229L46.9114 38.9653L44.0586 31.2506H45.3885L47.5048 37.5925H47.6192L49.7285 31.2506H51.0369L48.0268 39.4301C47.6979 40.3214 47.3463 40.9315 46.9721 41.2604C46.598 41.5893 46.0701 41.7537 45.3885 41.7537Z" fill="#4DC3D0"/>
<path d="M19.8137 34.2883H22.2731C23.9563 34.2883 24.7978 34.8977 24.7978 36.1165C24.7978 36.7212 24.5948 37.1807 24.1885 37.495C23.7822 37.8094 23.1849 37.9665 22.3965 37.9665H19.8137V34.2883ZM19.8137 29.8047H22.2369C22.885 29.8047 23.3893 29.9523 23.7496 30.2473C24.1099 30.5423 24.29 30.9559 24.29 31.4878C24.29 32.6051 23.4943 33.1637 21.9031 33.1637H19.8137V29.8047ZM22.5922 39.1201C23.7048 39.1201 24.5742 38.8614 25.2005 38.3438C25.8268 37.8263 26.1401 37.1057 26.1401 36.1818C26.1401 35.4902 25.9297 34.9159 25.5089 34.4588C25.0881 34.0017 24.5198 33.7272 23.8039 33.6354V33.5193C24.3069 33.4274 24.7337 33.1637 25.0845 32.7285C25.435 32.2932 25.6104 31.8047 25.6104 31.263C25.6104 30.4601 25.3335 29.8241 24.7797 29.3549C24.2259 28.8858 23.4702 28.6512 22.5126 28.6512H18.5078V38.9022V39.1201V50.2877H19.7401V45.719C19.7401 45.0602 19.9382 44.5327 20.3343 44.1365C20.7305 43.7404 21.2701 43.5423 21.953 43.5423C23.1886 43.5423 23.8069 44.2252 23.8069 45.5905V50.2877H25.0392V45.2896C25.0392 44.3828 24.8017 43.6796 24.3268 43.1806C23.8507 42.6821 23.1765 42.4326 22.3032 42.4326C21.7166 42.4326 21.2099 42.5508 20.7853 42.7866C20.3606 43.023 20.0498 43.3563 19.8539 43.7858H19.7401V39.1201H22.5922Z" fill="#4DC3D0"/>
<path d="M29.7579 43.5196C29.1428 43.5196 28.6361 43.7269 28.2399 44.1423C27.8437 44.5576 27.6216 45.107 27.5745 45.7894H31.8274C31.8131 45.107 31.6173 44.5576 31.2408 44.1423C30.8632 43.7269 30.3696 43.5196 29.7579 43.5196ZM31.7924 48.2885H33.0236C32.8375 48.9572 32.4588 49.4797 31.8887 49.8567C31.3185 50.2338 30.6126 50.4225 29.7732 50.4225C28.7029 50.4225 27.8558 50.0631 27.2308 49.3446C26.6049 48.6261 26.293 47.6559 26.293 46.434C26.293 45.2165 26.6081 44.2452 27.2374 43.5196C27.8678 42.794 28.7127 42.4312 29.7732 42.4312C30.8129 42.4312 31.6315 42.777 32.229 43.4692C32.8255 44.1615 33.1242 45.1092 33.1242 46.3119V46.7848H27.5745V46.8422C27.6074 47.6061 27.8241 48.2124 28.2224 48.6605C28.6207 49.1098 29.1472 49.3341 29.8016 49.3341C30.7986 49.3341 31.4629 48.9856 31.7924 48.2885" fill="#4DC3D0"/>
<path d="M36.8493 49.3413C37.4841 49.3413 38.0105 49.1574 38.4285 48.7897C38.8466 48.422 39.0546 47.9618 39.0546 47.4075V46.6988L36.9784 46.8351C36.3962 46.8734 35.9683 46.9949 35.6969 47.2001C35.4243 47.4053 35.2886 47.7035 35.2886 48.0953C35.2886 48.4816 35.4342 48.7859 35.7253 49.0081C36.0164 49.2302 36.3907 49.3413 36.8493 49.3413ZM36.6205 50.4225C35.861 50.4225 35.2372 50.2135 34.748 49.796C34.2588 49.378 34.0137 48.8209 34.0137 48.1238C34.0137 47.4364 34.2577 46.8969 34.7448 46.5057C35.2317 46.1138 35.9256 45.8922 36.8285 45.8397L39.0546 45.7035V45.0019C39.0546 44.5242 38.9068 44.1593 38.6113 43.9059C38.3147 43.6531 37.8802 43.5267 37.3079 43.5267C36.8449 43.5267 36.4608 43.6104 36.1554 43.7773C35.849 43.9442 35.6542 44.1806 35.5677 44.486H34.3223C34.4033 43.8704 34.7218 43.374 35.2777 42.997C35.8337 42.6194 36.5253 42.4312 37.3505 42.4312C38.2862 42.4312 39.0097 42.6578 39.5207 43.1114C40.0307 43.565 40.2868 44.1948 40.2868 45.0019V50.2863H39.1125V49.1475H38.9976C38.7492 49.5586 38.4198 49.8737 38.0094 50.0931C37.5989 50.3126 37.136 50.4225 36.6205 50.4225Z" fill="#4DC3D0"/>
<path d="M41.457 37.2363C41.0512 37.7519 40.4974 38.0097 39.7958 38.0097C39.0892 38.0097 38.5367 37.7543 38.1381 37.2435C37.7395 36.7327 37.5401 36.0262 37.5401 35.1239C37.5401 34.2264 37.7406 33.5211 38.1417 33.008C38.5427 32.4947 39.0941 32.2382 39.7958 32.2382C40.4928 32.2382 41.0453 32.4984 41.4534 33.0187C41.8616 33.539 42.0657 34.2408 42.0657 35.1239C42.0657 36.0166 41.8628 36.7207 41.457 37.2363ZM42.037 27.3303V32.4816H41.9297C41.71 32.0616 41.3866 31.731 40.9594 31.4899C40.5322 31.2488 40.0487 31.1282 39.5093 31.1282C38.5259 31.1282 37.7395 31.4923 37.1499 32.2203C36.5603 32.9483 36.2656 33.9162 36.2656 35.1239C36.2656 36.3365 36.5592 37.3055 37.1464 38.0311C37.7335 38.7567 38.5212 39.1196 39.5093 39.1196C40.044 39.1196 40.5286 38.999 40.9629 38.758C41.3973 38.5169 41.7363 38.1815 41.9798 37.7519H42.0944V38.9835H42.0939V50.2871H43.2687V38.9835V27.3303H42.037Z" fill="#4DC3D0"/>
<path d="M46.3881 43.5701V44.9884H47.4628V45.2101H46.3881V49.1303C46.3881 49.8049 46.6299 50.066 47.1914 50.066C47.1958 50.066 47.5504 50.061 47.5558 50.061V50.2876C47.546 50.2876 47.1914 50.2925 47.1761 50.2925C46.4625 50.2925 46.1473 49.9625 46.1473 49.1352V45.2101H45.3594V44.9884H46.1473V43.5701H46.3881Z" fill="#4DC3D0"/>
<path d="M48.1872 47.4261H52.2497C52.2497 46.0668 51.442 45.136 50.2403 45.136C49.0584 45.136 48.2464 46.0521 48.1872 47.4261ZM52.427 48.8149C52.2497 49.7063 51.4672 50.3662 50.2798 50.3662C48.857 50.3662 47.9355 49.3616 47.9355 47.6378C47.9355 45.9929 48.8527 44.9095 50.2403 44.9095C51.5909 44.9095 52.497 45.9388 52.497 47.4606V47.6477H48.1829V47.6576C48.1829 49.2335 49.019 50.1397 50.2853 50.1397C51.3435 50.1397 52.0188 49.5635 52.1764 48.8149H52.427Z" fill="#4DC3D0"/>
<path d="M55.0421 44.9095C56.1058 44.9095 56.8095 45.535 56.9037 46.5248H56.6673C56.5786 45.7172 55.9931 45.136 55.0421 45.136C54.2202 45.136 53.5 45.6089 53.5 46.3032C53.5 46.8745 53.8743 47.1552 54.6776 47.3423L55.5007 47.5394C56.5491 47.7954 56.9868 48.1943 56.9868 48.9134C56.9868 49.7801 56.1792 50.3662 55.0618 50.3662C53.9247 50.3662 53.1367 49.6521 53.082 48.7902H53.3282C53.3928 49.5339 54.102 50.1397 55.0563 50.1397C55.9876 50.1397 56.7417 49.6571 56.7417 48.9282C56.7417 48.3224 56.3674 47.9826 55.4262 47.761L54.5945 47.5689C53.708 47.3572 53.2593 46.9878 53.2593 46.3082C53.2593 45.4808 54.0626 44.9095 55.0421 44.9095Z" fill="#4DC3D0"/>
<path d="M58.3834 43.5701V44.9884H59.4559V45.2101H58.3834V49.1303C58.3834 49.8049 58.6242 50.066 59.1856 50.066C59.1911 50.066 59.5456 50.061 59.55 50.061V50.2876C59.5402 50.2876 59.1856 50.2925 59.1713 50.2925C58.4567 50.2925 58.1416 49.9625 58.1416 49.1352V45.2101H57.3535V44.9884H58.1416V43.5701H58.3834Z" fill="#4DC3D0"/>
<path d="M31.202 38.8181C29.1521 38.8181 27.4844 37.1503 27.4844 35.1004C27.4844 33.0505 29.1521 31.3828 31.202 31.3828C33.2519 31.3828 34.9196 33.0505 34.9196 35.1004C34.9196 37.1503 33.2519 38.8181 31.202 38.8181Z" fill="#4DC3D0"/>
<path d="M31.2009 31.1021C28.993 31.1021 27.2031 32.892 27.2031 35.0999C27.2031 37.3078 28.993 39.0977 31.2009 39.0977C33.4088 39.0977 35.1987 37.3078 35.1987 35.0999C35.1987 32.892 33.4088 31.1021 31.2009 31.1021ZM31.2009 31.6624C33.0963 31.6624 34.6383 33.2044 34.6383 35.0999C34.6383 36.9953 33.0963 38.5373 31.2009 38.5373C29.3055 38.5373 27.7635 36.9953 27.7635 35.0999C27.7635 33.2044 29.3055 31.6624 31.2009 31.6624" fill="white"/>
</svg>
