<svg width="80" height="80" viewBox="0 0 80 80" fill="none" xmlns="http://www.w3.org/2000/svg">
<rect width="80" height="80" rx="20" fill="white"/>
<g clip-path="url(#clip0)">
<path d="M38.7031 58.6763C39.4977 58.6763 40.2979 58.631 41.0821 58.5437C41.103 58.5418 41.1243 58.5392 41.1481 58.5363C41.1913 58.5296 41.2301 58.5203 41.2651 58.51C41.0295 57.3786 40.7952 56.2474 40.561 55.1166C40.4234 55.1324 40.2806 55.1452 40.1342 55.1564C39.9591 55.1689 39.7905 55.1773 39.6274 55.1828C39.6196 55.1831 39.1566 55.2068 38.7027 55.2068C29.2339 55.2068 21.5315 47.6391 21.5315 38.3381C21.5315 29.0372 29.2339 21.4701 38.7027 21.4701C48.1716 21.4701 55.8743 29.0372 55.8743 38.3381C55.8743 38.7548 55.8583 39.174 55.8266 39.589C55.8175 39.7174 55.8073 39.8349 55.8073 39.8349C55.8011 39.8897 55.7953 39.935 55.7904 39.9674C56.9513 40.1799 58.1109 40.3927 59.2705 40.6058C59.2908 40.4553 59.316 40.2476 59.3369 39.9992C59.347 39.8853 59.3555 39.7514 59.3682 39.5636C59.3921 39.1557 59.4061 38.7461 59.4061 38.3385C59.4068 27.1232 50.1183 18 38.7031 18C27.2862 18 18 27.1232 18 38.3378C18 49.5522 27.2862 58.6763 38.7031 58.6763Z" fill="#DD212F"/>
<path d="M49.6351 38.6759C49.6351 38.7067 49.6328 38.7397 49.6283 38.776C49.626 38.7982 49.623 38.8193 49.6181 38.8386C50.7663 39.0485 51.9139 39.2588 53.0621 39.4684C53.0902 39.4729 53.117 39.477 53.1441 39.4822C53.165 39.2013 53.1852 38.8081 53.1833 38.3376C53.1833 38.3376 53.18 36.8739 52.8876 35.4744C51.5355 28.9987 45.69 24.1131 38.7031 24.1131V27.5829C43.8586 27.5829 48.1929 31.1008 49.3489 35.8221C49.6675 37.1243 49.6508 38.3376 49.6508 38.3376C49.6469 38.4656 49.6413 38.5793 49.6351 38.6759Z" fill="#DD212F"/>
<path d="M38.9962 49.0883C38.8979 49.0915 38.7999 49.0925 38.7028 49.0925C32.6655 49.0925 27.7545 44.2682 27.7545 38.3384C27.7545 35.466 28.8935 32.765 30.9618 30.7338L28.4635 28.2803C25.729 30.9672 24.2227 34.5393 24.2227 38.3384C24.2227 46.1819 30.7184 52.5629 38.7022 52.5629C38.9907 52.5629 39.2805 52.552 39.5697 52.5347C39.6409 52.5311 39.7108 52.5276 39.7108 52.5276C39.8311 52.5209 39.9314 52.5141 40.0043 52.5087C39.77 51.366 39.5344 50.2249 39.3001 49.0816C39.2733 49.0816 39.2331 49.0816 39.1857 49.0825C39.0952 49.0842 39.0312 49.088 38.9962 49.0883Z" fill="#DD212F"/>
<path d="M44.6092 32.5379C43.0326 30.9882 40.9352 30.1348 38.7045 30.1348C34.101 30.1348 30.3555 33.8141 30.3555 38.337C30.3555 40.5287 31.224 42.5887 32.8005 44.1374L35.2988 41.6842C34.3888 40.79 33.8876 39.6017 33.8876 38.337C33.8876 35.7281 36.0491 33.6052 38.7045 33.6052C39.9916 33.6052 41.2019 34.0966 42.1122 34.9912L44.6092 32.5379Z" fill="#DD212F"/>
<path d="M55.7009 51.4138L62.8087 44.3099L40.5938 40.2518L45.1104 62L52.1502 54.9641L49.6309 52.5317L47.2437 54.9166L45.1032 44.6049L55.6359 46.5285L53.1817 48.9817L55.7009 51.4138Z" fill="#DD212F"/>
</g>
<path d="M40.7327 39.8778C40.7327 39.9453 40.678 40 40.6105 40C40.543 40 40.4883 39.9453 40.4883 39.8778C40.4883 39.8103 40.543 39.7556 40.6105 39.7556C40.678 39.7556 40.7327 39.8103 40.7327 39.8778Z" fill="#DD212F"/>
<defs>
<clipPath id="clip0">
<rect width="44.7333" height="44" fill="white" transform="translate(18 18)"/>
</clipPath>
</defs>
</svg>
