<svg width="90" height="90" viewBox="0 0 90 90" fill="none" xmlns="http://www.w3.org/2000/svg">
<rect width="90" height="90" rx="20" fill="white"/>
<rect width="90" height="90" rx="20" fill="url(#paint0_linear)"/>
<path d="M23.0249 29.1717H16.0827V34.3068H22.7338V36.2975H16.0827V43.0162H14V27.181H23.0249V29.1717Z" fill="#15C0E9"/>
<path d="M23.0249 29.1717H16.0827V34.3068H22.7338V36.2975H16.0827V43.0162H14V27.181H23.0249V29.1717Z" fill="white"/>
<path d="M26.1816 29.6467C25.8083 29.6467 25.4948 29.5186 25.241 29.2622C24.9872 29.0058 24.8603 28.6966 24.8603 28.3347C24.8603 27.9727 24.9872 27.6636 25.241 27.4072C25.4948 27.1357 25.8083 27 26.1816 27C26.5399 27 26.8459 27.1357 27.0997 27.4072C27.3535 27.6636 27.4805 27.9727 27.4805 28.3347C27.4805 28.6966 27.3535 29.0058 27.0997 29.2622C26.8459 29.5186 26.5399 29.6467 26.1816 29.6467ZM25.1962 43.0162V31.7053H27.1445V43.0162H25.1962Z" fill="#15C0E9"/>
<path d="M26.1816 29.6467C25.8083 29.6467 25.4948 29.5186 25.241 29.2622C24.9872 29.0058 24.8603 28.6966 24.8603 28.3347C24.8603 27.9727 24.9872 27.6636 25.241 27.4072C25.4948 27.1357 25.8083 27 26.1816 27C26.5399 27 26.8459 27.1357 27.0997 27.4072C27.3535 27.6636 27.4805 27.9727 27.4805 28.3347C27.4805 28.6966 27.3535 29.0058 27.0997 29.2622C26.8459 29.5186 26.5399 29.6467 26.1816 29.6467ZM25.1962 43.0162V31.7053H27.1445V43.0162H25.1962Z" fill="white"/>
<path d="M35.5438 31.4112C36.8575 31.4112 37.9101 31.8335 38.7013 32.6781C39.4926 33.5075 39.8882 34.6386 39.8882 36.0713V43.0162H37.9399V36.1844C37.9399 35.2645 37.6936 34.5557 37.2009 34.058C36.7083 33.5452 36.029 33.2889 35.163 33.2889C34.1926 33.2889 33.4088 33.598 32.8116 34.2163C32.2145 34.8196 31.9159 35.7546 31.9159 37.0214V43.0162H29.9676V31.7053H31.9159V33.3341C32.7071 32.0522 33.9164 31.4112 35.5438 31.4112Z" fill="#15C0E9"/>
<path d="M35.5438 31.4112C36.8575 31.4112 37.9101 31.8335 38.7013 32.6781C39.4926 33.5075 39.8882 34.6386 39.8882 36.0713V43.0162H37.9399V36.1844C37.9399 35.2645 37.6936 34.5557 37.2009 34.058C36.7083 33.5452 36.029 33.2889 35.163 33.2889C34.1926 33.2889 33.4088 33.598 32.8116 34.2163C32.2145 34.8196 31.9159 35.7546 31.9159 37.0214V43.0162H29.9676V31.7053H31.9159V33.3341C32.7071 32.0522 33.9164 31.4112 35.5438 31.4112Z" fill="white"/>
<path d="M51.7301 27.181H53.6784V43.0162H51.7301V41.0707C50.7596 42.5638 49.3488 43.3103 47.4975 43.3103C45.9299 43.3103 44.5937 42.7372 43.489 41.591C42.3842 40.4298 41.8318 39.0197 41.8318 37.3608C41.8318 35.7018 42.3842 34.2993 43.489 33.1531C44.5937 31.9919 45.9299 31.4112 47.4975 31.4112C49.3488 31.4112 50.7596 32.1578 51.7301 33.6508V27.181ZM47.7439 41.4101C48.8785 41.4101 49.8265 41.0255 50.588 40.2564C51.3494 39.4721 51.7301 38.5069 51.7301 37.3608C51.7301 36.2146 51.3494 35.2569 50.588 34.4878C49.8265 33.7036 48.8785 33.3115 47.7439 33.3115C46.6242 33.3115 45.6836 33.7036 44.9222 34.4878C44.1608 35.2569 43.7801 36.2146 43.7801 37.3608C43.7801 38.5069 44.1608 39.4721 44.9222 40.2564C45.6836 41.0255 46.6242 41.4101 47.7439 41.4101Z" fill="#15C0E9"/>
<path d="M51.7301 27.181H53.6784V43.0162H51.7301V41.0707C50.7596 42.5638 49.3488 43.3103 47.4975 43.3103C45.9299 43.3103 44.5937 42.7372 43.489 41.591C42.3842 40.4298 41.8318 39.0197 41.8318 37.3608C41.8318 35.7018 42.3842 34.2993 43.489 33.1531C44.5937 31.9919 45.9299 31.4112 47.4975 31.4112C49.3488 31.4112 50.7596 32.1578 51.7301 33.6508V27.181ZM47.7439 41.4101C48.8785 41.4101 49.8265 41.0255 50.588 40.2564C51.3494 39.4721 51.7301 38.5069 51.7301 37.3608C51.7301 36.2146 51.3494 35.2569 50.588 34.4878C49.8265 33.7036 48.8785 33.3115 47.7439 33.3115C46.6242 33.3115 45.6836 33.7036 44.9222 34.4878C44.1608 35.2569 43.7801 36.2146 43.7801 37.3608C43.7801 38.5069 44.1608 39.4721 44.9222 40.2564C45.6836 41.0255 46.6242 41.4101 47.7439 41.4101Z" fill="white"/>
<path d="M29.4937 49.28H22.5514V54.4152H29.2025V56.4059H22.5514V63.1245H20.4688V47.2893H29.4937V49.28Z" fill="#15C0E9"/>
<path d="M29.4937 49.28H22.5514V54.4152H29.2025V56.4059H22.5514V63.1245H20.4688V47.2893H29.4937V49.28Z" fill="white"/>
<path d="M40.9362 51.8137H42.8845V63.1245H40.9362V61.1791C39.9658 62.6721 38.555 63.4186 36.7037 63.4186C35.1361 63.4186 33.7999 62.8455 32.6951 61.6994C31.5903 60.5381 31.0379 59.128 31.0379 57.4691C31.0379 55.8102 31.5903 54.4076 32.6951 53.2615C33.7999 52.1002 35.1361 51.5196 36.7037 51.5196C38.555 51.5196 39.9658 52.2661 40.9362 53.7591V51.8137ZM36.95 61.5184C38.0847 61.5184 39.0327 61.1338 39.7941 60.3647C40.5555 59.5805 40.9362 58.6153 40.9362 57.4691C40.9362 56.3229 40.5555 55.3653 39.7941 54.5961C39.0327 53.8119 38.0847 53.4198 36.95 53.4198C35.8303 53.4198 34.8898 53.8119 34.1284 54.5961C33.3669 55.3653 32.9862 56.3229 32.9862 57.4691C32.9862 58.6153 33.3669 59.5805 34.1284 60.3647C34.8898 61.1338 35.8303 61.5184 36.95 61.5184Z" fill="#15C0E9"/>
<path d="M40.9362 51.8137H42.8845V63.1245H40.9362V61.1791C39.9658 62.6721 38.555 63.4186 36.7037 63.4186C35.1361 63.4186 33.7999 62.8455 32.6951 61.6994C31.5903 60.5381 31.0379 59.128 31.0379 57.4691C31.0379 55.8102 31.5903 54.4076 32.6951 53.2615C33.7999 52.1002 35.1361 51.5196 36.7037 51.5196C38.555 51.5196 39.9658 52.2661 40.9362 53.7591V51.8137ZM36.95 61.5184C38.0847 61.5184 39.0327 61.1338 39.7941 60.3647C40.5555 59.5805 40.9362 58.6153 40.9362 57.4691C40.9362 56.3229 40.5555 55.3653 39.7941 54.5961C39.0327 53.8119 38.0847 53.4198 36.95 53.4198C35.8303 53.4198 34.8898 53.8119 34.1284 54.5961C33.3669 55.3653 32.9862 56.3229 32.9862 57.4691C32.9862 58.6153 33.3669 59.5805 34.1284 60.3647C34.8898 61.1338 35.8303 61.5184 36.95 61.5184Z" fill="white"/>
<path d="M50.9498 63.4186C49.2627 63.4186 47.8593 62.8531 46.7396 61.722C45.6199 60.5758 45.06 59.1582 45.06 57.4691C45.06 55.78 45.6199 54.3699 46.7396 53.2388C47.8593 52.0927 49.2627 51.5196 50.9498 51.5196C52.0545 51.5196 53.0474 51.791 53.9282 52.334C54.809 52.8618 55.4659 53.5782 55.8989 54.483L54.2641 55.4331C53.9805 54.8299 53.54 54.3473 52.9429 53.9853C52.3606 53.6234 51.6962 53.4424 50.9498 53.4424C49.83 53.4424 48.8895 53.827 48.1281 54.5961C47.3816 55.3653 47.0084 56.3229 47.0084 57.4691C47.0084 58.6002 47.3816 59.5503 48.1281 60.3194C48.8895 61.0886 49.83 61.4732 50.9498 61.4732C51.6962 61.4732 52.3681 61.2997 52.9652 60.9529C53.5624 60.5909 54.0178 60.1083 54.3313 59.5051L55.9885 60.4778C55.5107 61.3676 54.824 62.0839 53.9282 62.6269C53.0324 63.1547 52.0396 63.4186 50.9498 63.4186Z" fill="#15C0E9"/>
<path d="M50.9498 63.4186C49.2627 63.4186 47.8593 62.8531 46.7396 61.722C45.6199 60.5758 45.06 59.1582 45.06 57.4691C45.06 55.78 45.6199 54.3699 46.7396 53.2388C47.8593 52.0927 49.2627 51.5196 50.9498 51.5196C52.0545 51.5196 53.0474 51.791 53.9282 52.334C54.809 52.8618 55.4659 53.5782 55.8989 54.483L54.2641 55.4331C53.9805 54.8299 53.54 54.3473 52.9429 53.9853C52.3606 53.6234 51.6962 53.4424 50.9498 53.4424C49.83 53.4424 48.8895 53.827 48.1281 54.5961C47.3816 55.3653 47.0084 56.3229 47.0084 57.4691C47.0084 58.6002 47.3816 59.5503 48.1281 60.3194C48.8895 61.0886 49.83 61.4732 50.9498 61.4732C51.6962 61.4732 52.3681 61.2997 52.9652 60.9529C53.5624 60.5909 54.0178 60.1083 54.3313 59.5051L55.9885 60.4778C55.5107 61.3676 54.824 62.0839 53.9282 62.6269C53.0324 63.1547 52.0396 63.4186 50.9498 63.4186Z" fill="white"/>
<path d="M58.9758 58.374C59.1699 59.3844 59.6252 60.1686 60.3418 60.7266C61.0734 61.2846 61.9692 61.5636 63.0292 61.5636C64.5072 61.5636 65.5821 61.0132 66.2539 59.9122L67.9111 60.8624C66.8213 62.5665 65.179 63.4186 62.9844 63.4186C61.2078 63.4186 59.7596 62.8606 58.6399 61.7446C57.5351 60.6135 56.9827 59.1884 56.9827 57.4691C56.9827 55.7649 57.5276 54.3473 58.6175 53.2162C59.7073 52.0851 61.1182 51.5196 62.85 51.5196C64.4923 51.5196 65.8284 52.1077 66.8586 53.2841C67.9037 54.4453 68.4262 55.8479 68.4262 57.4917C68.4262 57.7783 68.4038 58.0723 68.359 58.374H58.9758ZM62.85 53.3746C61.8049 53.3746 60.939 53.6762 60.2523 54.2794C59.5655 54.8676 59.14 55.6594 58.9758 56.6547H66.4555C66.2913 55.584 65.8732 54.7696 65.2014 54.2116C64.5296 53.6536 63.7458 53.3746 62.85 53.3746Z" fill="#15C0E9"/>
<path d="M58.9758 58.374C59.1699 59.3844 59.6252 60.1686 60.3418 60.7266C61.0734 61.2846 61.9692 61.5636 63.0292 61.5636C64.5072 61.5636 65.5821 61.0132 66.2539 59.9122L67.9111 60.8624C66.8213 62.5665 65.179 63.4186 62.9844 63.4186C61.2078 63.4186 59.7596 62.8606 58.6399 61.7446C57.5351 60.6135 56.9827 59.1884 56.9827 57.4691C56.9827 55.7649 57.5276 54.3473 58.6175 53.2162C59.7073 52.0851 61.1182 51.5196 62.85 51.5196C64.4923 51.5196 65.8284 52.1077 66.8586 53.2841C67.9037 54.4453 68.4262 55.8479 68.4262 57.4917C68.4262 57.7783 68.4038 58.0723 68.359 58.374H58.9758ZM62.85 53.3746C61.8049 53.3746 60.939 53.6762 60.2523 54.2794C59.5655 54.8676 59.14 55.6594 58.9758 56.6547H66.4555C66.2913 55.584 65.8732 54.7696 65.2014 54.2116C64.5296 53.6536 63.7458 53.3746 62.85 53.3746Z" fill="white"/>
<path fill-rule="evenodd" clip-rule="evenodd" d="M62.004 34.8506C62.1493 34.6889 62.467 34.5189 62.7393 34.457C63.0627 34.3835 63.3644 34.4529 64.249 34.8046C65.237 35.1973 65.6263 35.287 66.3422 35.287C67.0648 35.287 67.4495 35.1969 68.468 34.7891C69.4574 34.3929 69.8441 34.3502 70.3039 34.5864C70.652 34.7652 70.888 35.0712 71.0306 35.5289C71.0899 35.7189 71.4064 36.8695 71.734 38.0857C72.0616 39.3019 72.3501 40.3199 72.3751 40.3478C72.4001 40.3758 72.7746 40.4606 73.2073 40.5365C74.7301 40.8033 75.7092 41.1449 75.932 41.4871C76.0227 41.6266 76.0227 41.6625 75.9322 41.8015C75.5694 42.3592 73.8376 42.781 70.5627 43.1095C69.1424 43.2519 63.2678 43.2285 61.7785 43.0744C58.5485 42.7402 56.7344 42.2367 56.7344 41.6745C56.7344 41.4935 57.0483 41.2042 57.4118 41.0502C57.7967 40.8872 58.8972 40.6273 59.5926 40.5352C59.9379 40.4895 60.2474 40.4327 60.2803 40.4091C60.3133 40.3855 60.6286 39.2933 60.9811 37.982C61.6243 35.589 61.7866 35.0925 62.004 34.8506ZM59.7271 45.4589C59.4619 44.6089 59.4943 44.3127 59.8758 44.0994C59.9787 44.0419 60.1554 44.0087 60.2687 44.0257C62.7578 44.4 68.4258 44.4329 71.7252 44.0924C72.7143 43.9902 72.7566 43.9911 72.9262 44.1179C73.2923 44.3917 73.3246 44.546 73.1546 45.2084C72.9695 45.9294 72.4879 46.9767 72.178 47.3321C71.5894 48.0071 69.2268 48.7388 68.2417 48.5511C68.0125 48.5075 67.7551 48.3735 67.4036 48.115C66.6241 47.5419 66.2569 47.5397 65.5187 48.1038C65.0101 48.4925 64.986 48.5048 64.629 48.5618C63.6339 48.7207 61.3411 48.0108 60.6715 47.3366C60.3595 47.0224 59.9786 46.2651 59.7271 45.4589ZM64.9396 46.0251C64.9087 45.901 64.8015 45.8077 64.573 45.7059C64.309 45.5883 64.075 45.5574 63.2888 45.5361C62.125 45.5046 61.8813 45.5751 61.8817 45.9429C61.882 46.2875 62.1053 46.5914 62.5137 46.8034C62.8174 46.9609 62.9827 46.9955 63.5285 47.0161C64.1095 47.038 64.2103 47.0233 64.4549 46.8815C64.7769 46.6949 65.0057 46.2906 64.9396 46.0251ZM70.8966 45.9638C70.9052 45.7097 70.8885 45.6838 70.6657 45.6059C70.3978 45.5124 69.1637 45.5002 68.6569 45.586C67.9226 45.7104 67.6821 46.0665 68.0041 46.5531C68.2279 46.8915 68.5743 47.0432 69.1224 47.0432C69.7238 47.0432 70.1835 46.8793 70.5698 46.5272C70.8394 46.2814 70.8888 46.1964 70.8966 45.9638ZM66.2123 38.3545C65.9503 38.0758 65.6344 37.9364 65.2647 37.9364C64.8555 37.9364 64.5414 38.0905 64.3224 38.3985V36.9077H63.7409V40.7586H64.3224V40.3625C64.5414 40.6742 64.8555 40.8301 65.2647 40.8301C65.6344 40.8301 65.9503 40.6907 66.2123 40.412C66.4743 40.1296 66.6053 39.7867 66.6053 39.3833C66.6053 38.9762 66.4743 38.6333 66.2123 38.3545ZM65.1731 40.2635C64.929 40.2635 64.7262 40.1809 64.5647 40.0159C64.4032 39.8472 64.3224 39.6363 64.3224 39.3833C64.3224 39.1302 64.4032 38.9212 64.5647 38.7561C64.7262 38.5874 64.929 38.5031 65.1731 38.5031C65.4172 38.5031 65.62 38.5874 65.7815 38.7561C65.9431 38.9212 66.0238 39.1302 66.0238 39.3833C66.0238 39.6363 65.9431 39.8472 65.7815 40.0159C65.62 40.1809 65.4172 40.2635 65.1731 40.2635ZM69.3455 38.008H68.7263L68.0371 40.0049L67.2349 38.008H66.5995L67.741 40.7091L67.7141 40.7641C67.6423 40.9548 67.5507 41.0941 67.4395 41.1822C67.3282 41.2739 67.181 41.3142 66.998 41.3032V41.8588C67.6154 41.8955 68.0533 41.5581 68.3117 40.8466L69.3455 38.008Z" fill="#15C0E9"/>
<path fill-rule="evenodd" clip-rule="evenodd" d="M62.004 34.8506C62.1493 34.6889 62.467 34.5189 62.7393 34.457C63.0627 34.3835 63.3644 34.4529 64.249 34.8046C65.237 35.1973 65.6263 35.287 66.3422 35.287C67.0648 35.287 67.4495 35.1969 68.468 34.7891C69.4574 34.3929 69.8441 34.3502 70.3039 34.5864C70.652 34.7652 70.888 35.0712 71.0306 35.5289C71.0899 35.7189 71.4064 36.8695 71.734 38.0857C72.0616 39.3019 72.3501 40.3199 72.3751 40.3478C72.4001 40.3758 72.7746 40.4606 73.2073 40.5365C74.7301 40.8033 75.7092 41.1449 75.932 41.4871C76.0227 41.6266 76.0227 41.6625 75.9322 41.8015C75.5694 42.3592 73.8376 42.781 70.5627 43.1095C69.1424 43.2519 63.2678 43.2285 61.7785 43.0744C58.5485 42.7402 56.7344 42.2367 56.7344 41.6745C56.7344 41.4935 57.0483 41.2042 57.4118 41.0502C57.7967 40.8872 58.8972 40.6273 59.5926 40.5352C59.9379 40.4895 60.2474 40.4327 60.2803 40.4091C60.3133 40.3855 60.6286 39.2933 60.9811 37.982C61.6243 35.589 61.7866 35.0925 62.004 34.8506ZM59.7271 45.4589C59.4619 44.6089 59.4943 44.3127 59.8758 44.0994C59.9787 44.0419 60.1554 44.0087 60.2687 44.0257C62.7578 44.4 68.4258 44.4329 71.7252 44.0924C72.7143 43.9902 72.7566 43.9911 72.9262 44.1179C73.2923 44.3917 73.3246 44.546 73.1546 45.2084C72.9695 45.9294 72.4879 46.9767 72.178 47.3321C71.5894 48.0071 69.2268 48.7388 68.2417 48.5511C68.0125 48.5075 67.7551 48.3735 67.4036 48.115C66.6241 47.5419 66.2569 47.5397 65.5187 48.1038C65.0101 48.4925 64.986 48.5048 64.629 48.5618C63.6339 48.7207 61.3411 48.0108 60.6715 47.3366C60.3595 47.0224 59.9786 46.2651 59.7271 45.4589ZM64.9396 46.0251C64.9087 45.901 64.8015 45.8077 64.573 45.7059C64.309 45.5883 64.075 45.5574 63.2888 45.5361C62.125 45.5046 61.8813 45.5751 61.8817 45.9429C61.882 46.2875 62.1053 46.5914 62.5137 46.8034C62.8174 46.9609 62.9827 46.9955 63.5285 47.0161C64.1095 47.038 64.2103 47.0233 64.4549 46.8815C64.7769 46.6949 65.0057 46.2906 64.9396 46.0251ZM70.8966 45.9638C70.9052 45.7097 70.8885 45.6838 70.6657 45.6059C70.3978 45.5124 69.1637 45.5002 68.6569 45.586C67.9226 45.7104 67.6821 46.0665 68.0041 46.5531C68.2279 46.8915 68.5743 47.0432 69.1224 47.0432C69.7238 47.0432 70.1835 46.8793 70.5698 46.5272C70.8394 46.2814 70.8888 46.1964 70.8966 45.9638ZM66.2123 38.3545C65.9503 38.0758 65.6344 37.9364 65.2647 37.9364C64.8555 37.9364 64.5414 38.0905 64.3224 38.3985V36.9077H63.7409V40.7586H64.3224V40.3625C64.5414 40.6742 64.8555 40.8301 65.2647 40.8301C65.6344 40.8301 65.9503 40.6907 66.2123 40.412C66.4743 40.1296 66.6053 39.7867 66.6053 39.3833C66.6053 38.9762 66.4743 38.6333 66.2123 38.3545ZM65.1731 40.2635C64.929 40.2635 64.7262 40.1809 64.5647 40.0159C64.4032 39.8472 64.3224 39.6363 64.3224 39.3833C64.3224 39.1302 64.4032 38.9212 64.5647 38.7561C64.7262 38.5874 64.929 38.5031 65.1731 38.5031C65.4172 38.5031 65.62 38.5874 65.7815 38.7561C65.9431 38.9212 66.0238 39.1302 66.0238 39.3833C66.0238 39.6363 65.9431 39.8472 65.7815 40.0159C65.62 40.1809 65.4172 40.2635 65.1731 40.2635ZM69.3455 38.008H68.7263L68.0371 40.0049L67.2349 38.008H66.5995L67.741 40.7091L67.7141 40.7641C67.6423 40.9548 67.5507 41.0941 67.4395 41.1822C67.3282 41.2739 67.181 41.3142 66.998 41.3032V41.8588C67.6154 41.8955 68.0533 41.5581 68.3117 40.8466L69.3455 38.008Z" fill="white"/>
<defs>
<linearGradient id="paint0_linear" x1="90" y1="-2.96476e-06" x2="-0.690339" y2="91.0153" gradientUnits="userSpaceOnUse">
<stop stop-color="#12C2E9"/>
<stop offset="0.522101" stop-color="#C471ED"/>
<stop offset="1" stop-color="#F64F59"/>
</linearGradient>
</defs>
</svg>
